<?xml version="1.0" encoding="utf-8"?>
<!-- Generator: Adobe Illustrator 26.0.1, SVG Export Plug-In . SVG Version: 6.00 Build 0)  -->
<svg version="1.1" id="Layer_1" xmlns="http://www.w3.org/2000/svg" xmlns:xlink="http://www.w3.org/1999/xlink" x="0px" y="0px"
	 viewBox="0 0 300 300" style="enable-background:new 0 0 300 300;" xml:space="preserve">
<style type="text/css">
	.st0{fill:url(#SVGID_1_);}
	.st1{fill:url(#SVGID_00000068653425770409948070000004551736970625289622_);}
	.st2{opacity:0.15;clip-path:url(#SVGID_00000093177670574423475660000010144198666873870488_);enable-background:new    ;}
	.st3{fill:#0BECC6;}
	.st4{fill:#19B5CD;}
	.st5{fill:url(#SVGID_00000135674746090963998540000015658067415686385040_);}
</style>
<g>
	
		<linearGradient id="SVGID_1_" gradientUnits="userSpaceOnUse" x1="66.3035" y1="132.7297" x2="182.7204" y2="132.7297" gradientTransform="matrix(1 0 0 -1 0 300)">
		<stop  offset="0" style="stop-color:#678DDB"/>
		<stop  offset="1" style="stop-color:#4A81C7"/>
	</linearGradient>
	<path class="st0" d="M124,59.5c-29.2,0-52.9,21.3-57.2,49.3l-0.5,5.3v12.6l0.4,148.3l58.9-69.8l0.5-29.1l0.7-58.7l0,0
		c0-15.5,12.6-28.2,28.2-28.2c12.5,0,24.2,8.2,27.8,19.5C178.4,80.9,154.8,59.5,124,59.5z"/>
	
		<linearGradient id="SVGID_00000132053966272031101410000013704820346451065221_" gradientUnits="userSpaceOnUse" x1="66.2744" y1="59.9162" x2="126.0831" y2="59.9162" gradientTransform="matrix(1 0 0 -1 0 300)">
		<stop  offset="0" style="stop-color:#4772CB"/>
		<stop  offset="1" style="stop-color:#4A81C7"/>
	</linearGradient>
	<path style="fill:url(#SVGID_00000132053966272031101410000013704820346451065221_);" d="M66.3,265.2c0,3.2-0.2,6.8,0.4,9.9
		c32.7-0.4,59.4-27.3,59.4-60.1c0-3.2,0.2-6.8-0.4-9.9C93,205.5,66.3,232.5,66.3,265.2z"/>
	<g>
		<g>
			<defs>
				<path id="SVGID_00000158017581382347006130000002166032085943738291_" d="M124,59.5c-29.2,0-53.4,21.5-57.7,49.5v17.8l0.3,132.4
					c-0.2,2-0.3,4-0.3,6c0,3.2-0.2,6.8,0.4,9.9c32.7-0.4,59.4-27.3,59.4-60.1c0-3.2,0.2-6.8-0.4-9.9c-0.1,0-0.1,0-0.2,0l0.5-28.9
					l0.7-58.7l0,0c0-15.5,12.6-28.2,28.2-28.2c12.5,0,24.2,8.2,27.8,19.5C178.4,80.9,154.3,59.5,124,59.5z"/>
			</defs>
			<clipPath id="SVGID_00000166655311215663848640000010776493135922182288_">
				<use xlink:href="#SVGID_00000158017581382347006130000002166032085943738291_"  style="overflow:visible;"/>
			</clipPath>
			
				<path style="opacity:0.15;clip-path:url(#SVGID_00000166655311215663848640000010776493135922182288_);enable-background:new    ;" d="
				M151.5,35c-48.9,0-88.6,39.7-88.6,88.6c0,0.1,0,0.1,0,0.2c0.1-32.2,26.2-58.3,58.4-58.3c31.6,0,57.3,25.1,58.4,56.4
				c0.1,0.5,0.1,1.1,0.1,1.6c0,0.1,0,0.1,0,0.2s0,0.1,0,0.2c0,0.2,0,0.5,0,0.8c-0.5,13.9-11.1,25.2-24.7,26.9
				c-0.1,0.1-0.2,0.2-0.3,0.2c-9.3,0.4-24.6,0.2-30,0.1c-1.3,0-2.1-0.1-2.1-0.1c-0.9,0-1.8,0-2.8,0.1c-0.1,0-0.1,0-0.2,0
				c-0.8,0.1-1.8,0.1-2.6,0.2c-0.1,0-0.2,0-0.3,0c-0.8,0.1-1.7,0.2-2.5,0.3c-0.1,0-0.2,0.1-0.4,0.1c-0.8,0.1-1.6,0.2-2.4,0.4
				c-0.1,0-0.2,0.1-0.4,0.1c-0.8,0.2-1.6,0.3-2.4,0.5c-0.1,0-0.2,0.1-0.4,0.1c-0.8,0.2-1.6,0.4-2.4,0.7c-0.1,0-0.2,0.1-0.3,0.1
				c-0.8,0.2-1.6,0.5-2.4,0.8c-0.1,0-0.1,0.1-0.2,0.1c-0.8,0.3-1.6,0.6-2.5,0.9l0,0c-1.7,0.7-3.3,1.4-4.9,2.2
				c-0.1,0-0.1,0.1-0.1,0.1c-0.8,0.4-1.5,0.8-2.2,1.2c-0.1,0.1-0.1,0.1-0.2,0.1c-0.7,0.4-1.5,0.8-2.2,1.3c-0.1,0.1-0.1,0.1-0.2,0.1
				c-0.7,0.4-1.4,0.9-2.1,1.4c-0.1,0.1-0.1,0.1-0.2,0.1c-0.7,0.5-1.4,1-2.1,1.5c-0.1,0.1-0.1,0.1-0.2,0.1c-0.7,0.5-1.3,1-2,1.6
				c-0.1,0-0.1,0.1-0.1,0.1c-0.7,0.5-1.3,1.1-2,1.8c-1.7,1.6-1.1,7-2.7,8.8c-0.5,0.6-1.1,1.3-1.6,1.9c-0.1,0.1-0.1,0.1-0.1,0.2
				c-0.5,0.6-1,1.3-1.5,1.9c-0.1,0.1-0.1,0.2-0.2,0.2c-0.5,0.6-0.9,1.3-1.3,1.9c-0.1,0.1-0.1,0.2-0.2,0.2c-0.4,0.7-0.8,1.3-1.3,2
				c-0.1,0.1-0.1,0.1-0.1,0.2c-0.8,1.5-1.6,2.9-2.4,4.4c0,0.1-0.1,0.1-0.1,0.2c-0.4,0.7-0.7,1.5-1,2.2c-0.1,0.1-0.1,0.2-0.1,0.3
				c-0.3,0.7-0.6,1.5-0.9,2.2c-0.1,0.1-0.1,0.2-0.1,0.4c-0.3,0.7-0.5,1.5-0.8,2.2c-0.1,0.1-0.1,0.2-0.1,0.3
				c-0.2,0.8-0.5,1.5-0.7,2.3c0,0.1,0,0.1-0.1,0.2c-0.2,0.8-0.4,1.6-0.6,2.4c0,0.1,0,0.1-0.1,0.1c-0.2,0.8-0.4,1.6-0.5,2.4
				c0,0.1-0.1,0.2-0.1,0.3c-0.1,0.8-0.2,1.6-0.4,2.4c0,0.1-0.1,0.2-0.1,0.4c-0.1,0.8-0.2,1.6-0.3,2.4c0,0.1,0,0.2-0.1,0.4
				c-0.1,0.8-0.1,1.6-0.2,2.4c0,0.1,0,0.2,0,0.3c-0.1,0.8-0.1,1.8-0.1,2.6l-2.1,55.9c0-10.9,2.9-21.1,8-29.9
				c10.2-17.7,29.2-29.6,51-29.9h0.7l19.8,0.2c3,0.3,6,0.5,9.1,0.5c10.8,0,21.2-1.9,30.7-5.4c33.8-12.5,57.9-45,57.9-83.2
				C240.1,74.7,200.4,35,151.5,35z"/>
		</g>
	</g>
	<g>
		<path class="st3" d="M94.2,154.9c0.1-0.1,0.1-0.1,0.2-0.1C94.4,154.8,94.3,154.8,94.2,154.9z"/>
		<path class="st3" d="M89.8,158c0.1-0.1,0.1-0.1,0.2-0.1C89.9,157.9,89.8,157.9,89.8,158z"/>
		<path class="st3" d="M92,156.4c0.1-0.1,0.1-0.1,0.2-0.1C92.1,156.3,92.1,156.4,92,156.4z"/>
		<path class="st3" d="M68.5,189.4c0-0.1,0-0.1,0.1-0.2C68.5,189.3,68.5,189.3,68.5,189.4z"/>
		<path class="st3" d="M96.6,153.5c0.1-0.1,0.1-0.1,0.2-0.1C96.7,153.4,96.7,153.5,96.6,153.5z"/>
		<path class="st3" d="M104,149.9L104,149.9L104,149.9z"/>
		<path class="st3" d="M72.3,179.4c0-0.1,0.1-0.1,0.1-0.2C72.4,179.3,72.3,179.3,72.3,179.4z"/>
		<path class="st3" d="M67.9,191.9c0-0.1,0-0.1,0.1-0.1C67.9,191.8,67.9,191.9,67.9,191.9z"/>
		<path class="st3" d="M99,152.2c0.1,0,0.1-0.1,0.1-0.1C99.1,152.1,99.1,152.1,99,152.2z"/>
		<path class="st3" d="M77.6,170.5c0.1-0.1,0.1-0.2,0.2-0.2C77.7,170.3,77.7,170.4,77.6,170.5z"/>
		<path class="st3" d="M106.5,149c0.1,0,0.1-0.1,0.2-0.1C106.6,149,106.6,149,106.5,149z"/>
		<path class="st3" d="M76.1,172.7c0.1-0.1,0.1-0.2,0.2-0.2C76.2,172.5,76.2,172.6,76.1,172.7z"/>
		<path class="st3" d="M71.1,181.9c0.1-0.1,0.1-0.2,0.1-0.3C71.3,181.7,71.2,181.8,71.1,181.9z"/>
		<path class="st3" d="M74.7,174.9c0.1-0.1,0.1-0.1,0.1-0.2C74.8,174.7,74.8,174.8,74.7,174.9z"/>
		<path class="st3" d="M69.3,186.9c0.1-0.1,0.1-0.2,0.1-0.3C69.3,186.7,69.3,186.8,69.3,186.9z"/>
		<path class="st3" d="M87.7,159.6c0.1,0,0.1-0.1,0.1-0.1C87.8,159.6,87.8,159.6,87.7,159.6z"/>
		<path class="st3" d="M70.1,184.4c0.1-0.1,0.1-0.2,0.1-0.4C70.2,184.2,70.2,184.3,70.1,184.4z"/>
		<path class="st3" d="M79.2,168.4c0.1-0.1,0.1-0.1,0.1-0.2C79.3,168.3,79.2,168.3,79.2,168.4z"/>
		<path class="st3" d="M67.3,194.6c0-0.1,0.1-0.2,0.1-0.3C67.3,194.4,67.3,194.5,67.3,194.6z"/>
		<path class="st3" d="M117.3,146.4c0.1,0,0.2-0.1,0.4-0.1C117.6,146.3,117.5,146.3,117.3,146.4z"/>
		<path class="st3" d="M66.5,200.1c0-0.1,0-0.2,0.1-0.4C66.5,199.9,66.5,200,66.5,200.1z"/>
		<path class="st3" d="M66.4,202.9c0-0.1,0-0.2,0-0.3C66.4,202.7,66.4,202.8,66.4,202.9z"/>
		<path class="st3" d="M120.2,146c0.1,0,0.2,0,0.3,0C120.4,146,120.3,146,120.2,146z"/>
		<path class="st3" d="M114.5,146.9c0.1,0,0.2-0.1,0.4-0.1C114.7,146.8,114.6,146.8,114.5,146.9z"/>
		<path class="st3" d="M66.8,197.4c0-0.1,0.1-0.2,0.1-0.4C66.9,197.1,66.8,197.2,66.8,197.4z"/>
		<path class="st3" d="M109.1,148.2c0.1,0,0.2-0.1,0.3-0.1C109.3,148.1,109.2,148.1,109.1,148.2z"/>
		<path class="st3" d="M123.1,145.8c0.1,0,0.1,0,0.2,0C123.2,145.8,123.2,145.8,123.1,145.8z"/>
		<path class="st3" d="M111.8,147.5c0.1,0,0.2-0.1,0.4-0.1C112,147.4,111.9,147.4,111.8,147.5z"/>
		<path class="st4" d="M70.3,184.1c0.3-0.7,0.5-1.5,0.9-2.2C70.8,182.6,70.5,183.3,70.3,184.1z"/>
		<path class="st4" d="M71.3,181.6c0.3-0.7,0.7-1.5,1-2.2C71.9,180.1,71.6,180.8,71.3,181.6z"/>
		<path class="st4" d="M66.6,199.8c0.1-0.8,0.2-1.6,0.3-2.4C66.7,198.1,66.7,198.9,66.6,199.8z"/>
		<path class="st4" d="M66.9,197c0.1-0.8,0.2-1.6,0.4-2.4C67.2,195.4,67,196.2,66.9,197z"/>
		<path class="st4" d="M67.9,191.8c0.2-0.8,0.4-1.6,0.6-2.4C68.3,190.2,68.1,190.9,67.9,191.8z"/>
		<path class="st4" d="M67.3,194.3c0.2-0.8,0.3-1.6,0.5-2.4C67.7,192.7,67.5,193.5,67.3,194.3z"/>
		<path class="st4" d="M68.5,189.2c0.2-0.8,0.5-1.6,0.7-2.3C69,187.7,68.8,188.4,68.5,189.2z"/>
		<path class="st4" d="M69.3,186.6c0.2-0.7,0.5-1.5,0.8-2.2C69.9,185.1,69.6,185.9,69.3,186.6z"/>
		<path class="st4" d="M66.3,205.5c0-0.8,0-1.8,0.1-2.6C66.3,203.7,66.3,204.6,66.3,205.5z"/>
		<path class="st4" d="M66.4,202.6c0.1-0.8,0.1-1.6,0.2-2.4C66.5,200.9,66.4,201.8,66.4,202.6z"/>
		<path class="st4" d="M77.8,170.3c0.5-0.7,1-1.3,1.5-1.9C78.7,169,78.3,169.6,77.8,170.3z"/>
		<path class="st4" d="M112.1,147.3c0.8-0.2,1.6-0.4,2.4-0.5C113.7,147,112.9,147.2,112.1,147.3z"/>
		<path class="st4" d="M114.9,146.7c0.8-0.2,1.6-0.3,2.4-0.4C116.5,146.5,115.7,146.6,114.9,146.7z"/>
		<path class="st4" d="M117.7,146.3c0.8-0.1,1.7-0.2,2.5-0.3C119.3,146.1,118.5,146.2,117.7,146.3z"/>
		<path class="st4" d="M109.4,148.1c0.8-0.2,1.6-0.4,2.4-0.7C111,147.6,110.1,147.8,109.4,148.1z"/>
		<path class="st4" d="M106.7,148.9c0.8-0.2,1.6-0.5,2.4-0.8C108.3,148.4,107.5,148.7,106.7,148.9z"/>
		<path class="st4" d="M104,149.9c0.8-0.3,1.6-0.6,2.5-0.9C105.7,149.3,104.9,149.6,104,149.9z"/>
		<path class="st4" d="M120.5,146c0.8-0.1,1.8-0.1,2.6-0.2C122.2,145.8,121.3,145.9,120.5,146z"/>
		<path class="st4" d="M126.1,145.7c0,0,0.7,0,2.1,0.1C127.4,145.7,126.7,145.7,126.1,145.7z"/>
		<path class="st4" d="M123.3,145.8c0.9-0.1,1.8-0.1,2.8-0.1C125.1,145.7,124.2,145.8,123.3,145.8z"/>
		<path class="st4" d="M76.3,172.4c0.4-0.7,0.8-1.3,1.3-1.9C77.1,171.1,76.7,171.8,76.3,172.4z"/>
		<path class="st4" d="M85.7,161.4c0.7-0.6,1.3-1.1,2-1.8C87,160.2,86.4,160.8,85.7,161.4z"/>
		<path class="st4" d="M79.4,168.2c0.5-0.7,1-1.3,1.6-1.9C80.4,166.9,79.9,167.5,79.4,168.2z"/>
		<path class="st4" d="M74.8,174.7c0.4-0.7,0.8-1.3,1.3-2C75.7,173.3,75.3,174,74.8,174.7z"/>
		<path class="st4" d="M72.4,179.2c0.7-1.5,1.5-3,2.4-4.4C73.9,176.3,73.1,177.8,72.4,179.2z"/>
		<path class="st4" d="M87.8,159.6c0.7-0.5,1.3-1.1,2-1.6C89.1,158.5,88.4,159,87.8,159.6z"/>
		<path class="st4" d="M89.9,157.9c0.7-0.5,1.3-1,2.1-1.5C91.3,156.8,90.6,157.4,89.9,157.9z"/>
		<path class="st4" d="M96.8,153.4c0.7-0.4,1.5-0.8,2.2-1.2C98.3,152.5,97.5,153,96.8,153.4z"/>
		<path class="st4" d="M94.4,154.8c0.7-0.4,1.5-0.8,2.2-1.3C95.9,153.9,95.2,154.3,94.4,154.8z"/>
		<path class="st4" d="M99.1,152.1c1.6-0.8,3.2-1.6,4.9-2.2C102.3,150.5,100.7,151.3,99.1,152.1z"/>
		<path class="st4" d="M92.2,156.2c0.7-0.5,1.4-0.9,2.1-1.4C93.5,155.3,92.9,155.8,92.2,156.2z"/>
		
			<linearGradient id="SVGID_00000132797740204231603090000000100673216251479437_" gradientUnits="userSpaceOnUse" x1="66.3028" y1="152.8986" x2="243.5592" y2="152.8986" gradientTransform="matrix(1 0 0 -1 0 300)">
			<stop  offset="0" style="stop-color:#4C9AFF"/>
			<stop  offset="1" style="stop-color:#56B8E9"/>
		</linearGradient>
		<path style="fill:url(#SVGID_00000132797740204231603090000000100673216251479437_);" d="M154.9,28.9c-48.9,0-88.6,39.7-88.6,88.6
			c0,0.1,0,0.1,0,0.2c0.1-32.2,26.2-58.3,58.4-58.3c31.6,0,57.3,25.1,58.4,56.4c0.1,0.5,0.1,1.1,0.1,1.6c0,0.1,0,0.1,0,0.2
			c0,0.1,0,0.1,0,0.2c0,0.2,0,0.5,0,0.8c-0.5,13.9-11.1,25.2-24.7,26.9c-0.1,0.1-0.2,0.2-0.3,0.2c-9.3,0.4-24.6,0.2-30,0.1
			c-1.3,0-2.1-0.1-2.1-0.1c-0.9,0-1.8,0-2.8,0.1c-0.1,0-0.1,0-0.2,0c-0.8,0.1-1.8,0.1-2.6,0.2c-0.1,0-0.2,0-0.3,0
			c-0.8,0.1-1.7,0.2-2.5,0.3c-0.1,0-0.2,0.1-0.4,0.1c-0.8,0.1-1.6,0.2-2.4,0.4c-0.1,0-0.2,0.1-0.4,0.1c-0.8,0.2-1.6,0.3-2.4,0.5
			c-0.1,0-0.2,0.1-0.4,0.1c-0.8,0.2-1.6,0.4-2.4,0.7c-0.1,0-0.2,0.1-0.3,0.1c-0.8,0.2-1.6,0.5-2.4,0.8c-0.1,0-0.1,0.1-0.2,0.1
			c-0.8,0.3-1.6,0.6-2.5,0.9l0,0c-1.7,0.7-3.3,1.4-4.9,2.2c-0.1,0-0.1,0.1-0.1,0.1c-0.8,0.4-1.5,0.8-2.2,1.2
			c-0.1,0.1-0.1,0.1-0.2,0.1c-0.7,0.4-1.5,0.8-2.2,1.3c-0.1,0.1-0.1,0.1-0.2,0.1c-0.7,0.4-1.4,0.9-2.1,1.4c-0.1,0.1-0.1,0.1-0.2,0.1
			c-0.7,0.5-1.4,1-2.1,1.5c-0.1,0.1-0.1,0.1-0.2,0.1c-0.7,0.5-1.3,1-2,1.6c-0.1,0-0.1,0.1-0.1,0.1c-0.7,0.5-1.3,1.1-2,1.8
			c-1.7,1.6-3.3,3.2-4.8,5c-0.5,0.6-1.1,1.3-1.6,1.9c-0.1,0.1-0.1,0.1-0.1,0.2c-0.5,0.6-1,1.3-1.5,1.9c-0.1,0.1-0.1,0.2-0.2,0.2
			c-0.5,0.6-0.9,1.3-1.3,1.9c-0.1,0.1-0.1,0.2-0.2,0.2c-0.4,0.7-0.8,1.3-1.3,2c-0.1,0.1-0.1,0.1-0.1,0.2c-0.8,1.5-1.6,2.9-2.4,4.4
			c0,0.1-0.1,0.1-0.1,0.2c-0.4,0.7-0.7,1.5-1,2.2c-0.1,0.1-0.1,0.2-0.1,0.3c-0.3,0.7-0.6,1.5-0.9,2.2c-0.1,0.1-0.1,0.2-0.1,0.4
			c-0.3,0.7-0.5,1.5-0.8,2.2c-0.1,0.1-0.1,0.2-0.1,0.3c-0.2,0.8-0.5,1.5-0.7,2.3c0,0.1,0,0.1-0.1,0.2c-0.2,0.8-0.4,1.6-0.6,2.4
			c0,0.1,0,0.1-0.1,0.1c-0.2,0.8-0.4,1.6-0.5,2.4c0,0.1-0.1,0.2-0.1,0.3c-0.1,0.8-0.2,1.6-0.4,2.4c0,0.1-0.1,0.2-0.1,0.4
			c-0.1,0.8-0.2,1.6-0.3,2.4c0,0.1,0,0.2-0.1,0.4c-0.1,0.8-0.1,1.6-0.2,2.4c0,0.1,0,0.2,0,0.3c-0.1,0.8-0.1,1.8-0.1,2.6v59.8
			c0-10.9,2.9-21.1,8-29.9c10.2-17.7,29.2-29.6,51-29.9h0.7l19.8,0.2c3,0.3,6,0.5,9.1,0.5c10.8,0,21.2-1.9,30.7-5.4
			c33.8-12.5,57.9-45,57.9-83.2C243.5,68.6,203.8,28.9,154.9,28.9z"/>
	</g>
</g>
</svg>
