<?xml version="1.0" encoding="utf-8"?>
<!-- Generator: Adobe Illustrator 26.0.1, SVG Export Plug-In . SVG Version: 6.00 Build 0)  -->
<svg version="1.1" id="Layer_1" xmlns="http://www.w3.org/2000/svg" xmlns:xlink="http://www.w3.org/1999/xlink" x="0px" y="0px"
	 viewBox="0 0 120 54" style="enable-background:new 0 0 120 54;" xml:space="preserve">
<style type="text/css">
	.st0{fill:#3F51B5;}
	.st1{enable-background:new    ;}
	.st2{fill:#FFFFFF;}
	.st3{fill:#AEC3FF;}
</style>
<path class="st0" d="M105.7,54H11.5L0.4,27l0,0L7.7,0h99.7L120,27l0,0C120,27,105.7,54.6,105.7,54z"/>
<g class="st1">
	<path class="st2" d="M28.3,23.1h-5.9l-0.8,4.4h6.6l-0.6,3.3H17.6l3.1-18.2h9.8l-0.6,3.3h-6.2L23,19.8h5.9L28.3,23.1z"/>
	<path class="st2" d="M36.9,12.6L35,23.1c-0.1,0.6-0.2,1.4-0.2,2.2c0,1.5,0.8,2.6,2.4,2.6c1.8,0,3.1-1.4,3.7-4.7l1.8-10.5h3.5
		l-1.8,10.4c-1,5.5-3.2,8.2-7.6,8.2c-3.4,0-5.5-1.9-5.5-5.8c0-0.8,0.1-1.7,0.2-2.5l1.7-10.2H36.9z"/>
	<path class="st2" d="M49.4,12.9c1.1-0.3,2.8-0.5,4.4-0.5c1.6,0,3.2,0.3,4.3,1.1c1.1,0.7,1.8,1.9,1.8,3.6c0,2.7-1.6,4.4-3.8,5.1v0.1
		c1,0.5,1.4,1.7,1.6,3.3c0.2,2,0.3,4.4,0.6,5.2h-3.6c-0.1-0.5-0.3-2.1-0.5-4.3c-0.1-2.2-0.8-2.9-2.2-2.9h-1.1l-1.2,7.2h-3.5
		L49.4,12.9z M51.6,20.7H53c1.9,0,3.3-1.3,3.3-3.1c0-1.5-1.1-2.1-2.5-2.1c-0.7,0-1.1,0.1-1.4,0.1L51.6,20.7z"/>
	<path class="st2" d="M71.4,23.1h-5.9l-0.8,4.4h6.6l-0.6,3.3H60.6l3.1-18.2h9.8L73,15.9h-6.2L66,19.8h5.9L71.4,23.1z"/>
	<path class="st2" d="M76.4,12.6h3.5l-1.4,8.1h0.1c0.5-0.8,1-1.4,1.5-2.1l4.6-6.1h4.4l-6.7,7.9l3.8,10.4h-3.8l-2.8-7.9l-1.8,1.8
		l-1.1,6.1h-3.5L76.4,12.6z"/>
	<path class="st2" d="M92,26.1l-2,4.7h-3.8l8-18.2h4.5l1.9,18.2h-3.7l-0.3-4.7H92z M96.6,23.1l-0.3-3.9c-0.1-1-0.2-2.5-0.2-3.6h0
		c-0.4,1.1-0.9,2.5-1.3,3.6L93,23.1H96.6z"/>
</g>
<g class="st1">
	<path class="st3" d="M38.8,42.2c0.4,0.3,1.1,0.5,1.8,0.5c0.9,0,1.8-0.6,1.8-1.6c0-0.6-0.4-1.1-1.2-1.6c-1.1-0.6-1.6-1.2-1.6-2.1
		c0-1.5,1.3-2.4,2.8-2.4c0.8,0,1.4,0.2,1.7,0.4l-0.4,0.8c-0.3-0.1-0.8-0.4-1.4-0.4c-1,0-1.6,0.7-1.6,1.4c0,0.7,0.4,1.1,1.3,1.5
		c1,0.5,1.6,1.2,1.6,2.2c0,1.4-1.1,2.6-3,2.6c-0.8,0-1.6-0.3-2-0.6L38.8,42.2z"/>
</g>
<g class="st1">
	<path class="st3" d="M50.1,43.2c-0.5,0.2-1.2,0.4-2.2,0.4c-2.1,0-3.4-1.3-3.4-3.4c0-1.6,0.6-3.1,1.8-4c0.8-0.7,1.9-1.1,3.1-1.1
		c0.9,0,1.6,0.2,1.8,0.4L51,36.2c-0.3-0.2-0.9-0.3-1.6-0.3c-0.9,0-1.7,0.3-2.4,0.9c-0.8,0.7-1.3,1.9-1.3,3.1c0,1.5,0.7,2.7,2.5,2.7
		c0.6,0,1.3-0.1,1.8-0.4L50.1,43.2z"/>
	<path class="st3" d="M53.8,35.1l-0.7,3.5H57l0.7-3.5h1l-1.6,8.3h-1l0.7-3.9H53l-0.7,3.9h-1l1.6-8.3H53.8z"/>
	<path class="st3" d="M66.7,38.4c0,1.4-0.5,3-1.5,4c-0.7,0.7-1.7,1.2-2.8,1.2c-2.1,0-3.1-1.6-3.1-3.4c0-1.5,0.6-3.1,1.6-4.1
		c0.7-0.7,1.7-1.1,2.8-1.1C65.8,35,66.7,36.6,66.7,38.4z M61.5,36.7c-0.8,0.8-1.3,2.3-1.3,3.4c0,1.4,0.6,2.6,2.2,2.6
		c0.7,0,1.4-0.3,1.9-0.8c0.8-0.8,1.2-2.3,1.2-3.4c0-1.2-0.4-2.6-2.2-2.6C62.7,35.9,62,36.2,61.5,36.7z"/>
	<path class="st3" d="M74.9,38.4c0,1.4-0.5,3-1.5,4c-0.7,0.7-1.7,1.2-2.8,1.2c-2.1,0-3.1-1.6-3.1-3.4c0-1.5,0.6-3.1,1.6-4.1
		c0.7-0.7,1.7-1.1,2.8-1.1C74,35,74.9,36.6,74.9,38.4z M69.7,36.7c-0.8,0.8-1.3,2.3-1.3,3.4c0,1.4,0.6,2.6,2.2,2.6
		c0.7,0,1.4-0.3,1.9-0.8c0.8-0.8,1.2-2.3,1.2-3.4c0-1.2-0.4-2.6-2.2-2.6C70.9,35.9,70.2,36.2,69.7,36.7z"/>
	<path class="st3" d="M77,35.1h1l-1.4,7.4h3.3l-0.2,0.9h-4.4L77,35.1z"/>
</g>
</svg>
