<svg id="그룹_614" data-name="그룹 614" xmlns="http://www.w3.org/2000/svg" xmlns:xlink="http://www.w3.org/1999/xlink" width="83" height="78.2" viewBox="0 0 83 78.2">
  <defs>
    <clipPath id="clip-path">
      <rect id="사각형_1617" data-name="사각형 1617" width="83" height="78.2" fill="none"/>
    </clipPath>
  </defs>
  <g id="그룹_613" data-name="그룹 613" clip-path="url(#clip-path)">
    <path id="패스_1351" data-name="패스 1351" d="M0,0H7V55L0,59.744Z" transform="translate(75 16)" fill="#d9c8f6"/>
    <path id="패스_1352" data-name="패스 1352" d="M0,0,6.934,5.493l8.1,7.6-7.1.5v17.56H0Z" transform="translate(55.829 29.9)" fill="#d9c8f6"/>
    <path id="사각형_1615" data-name="사각형 1615" d="M10.237,0H69.764A10.236,10.236,0,0,1,80,10.236V64.964A10.236,10.236,0,0,1,69.764,75.2H10.237A10.237,10.237,0,0,1,0,64.963V10.237A10.237,10.237,0,0,1,10.237,0Z" transform="translate(1.5 1.5)" fill="none" stroke="#1a1818" stroke-miterlimit="10" stroke-width="3"/>
    <line id="선_78" data-name="선 78" x2="80" transform="translate(1.5 16.3)" fill="none" stroke="#1a1818" stroke-miterlimit="10" stroke-width="3"/>
    <path id="패스_1149" data-name="패스 1149" d="M13.5,9.9a2.2,2.2,0,1,1-2.2-2.2,2.2,2.2,0,0,1,2.2,2.2" fill="#1a1818"/>
    <path id="패스_1150" data-name="패스 1150" d="M21.983,9.9a2.2,2.2,0,1,1-2.2-2.2,2.2,2.2,0,0,1,2.2,2.2" fill="#1a1818"/>
    <path id="패스_1151" data-name="패스 1151" d="M30.466,9.9a2.2,2.2,0,1,1-2.2-2.2,2.2,2.2,0,0,1,2.2,2.2" fill="#1a1818"/>
    <rect id="사각형_1616" data-name="사각형 1616" width="18.8" height="5.4" transform="translate(10.3 34.4)" fill="#1a1818"/>
    <line id="선_79" data-name="선 79" x2="18.8" transform="translate(10.3 45.033)" fill="none" stroke="#1a1818" stroke-linecap="round" stroke-miterlimit="10" stroke-width="3"/>
    <line id="선_80" data-name="선 80" x2="23.4" transform="translate(10.3 51.433)" fill="none" stroke="#1a1818" stroke-linecap="round" stroke-miterlimit="10" stroke-width="3"/>
    <line id="선_81" data-name="선 81" x2="26.933" transform="translate(10.3 57.967)" fill="none" stroke="#1a1818" stroke-linecap="round" stroke-miterlimit="10" stroke-width="3"/>
    <path id="패스_1152" data-name="패스 1152" d="M70.157,43.078,55.829,28.749,41.5,43.078h6.324v18.24H63.832V43.078Z" fill="none" stroke="#1a1818" stroke-miterlimit="10" stroke-width="3"/>
  </g>
</svg>
