<?xml version="1.0" encoding="utf-8"?>
<!-- Generator: Adobe Illustrator 26.0.1, SVG Export Plug-In . SVG Version: 6.00 Build 0)  -->
<svg version="1.1" id="Layer_1" xmlns="http://www.w3.org/2000/svg" xmlns:xlink="http://www.w3.org/1999/xlink" x="0px" y="0px"
	 viewBox="0 0 661.7 672.6" style="enable-background:new 0 0 661.7 672.6;" xml:space="preserve">
<style type="text/css">
	.st0{fill:#E5F2FF;}
	.st1{fill:#FFFFFF;}
	.st2{fill:#C3E1F6;}
	.st3{fill:#2285C9;}
	.st4{fill:none;}
	.st5{fill:none;stroke:#FFFFFF;stroke-width:2;}
	.st6{fill:none;stroke:#993CAA;stroke-width:14;stroke-linecap:round;}
	.st7{fill:#BCD5EE;}
	.st8{fill:#1F3598;}
	.st9{fill:#F1A29A;}
	.st10{fill:#4263C0;}
	.st11{fill:#2E3393;}
	.st12{fill:#F9A19F;}
	.st13{fill:#1163AF;}
	.st14{fill:#EEEBFC;}
	#drawing{
		stroke-dasharray: 500;
		stroke-dashoffset: 500;
		animation: dash 2.5s 1s infinite;
	}
	@keyframes dash {
		to {
			stroke-dashoffset: 0;
		}
	}
</style>
<g id="bg" transform="translate(-1239.401 5634.005) rotate(-115)">
	<path id="패스_780" class="st0" d="M3967,3826.1c-66.6-64.7-133.3-160-39.5-267.7c93.8-107.7,252.7-187.7,363.7-112
		c110.9,75.7,81.8,164,61.9,210.1c-19.9,46.1,5,92.8,24.5,115.2c19.5,22.3,61.9,92.8-154.6,128
		C4092.8,3922.1,4052,3894.8,3967,3826.1z"/>
</g>
<g id="web" transform="translate(-1295.872 5132.184)">
	<g transform="matrix(1, 0, 0, 1, -160.45, -170.75)">
		<path id="사각형_1491-2" class="st1" d="M1625.8-4790.7h321.6c5,0,9,4,9,9v223.6c0,5-4,9-9,9h-321.6c-5,0-9-4-9-9v-223.6
			C1616.8-4786.7,1620.8-4790.7,1625.8-4790.7z"/>
	</g>
	<path id="패스_566" class="st2" d="M1635.5-4905.9h150.4v108.9h-150.4V-4905.9z"/>
	<path id="패스_1185" class="st2" d="M1466.3-4905.9h150.4v108.9h-150.4V-4905.9z"/>
	<path id="패스_1160" class="st2" d="M1466.3-4784.9h319.7v52.3h-319.7V-4784.9z"/>
	<rect id="사각형_1493" x="1466.3" y="-4943.8" class="st3" width="319.7" height="20.4"/>
	<ellipse id="타원_269" class="st1" cx="1486.2" cy="-4932.9" rx="4.1" ry="4.1"/>
	<ellipse id="타원_270" class="st1" cx="1497.1" cy="-4932.9" rx="4.1" ry="4.1"/>
	<ellipse id="타원_271" class="st1" cx="1509.3" cy="-4932.9" rx="4.1" ry="4.1"/>
	<g id="그룹_633" transform="translate(303.582 20.847)">
		<g id="타원_272">
			<ellipse class="st4" cx="1462.4" cy="-4955.3" rx="6.1" ry="6.1"/>
			<ellipse class="st5" cx="1462.4" cy="-4955.3" rx="5.1" ry="5.1"/>
		</g>
		<line id="선_4" class="st5" x1="1468.5" y1="-4948.7" x2="1465.8" y2="-4951.9"/>
	</g>
	<path 
		id="drawing" 
		class="st6" 
		stroke-width='8'
		fill="none"
		d="M1650.2-4852.4c0-1.6,10.9-44,26.9-33.3c18.2,12.2-13.5,67.5,9.6,77
		c23.6,9.7,43.8-16.9,44.6-42.8c1.3-47.8,50.6-22.5,41.8,13.2"/>

</g>
<ellipse id="shadow" class="st7" cx="232.8" cy="573.2" rx="57.5" ry="22"/>
<g id="foot">
	<path id="패스_1173" class="st8" d="M207.7,564.8c0,0,11.3-3.7,12.5-1.5c0.4,3.4,3,7.4-3,11.5s-19.4,11.2-25.1,6.2
		s3.3-9.8,5.9-10.4S207.7,564.8,207.7,564.8z"/>
	<path id="패스_1174" class="st8" d="M249.5,561.5c0,0-3.2,7.8-0.1,10.6c1.9,1.7,10.2,6.3,18.2,7.5c4.8,0.8,6.1,0.8,8.2-1.9
		c2-2.9-2.3-5.5-7-9c-3.9-2.7-8.1-5.2-12.3-7.3L249.5,561.5z"/>
	<path id="패스_1175" class="st9" d="M208.7,566.1l-5.7,3.5c0,0-2.3,4.2,1,4.5s10.8-2.6,12-4.9c0.7-1.2,1-2.5,0.7-3.9L208.7,566.1
		z"/>
	<path id="패스_1176" class="st9" d="M251.7,563c0,0-1.5,3.5,0.5,5.6c2,2.1,10.4,5.7,12.6,4.1c2.2-1.6,0.7-2.9,0-4.1
		c-0.7-1.2-7.6-5-7.6-5L251.7,563z"/>
	<path id="패스_1171" class="st10" d="M213.3,353.6c0,0-6.2,46-7,63.2s-0.7,139,0,150.9c0.2,4.1,4.4,1.6,8.5,0
		c4.8-8.4,5-11.1,6.4-25.9c2.1-22.7,14.3-110.7,14.3-110.7s10,115.7,12,123.8c1.2,6.7,1.2,10.1,5,11.4c3.7,0.2,3.6,0.5,6.6-2.5
		c6.2-18.7,13.3-109.4,12-132.6s-1.8-68.8-15.7-77.5S213.3,353.6,213.3,353.6z"/>
</g>
<g id="head">
	<path id="패스_1161" class="st11" d="M262.2,247.7c-0.6-1.9-5.9-18.6-24.1-18.1s-17.3,15.2-17.3,15.2s-8.2,21.7-18.6,25.7
		s-30.4,13.5-35.3,23.9s-13.3,36.7,4.4,52.1s54.9,16.3,61.9,0s12.4-58,17.9-64.2S268.7,269.9,262.2,247.7z"/>
	<path id="패스_1162_00000061442891243513143400000011683205745801771426_" class="st12" d="M235.9,271.8
		c-0.1-3.6-0.3-6.7-0.3-6.6c-2.1-2.6-3.7-5.5-4.6-8.7c-2.5-0.5-3.8-2.6-3.3-4.4s4.9-4.7,5.8-1.6s5.7,1.7,7.4,0.3s11.6-4.1,10.6-10.2
		c1.7,3.1,9.1,13.4,2.9,24.1c-1.2,2.1-3.3,2.2-6.3,4.8c0,0-1.7,3.2-1.2,7.2c0.5,4-3.7,5-5.2,5c-1.5-0.1-5.2,0.4-5.6-4.1
		C235.6,273.1,235.9,271.8,235.9,271.8z"/>
	<path id="패스_1172" class="st1" d="M244.3,260.7c-0.6-0.7,6.1,1.5,8.2,0c-2.2,3.5-3.7,3.8-4.7,3.5S244.9,261.4,244.3,260.7z"/>
	<animateTransform
		additive="sum"
		attributeName="transform"
		type="rotate"
		begin="0s"
		dur="3.2s"
		keyTimes="0; 0.5; 1"
		calcMode="paced"
		values="0 210 290; -5 210 290; 0 210 290"
		repeatCount="indefinite"
	/>
</g>
<path id="body" class="st1" d="M263.2,317.4c-0.3,1.8-1.8,38.5-1.8,38.5s-15.9,3.6-27.4,2.4s-21.2-0.9-21.2-2.4s-2.1-37.8-2.1-37.8
	s-1.6-30.4,1.7-34.2c3.3-3.8,21.1-8.7,33-8.3c5.8,0.2,13.4,1.4,15.3,2.9C262.3,280,263.2,317.4,263.2,317.4z"/>
<g id="rhand">
	<path id="패스_1177" class="st13" d="M191,413.9c-3.5-1.5-11.7-9-13.5-10.7c-1.8-1.7-5.8-5-3.5-7.2c2.3-2.2,7.2,1.5,8,2.1
		s11.2,8.9,12.9,11s6.5,6.9,10.8,7.2s9.9-0.2,13-4.2c2,1.3,2.1,1.7,2.1,1.7l-19.5,24.4l-1.7-1.3c0,0-0.5-0.1,0.2-1.3
		s3.4-10.1,0.5-13.5S198.5,417.9,191,413.9z"/>
	<path id="패스_1178" class="st14" d="M201.3,438.1l4,3.2l19.6-24.6l-4-3.2L201.3,438.1z"/>
	<path id="패스_1179" class="st2" d="M205.3,441.3c0,0,12,9.8,12.4,10.6c0.4,0.8,5.6,7.4,4.8,9.4c1.6-1.8,4.8-6,4.8-6
		s0.7-3.9-4.8-10.2c4.8,4.3,6.6,7.3,6.2,8.4c1.5-1.5,9.9-12.4,9.9-12.4s0-3.6-4.2-7.3c4.2,2.6,6.2,4.5,5.6,5.6
		c1.5-1.8,2.5-3.1,2.5-3.1s-0.1-3.9-5.4-8.7s-12.3-10.7-12.3-10.7L205.3,441.3z"/>
	<path id="패스_1165" class="st9" d="M197,311.6c0,0-7.1,40.2-7.5,43.8s-6.6,39.7-6.7,41.2s-5.1,13.6-0.5,16.7
		c4.6,3.1,5.9,2.1,6.1,0.2c0.2-1.9-2-9.6-0.3-9.2c1.7,0.3,3.3,1.8,3.2,1.4c-0.1-0.4-4.3-7.4-3.7-8.8s16.8-38.1,18.8-47
		s8.4-35.6,7.3-36.2C212.6,312.9,197,311.6,197,311.6z"/>
	<path id="패스_1163_00000070090035426215986230000003122036821308516503_" class="st1" d="M224.6,293.8
		c0.3,7.7-9.2,23.2-9.2,23.2l-19.6-4.4c0,0,8.1-28.2,17.6-31C222.9,278.7,224.3,286.1,224.6,293.8z"/>
	<animateTransform
		additive="sum"
		attributeName="transform"
		type="rotate"
		begin="0s"
		dur="3.2s"
		keyTimes="0; 0.5; 1"
		calcMode="paced"
		values="0 210 280; 10 210 280; 0 210 280"
		repeatCount="indefinite"
	/>
</g>
<g id="lhand">
	<path id="패스_1164" class="st9" d="M264,313.5c0,0,5,28.5,11.3,33s5,4.1,9.1-1.9s23.1-40.5,23.8-42.5s5.4-3.4,7.2-6.8s1-8-1.3-8
		c0.9-3.1,4.4-6.8,3.1-8.5s-8.3,5.9-9,7.2s-3.9,2.5-7.1,9.3s-19.4,33.8-19.9,32.3s-1.6-17.8-1.9-17.8S264,313.5,264,313.5z"/>
	<path id="패스_1163_00000106852308946694777950000016812270349071084982_" class="st1" d="M272.5,288.6
		c3.6,6.8,6.2,14.2,7.6,21.8c0,0-14.2,4.5-16.6,6.6c-0.2,0.2-0.5,0.1-0.6-0.1c-1.3-3-7.4-16.7-8.6-22c-1.4-6.2,3-16.9,6.6-16.2
		C267,279.8,272.5,288.6,272.5,288.6z"/>
	<animateTransform
		additive="sum"
		attributeName="transform"
		type="rotate"
		begin="0s"
		dur="3.2s"
		keyTimes="0; 0.5; 1"
		calcMode="paced"
		values="0 245 290; -15 245 290; 0 245 290"
		repeatCount="indefinite"
	/>
</g>
<path id="패스_1162_00000121973099414254991960000015447298186580870073_" class="st12" d="M251.4,276.4
	c4.7,1.8-12.9,15.4-16.5,14.4s-9.5-6.8-8.9-12.7c0,0,9.2-2.8,13.1-2.8C243.3,275.4,247.4,274.8,251.4,276.4z"/>
</svg>
