<?xml version="1.0" encoding="utf-8"?>
<!-- Generator: Adobe Illustrator 26.0.1, SVG Export Plug-In . SVG Version: 6.00 Build 0)  -->
<svg version="1.1" id="Layer_1" xmlns="http://www.w3.org/2000/svg" xmlns:xlink="http://www.w3.org/1999/xlink" x="0px" y="0px"
	 viewBox="0 0 566.1 466.3" style="enable-background:new 0 0 566.1 466.3;" xml:space="preserve">
<style type="text/css">
	.st0{fill:#E5F2FF;}
	.st1{fill:#2183C8;}
	.st2{fill:#FFFFFF;}
	.st3{fill:#1163AF;}
	.st4{fill:#CFD6E9;}
	.st5{fill:#DEE2E5;}
	.st6{fill:#F39C11;}
	.st7{fill:#323231;}
	.st8{fill:#3499DB;}
	.st9{fill:#F7A19C;}
	.st10{fill:#4462CC;}
	.st11{fill:#2F3194;}
	.st12{fill:#4366CF;}
	.st13{fill:#BACBFF;}
	.st14{fill:#181146;}
</style>
<g>
	<path id="bg" class="st0" d="M15.1,171.7C57,88.1,146.8-17,288.6,2.3c193.9,29.6,257.1,80.6,275.5,230.6s-89.8,248-190.8,231.6
		s-195.9-106.1-248-106.1S-41,271.7,15.1,171.7z"/>
</g>
<g id="pc" transform="translate(83.954 9.601)">
	<path id="사각형_1644" class="st1" d="M25,84h368.5c8.3,0,15,6.7,15,15v243.4l0,0H10l0,0V99C10,90.7,16.7,84,25,84z"/>
	<rect id="사각형_1643" x="19.8" y="94.9" class="st2" width="379.9" height="239.8"/>
	<path id="사각형_1645" class="st1" d="M-6.4,342.3h440.1l0,0v10.8c0,5.5-4.5,10-10,10H3.6c-5.5,0-10-4.5-10-10V342.3L-6.4,342.3
		z"/>
	<path id="gage" class="st3" d="M108.4,285.4h208.2v12.1H108.4V285.4z"/>
	<rect id="gage001" x="181.9" y="285.4" class="st4" width="134.7" height="12.1">
		<animateTransform
			additive="sum"
			attributeName="transform"
			type="translate"
			begin="0s"
			dur="2s"
			keyTimes="0;0.2; 0.5;0.8; 1"
			values="0 0;5 0;55 0; 45 0;0 0"
			repeatCount="indefinite"
			calcMode="paced"
		/>
	</rect>
	<g id="roket" transform="translate(-836.162 5244.66)">
		<path id="패스_1244" class="st5" d="M1009.4-5021.4c0,0,27.4-71.7,61-78.9c0-0.3,33.6,31.8,33.6,31.8s-0.9,27.7-77,64.1
			C1026.7-5003.5,1009.4-5021.4,1009.4-5021.4z"/>
		<path id="패스_1245" class="st1" d="M1076.1-5103.5l30.5,28.6c0,0,5-17.9,2.8-32.4C1093.7-5110.1,1076.1-5103.5,1076.1-5103.5z"
			/>
		<path id="패스_1246" class="st1" d="M1040.3-5004.4c6.4-3.9,13.2-7.2,20.1-10.1c0,0-1.3,17-11.9,28.6
			C1048.1-4985.9,1049.1-4995.2,1040.3-5004.4z"/>
		<path id="패스_1247" class="st1" d="M1009.8-5034.7c3.3-6.8,6.1-13.7,8.3-20.9c0,0-16.8,2.7-27.5,14.4
			C990.6-5040.9,999.9-5042.7,1009.8-5034.7z"/>
		<path id="fire" class="st6" d="M1009.4-5014.5c-2.2,5.3-3.8,6,0,10.4s10.1,0,10.1,0s-0.9,9.4-10.1,12.9c-9.1,3.5-17.9,6-17.9,6
			l5-17C996.6-5002.2,999.4-5015.4,1009.4-5014.5z">
			<animate  
				accumulate="none" 
				additive="replace" 
				attributeName="opacity" 
				calcMode="linear" 
				dur="2s" 
				fill="remove" 
				keyTimes="0; 0.1; 0.2; 0.3; 0.4; 0.5;0.6; 1"
				repeatCount="indefinite" 
				restart="always" 
				values="1;0;1;0;1;0;1;1"
			>
			</animate>
		</path>
		<ellipse id="타원_440" class="st7" cx="1056.8" cy="-5052.3" rx="19.2" ry="19.2"/>
		<ellipse id="타원_441" class="st8" cx="1056.8" cy="-5052.3" rx="11.9" ry="11.9"/>
		<animateTransform
			additive="sum"
			attributeName="transform"
			type="rotate"
			begin="0s"
			dur="2s"
			keyTimes="0; 0.1; 0.2; 0.3; 0.4; 0.5; 1"
			calcMode="paced"
			values="0 1050 -5040; -3 1050 -5040;3 1050 -5040; -3 1050 -5040; 3 1050 -5040; 0 1050 -5040; 0 1050 -5040;"
			repeatCount="indefinite"
		/>
	</g>
	<rect id="whitemask" x="316.6" y="256.8" class="st2" width="83.1" height="65.6"/>
</g>
<g id="man" transform="translate(236.508 -1440.965)">
	<g id="bottom">
		<path id="패스_1239" class="st9" d="M-79.2,1869v4.8h8.1v-4.8H-79.2z"/>
		<path id="패스_1235" class="st9" d="M-165,1868.4v5.1h7.4c0.3,0,0.6-5.1,0.6-5.1H-165z"/>
		<path id="패스_1233" class="st10" d="M-144.8,1634.5c0,0-6.2,33.4-7.4,48s-17.6,185-14.6,187.1s12,0,12,0s36.8-152,37.3-155
			s7.3-35.1,8.6-29.1s27.4,178.1,27.8,180.7s0.9,3.7,2.8,4.1c2.1,0.2,4.3,0.2,6.4,0c0,0,1.9-0.9,1.9-4.5s7.8-136.6,7.8-144.5
			s3.5-53.2-1.3-67.7s-6.6-16-6.6-16L-144.8,1634.5z"/>
		<path class="st11" d="M-108.7,1685.3l-2-0.4c0.1-0.4,1.8-8.7,3.1-11.8c1.4-3.3,9.9-7.6,10.9-8.1l0.9,1.8c-3.4,1.7-9.1,5.1-9.9,7.1
			C-106.9,1676.7-108.7,1685.2-108.7,1685.3z"/>
		<path id="패스_1236" class="st12" d="M-168.9,1882.4c0,0,0-9,3.6-9.6c2.7-0.3,5.5-0.3,8.2,0c0,0,4.4,4.7,4.3,8.1s-1,1.3-1.5,1.5
			S-168.9,1882.4-168.9,1882.4z"/>
		<path id="패스_1237" class="st13" d="M-165,1877.7c0,0,6.3,0.4,6.7,0s0-5,0-5h-5.9L-165,1877.7z"/>
		<path id="패스_1238" class="st13" d="M-169.6,1885.7v-3.5h17.1v3.5H-169.6z"/>
		<path id="패스_1240" class="st12" d="M-84.3,1883.1c0,0-0.2-10.5,4.2-10.6s14,0.1,17,3.9s2.4,6.7,2.4,6.7H-84.3z"/>
		<path id="패스_1241" class="st13" d="M-84.3,1885.4h24.7v-3h-25.3v3H-84.3z"/>
		<path id="패스_1242" class="st13" d="M-77.2,1872.5c0,0,3.1,5.7,4,5.8c2.1-0.2,4.2-0.5,6.3-0.9c-1.1-1.4-2.2-2.8-3.5-4.2
			C-71.2,1872.4-77.2,1872.5-77.2,1872.5z"/>
	</g>
	<g id="top">
		<path id="body" class="st4" d="M-149.8,1623.8c0,0-3.4,3.1-5.7,1.8s-14.2-13.8-13.4-19.3s17.5-59.1,21.2-62.2s6.4-4.9,9.9-5.5
			s31-13.8,56.5-1.8s24.4,19.7,26.3,30.8s-13.1,48.7-12.9,50.1s4.3,19.3,0,22.2s-32.2,3.9-38.6,2.9s-40-2.7-41.3-7.8
			C-148.7,1631.4-149.3,1627.6-149.8,1623.8z"/>
		<g id="mpc">
			<path id="패스_1228" class="st10" d="M-146.3,1626.4l-3.3-59.1c0,0-1.8-5.2,4.8-5.1s96.6,0,96.6,0s3.7-0.3,3.4,5.1
				s-3.4,59.1-3.4,59.1H-146.3z"/>
			<path id="패스_1229" class="st11" d="M-146.7,1630.9v-4.6h98.8v4.6H-146.7z"/>
			<circle id="타원_439" class="st2" cx="-97.2" cy="1596.6" r="7.3"/>
			<path id="패스_1230" class="st9" d="M-148.1,1626.3c-4.6-1.5-6.6-4.2-6.3-7.6s5.4-7.2,6.3-7.5s3-1,2.7,2.2s3.7,3.3,5.4,3.4
				s6.1,3.4,4.3,5.7S-143.4,1627.8-148.1,1626.3z"/>
			<path id="패스_1231" class="st9" d="M-44.7,1612.2c-0.8-4.3-2.9-6-4.7-4.9s-0.6,4.9,0,6s-3.7,0.6-6.7,0s-2.8,5.8,0.8,9.4
				s7.5,5.5,10.7,3.7S-40.5,1619.1-44.7,1612.2z"/>
			<animateTransform
				additive="sum"
				attributeName="transform"
				type="translate"
				begin="0s"
				dur="3.5s"
				keyTimes="0; 0.5;1"
				values="0 0;0 -5; 0 0"
				repeatCount="indefinite"
				calcMode="paced"
			/>
		</g>
		<g id="head">
			<path id="패스_1227" class="st9" d="M-118.7,1505.1c0,0,0.2,6.8,1.6,7.5s3.3,4.4,3.3,4.4l-0.6,15.3c0,0,4.6,4,8.3,3.7
				s7.2-2.5,7.5-3.7s0-13.1,0-13.1l4.4-5.5c0,0,0.9-8.9-2.5-14.5s-17.6-3.2-17.6-3.2L-118.7,1505.1z"/>
			<path id="패스_1225" class="st14" d="M-117.6,1497.3c-0.1-4.7,3.1-9.9,8.4-9s11.4,2.3,12.5,0.8s4.3-4.4,4.3-5.3
				c0.3,3,2,15.2-5.1,16.3s-13.7,0.3-15.7-0.9s-1.6,8.5-1.8,8.9s-3.9,0.7-4.5-1.5S-122.6,1496.7-117.6,1497.3z"/>
			<path id="패스_1226" class="st14" d="M-116.2,1514.2c0,0-1.5-3.1,0-2.9s5.4,4.5,6.6,4.3s9-4.7,9.3-5.4s2.4-2,5.2,0
				s5.4,5,4.2,6.8s-1.6,6.7-8.4,6.7s-11.8-2.8-14.1-5.4C-114.6,1517.1-115.5,1515.7-116.2,1514.2z"/>
			<path id="패스_1243" class="st2" d="M-104.7,1514.8h8.1c0,0-0.9,3.8-3.6,3.4S-104.7,1514.8-104.7,1514.8z"/>
			<animateTransform
				additive="sum"
				attributeName="transform"
				type="rotate"
				begin="0s"
				dur="2s"
				keyTimes="0; 0.5; 1"
				calcMode="paced"
				values="0 -100 1520; -7 -100 1520; 0 -100 1520"
				repeatCount="indefinite"
			/>
		</g>
	</g>
</g>
</svg>
