<svg xmlns="http://www.w3.org/2000/svg" xmlns:xlink="http://www.w3.org/1999/xlink" width="661.661" height="672.571" viewBox="0 0 661.661 672.571">
  <defs>
    <clipPath id="clip-path">
      <rect id="사각형_77" data-name="사각형 77" width="251.792" height="160.483" transform="translate(0 0)" fill="#fff" stroke="#707070" stroke-width="1"/>
    </clipPath>
    <filter id="사각형_1491" x="139.448" y="152.75" width="381.577" height="283.646" filterUnits="userSpaceOnUse">
      <feOffset dy="3" input="SourceAlpha"/>
      <feGaussianBlur stdDeviation="7" result="blur"/>
      <feFlood flood-opacity="0.161"/>
      <feComposite operator="in" in2="blur"/>
      <feComposite in="SourceGraphic"/>
    </filter>
  </defs>
  <g id="그룹_637" data-name="그룹 637" transform="translate(1456.32 -4961.434)">
    <g id="그룹_628" data-name="그룹 628" transform="translate(-1239.401 5634.005) rotate(-115)">
      <path id="패스_780" data-name="패스 780" d="M85.886,409.463C19.313,344.745-47.42,249.495,46.428,141.782S299.177-45.914,410.089,29.8,491.847,193.816,471.945,239.9s5.036,92.847,24.528,115.177,61.855,92.782-154.635,127.975C211.729,505.445,170.917,478.155,85.886,409.463Z" transform="translate(0 0)" fill="#e5f2ff"/>
    </g>
    <g id="그룹_630" data-name="그룹 630" transform="translate(-1295.872 5132.184)">
      <g transform="matrix(1, 0, 0, 1, -160.45, -170.75)" filter="url(#사각형_1491)">
        <rect id="사각형_1491-2" data-name="사각형 1491" width="339.577" height="241.646" rx="9" transform="translate(160.45 170.75)" fill="#fff"/>
      </g>
      <path id="패스_566" data-name="패스 566" d="M0,0H150.42V108.933H0Z" transform="translate(179.205 55.548)" fill="#c3e1f6"/>
      <path id="패스_1185" data-name="패스 1185" d="M0,0H150.42V108.933H0Z" transform="translate(9.952 55.548)" fill="#c3e1f6"/>
      <path id="패스_1160" data-name="패스 1160" d="M0,0H319.673V52.344H0Z" transform="translate(9.952 176.565)" fill="#c3e1f6"/>
      <rect id="사각형_1493" data-name="사각형 1493" width="319.673" height="20.375" transform="translate(9.952 17.658)" fill="#2285c9"/>
      <ellipse id="타원_269" data-name="타원 269" cx="4.075" cy="4.075" rx="4.075" ry="4.075" transform="translate(25.808 24.45)" fill="#fff"/>
      <ellipse id="타원_270" data-name="타원 270" cx="4.075" cy="4.075" rx="4.075" ry="4.075" transform="translate(36.674 24.45)" fill="#fff"/>
      <ellipse id="타원_271" data-name="타원 271" cx="4.075" cy="4.075" rx="4.075" ry="4.075" transform="translate(48.899 24.45)" fill="#fff"/>
      <g id="그룹_633" data-name="그룹 633" transform="translate(303.582 20.847)">
        <g id="타원_272" data-name="타원 272" fill="none" stroke="#fff" stroke-width="2">
          <ellipse cx="6.112" cy="6.112" rx="6.112" ry="6.112" stroke="none"/>
          <ellipse cx="6.112" cy="6.112" rx="5.112" ry="5.112" fill="none"/>
        </g>
        <line id="선_4" data-name="선 4" x1="2.659" y1="3.13" transform="translate(9.508 9.564)" fill="none" stroke="#fff" stroke-width="2"/>
      </g>
      <path id="패스_1186" data-name="패스 1186" d="M-260.283,3978.131c0-1.6,6.149-37.509,23.695-29.534s11.7,44.13,18.609,51.041,18.077,20.5,40.939-21.507,43.6-6.431,39.344,7.152" transform="translate(454.138 -3869.098)" fill="none" stroke="#c1ffea" stroke-linecap="round" stroke-width="14"/>
    </g>
    <g id="그룹_635" data-name="그룹 635" transform="translate(-1295.871 5191.038)">
      <ellipse id="타원_432" data-name="타원 432" cx="57.5" cy="22" rx="57.5" ry="22" transform="translate(14.858 321.584)" fill="#bcd5ee"/>
      <path id="패스_1173" data-name="패스 1173" d="M-1082.71,4599.545s11.258-3.679,12.53-1.454c.44,3.374,3.035,7.38-3.007,11.515s-19.359,11.249-25.084,6.161,3.323-9.779,5.868-10.415S-1082.71,4599.545-1082.71,4599.545Z" transform="translate(1129.954 -4264.39)" fill="#1f3598"/>
      <path id="패스_1174" data-name="패스 1174" d="M.452,1.27S-1.325,9.526,2.168,11.749c2.117,1.347,11.163,4.385,19.275,4.243,4.886-.084,6.128-.28,7.721-3.249C30.6,9.516,25.987,7.7,20.665,5.09A112.872,112.872,0,0,0,7.248,0Z" transform="matrix(0.985, 0.174, -0.174, 0.985, 88.827, 330.567)" fill="#1f3598"/>
      <path id="패스_1175" data-name="패스 1175" d="M-426.042,4220.963l-5.653,3.511s-2.291,4.24.963,4.5,10.829-2.6,12.028-4.914a5.468,5.468,0,0,0,.713-3.866Z" transform="translate(474.312 -3884.444)" fill="#f1a29a"/>
      <path id="패스_1176" data-name="패스 1176" d="M.151.428S-.691,4.121,1.6,5.815,12.832,9.653,14.713,7.686,14.926,4.674,14,3.63,5.624,0,5.624,0Z" transform="matrix(0.985, 0.174, -0.174, 0.985, 91.139, 332.986)" fill="#f1a29a"/>
      <path id="패스_1161" data-name="패스 1161" d="M-2194.05,5217.067c-.57-1.9-5.891-18.622-24.132-18.052s-17.292,15.2-17.292,15.2-8.17,21.663-18.622,25.653-30.4,13.491-35.344,23.942-13.3,36.675,4.371,52.066,54.916,16.342,61.947,0,12.352-57.956,17.862-64.227S-2187.589,5239.3-2194.05,5217.067Z" transform="translate(2295.799 -5199.001)" fill="#2e3393"/>
      <path id="패스_1171" data-name="패스 1171" d="M-2249.865,5327.678s-6.211,45.98-7.032,63.2-.694,139.043,0,150.881c.241,4.118,4.443,1.639,8.543,0,4.783-8.447,5.007-11.074,6.364-25.867,2.081-22.688,14.288-110.667,14.288-110.667s9.973,115.728,12.023,123.753c1.2,6.686,1.219,10.083,4.977,11.35,3.681.227,3.589.455,6.64-2.482,6.243-18.742,13.346-109.44,11.959-132.622s-1.845-68.78-15.718-77.547S-2249.865,5327.678-2249.865,5327.678Z" transform="translate(2302.728 -5203.656)" fill="#4263c0"/>
      <g id="그룹_636" data-name="그룹 636" transform="matrix(0.602, -0.799, 0.799, 0.602, 0, 186.944)">
        <path id="패스_1177" data-name="패스 1177" d="M12.543,24.528c-1.018-3.68-.235-14.72,0-17.225S12.856-.37,15.988.021s3.367,6.577,3.367,7.6,0,14.328-.548,16.912-1.331,9.4,1.1,12.919,6.342,7.595,11.353,7.517c.235,2.348,0,2.74,0,2.74H.016V45.59s-.235-.392,1.1-.626S11.134,41.361,12,36.9,14.031,32.906,12.543,24.528Z" transform="translate(4.838 0)" fill="#1163af"/>
        <path id="패스_1178" data-name="패스 1178" d="M0,0V5.089H31.491V0Z" transform="translate(4.838 47.704)" fill="#eeebfc"/>
        <path id="패스_1179" data-name="패스 1179" d="M4.838,0S4.7,15.5,4.306,16.285s-2.349,9-4.306,9.631c2.427.157,7.673,0,7.673,0s3.523-1.879,5.011-10.1c-.391,6.42-1.566,9.708-2.662,10.1,2.114.235,15.816,0,15.816,0s2.819-2.27,3.054-7.829c.548,4.932.391,7.673-.861,7.829,2.349.078,3.993,0,3.993,0S35,23.41,35.468,16.285,36.173,0,36.173,0Z" transform="translate(0 52.793)" fill="#c3e1f6"/>
      </g>
      <path id="패스_1164" data-name="패스 1164" d="M-2190.308,5283.758s4.981,28.5,11.267,33.034,4.97,4.093,9.063-1.9,23.095-40.489,23.826-42.536,5.446-3.42,7.176-6.793,1.038-8.043-1.3-8.043c.865-3.114,4.411-6.833,3.114-8.477s-8.3,5.928-8.992,7.226-3.884,2.539-7.057,9.294-19.412,33.818-19.931,32.348-1.643-17.817-1.9-17.817S-2190.308,5283.758-2190.308,5283.758Z" transform="translate(2293.901 -5199.897)" fill="#f1a29a"/>
      <path id="패스_1165" data-name="패스 1165" d="M-2262.148,5286.036s-5.993,40.343-6.285,44-5.554,39.9-5.554,41.366-4.678,13.74,0,16.664,5.947,1.9,6.093,0-2.293-9.5-.539-9.209,3.351,1.705,3.2,1.267-4.52-7.26-3.936-8.721,15.786-38.589,17.541-47.505,7.455-35.811,6.285-36.4S-2262.148,5286.036-2262.148,5286.036Z" transform="translate(2295.444 -5200.567)" fill="#f1a29a"/>
      <path id="패스_1163" data-name="패스 1163" d="M-2263.083,5286.329s8.916-25.434,16.371-30.7,24.118-11.84,36.25-9.793,21.487,2.047,27.333,13.009a78.648,78.648,0,0,1,7.6,21.779s-16.663,5.262-16.956,7.016-1.8,38.541-1.8,38.541-15.883,3.557-27.43,2.388-21.243-.926-21.243-2.388-2.145-37.809-2.145-37.809Z" transform="translate(2295.21 -5199.837)" fill="#fff"/>
      <path id="패스_1162" data-name="패스 1162" d="M-2203.683,5210.239c1.725,3.111,9.13,13.426,2.894,24.073-1.247,2.133-3.274,2.195-6.314,4.81.4,4.106-1.33,5.131,3.42,6.841s-12.922,15.392-16.532,14.442-9.5-6.841-8.931-12.732c6.081-1.33,10.167-2.659,10.033-6.229s-.306-6.678-.342-6.6a25.994,25.994,0,0,1-4.628-8.7c-2.456-.511-3.787-2.609-3.326-4.4s4.913-4.657,5.783-1.587,5.681,1.74,7.37.256S-2202.629,5216.294-2203.683,5210.239Z" transform="translate(2294.601 -5199.204)" fill="#f9a19f"/>
      <path id="패스_1172" data-name="패스 1172" d="M-2211.425,5230.7c-.562-.654,6.072,1.471,8.208,0-2.249,3.514-3.71,3.842-4.722,3.514S-2210.862,5231.351-2211.425,5230.7Z" transform="translate(2295.282 -5199.57)" fill="#fff"/>
    </g>
  </g>
</svg>
