<?xml version="1.0" encoding="utf-8"?>
<!-- Generator: Adobe Illustrator 26.0.1, SVG Export Plug-In . SVG Version: 6.00 Build 0)  -->
<svg version="1.1" id="Layer_1" xmlns="http://www.w3.org/2000/svg" xmlns:xlink="http://www.w3.org/1999/xlink" x="0px" y="0px"
	 viewBox="0 0 510.2 488.4" style="enable-background:new 0 0 510.2 488.4;" xml:space="preserve">
<style type="text/css">
	.st0{fill:#E5F2FF;}
	.st1{fill:#FFFFFF;}
	.st2{fill:#2183C8;}
	.st3{fill:none;stroke:#C3E1F6;stroke-width:4;stroke-miterlimit:10;}
	.st4{fill:#C3E1F6;}
	.st5{fill:#F1A29A;}
	.st6{fill:#CFD6E9;}
	.st7{fill:#BDD3FC;}
	.st8{fill:#1F3598;}
	.st9{fill:#4263C0;}
	.st10{fill:none;}
	.st11{fill:#1A5FAB;}
</style>
<g>
	<path id="패스_780" class="st0" d="M85.4,407.2C19.2,342.8-47.1,248.1,46.2,141S297.4-45.7,407.6,29.6s81.3,163.1,61.5,208.9
		s5,92.3,24.4,114.5c19.4,22.2,61.5,92.3-153.7,127.3C210.5,502.6,169.9,475.5,85.4,407.2z"/>
	<g id="그룹_639" transform="translate(-14 268)">
		<g transform="matrix(1, 0, 0, 1, -573.06, 623.14)">
			<path id="사각형_1641-2" class="st1" d="M656.4-838.7h345c5.6,0,10.2,4.6,10.2,10.2v242.3c0,5.6-4.6,10.2-10.2,10.2h-345
				c-5.6,0-10.2-4.6-10.2-10.2v-242.3C646.2-834.1,650.7-838.7,656.4-838.7z"/>
		</g>
		<path id="패스_1214" class="st2" d="M87.5-215.5h336.6c7.9,0,14.4,6.4,14.4,14.4v16.9H73.1v-16.9
			C73.1-209.1,79.5-215.5,87.5-215.5L87.5-215.5z"/>
		<ellipse id="타원_436" class="st1" cx="377.6" cy="-199.9" rx="7" ry="7"/>
		<ellipse id="타원_437" class="st1" cx="398.5" cy="-199.9" rx="7" ry="7"/>
		<ellipse id="타원_438" class="st1" cx="419.3" cy="-199.9" rx="7" ry="7"/>
		<g id="top">
			<path id="right" class="st3" d="M418.9-48.3H268.2v-108.9h150.7L418.9-48.3L418.9-48.3z			">
<animateTransform  accumulate="none" additive="sum" attributeName="transform" begin="0s" calcMode="paced" dur="3.5s" fill="remove" keyTimes="0; 0.1;0.2;0.3;0.4; 0.5;0.6;0.7;0.8;0.9;1" repeatCount="indefinite" restart="always" type="translate" values="0 0; 0 0; 0 0; 0 0; -170 0; -170 0; -170 0; -170 0; 0 0; 0 0; 0 0; 0 0">
					</animateTransform>
			</path>
			<path id="left" class="st3" d="M248.2-48.3H97.5v-108.9h150.7V-48.3z			">
<animateTransform  accumulate="none" additive="sum" attributeName="transform" begin="0s" calcMode="paced" dur="3.5s" fill="remove" keyTimes="0; 0.1;0.2;0.3;0.4; 0.5;0.6;0.7;0.8;0.9;1" repeatCount="indefinite" restart="always" type="translate" values="0 0; 0 0; 0 0; 0 0; 170 0; 170 0; 170 0; 170 0; 0 0; 0 0; 0 0; 0 0">
					</animateTransform>
			</path>
			
				<animateTransform  accumulate="none" additive="sum" attributeName="transform" begin="0s" calcMode="paced" dur="3.5s" fill="remove" keyTimes="0; 0.1;0.2;0.3;0.4; 0.5;0.6;0.7;0.8;0.9;1" repeatCount="indefinite" restart="always" type="translate" values="0 0; 0 0; 0 65; 0 65; 0 65; 0 65; 0 65; 0 65; 0 65; 0 65; 0 0; 0 0">
				</animateTransform>
		</g>
		<path id="bottom" class="st4" d="M418.9,16.7H97.5v-51.9h321.4V16.7z		">
<animateTransform  accumulate="none" additive="sum" attributeName="transform" begin="0s" calcMode="paced" dur="3.5s" fill="remove" keyTimes="0; 0.1;0.2;0.3;0.4; 0.5;0.6;0.7;0.8;0.9;1" repeatCount="indefinite" restart="always" type="translate" values="0 0; 0 0; 0 -125; 0 -125; 0 -125; 0 -125; 0 -125; 0 -125; 0 -125; 0 -125; 0 0; 0 0">
				</animateTransform>
		</path>
	</g>
	<g id="그룹_438" transform="translate(-1672.292 -486)">
		<g id="그룹_264" transform="translate(-1463.731 -59.904)">
			<g id="arm">
				<path id="패스_330" class="st5" d="M3441,751.6c0.2-1.1,1.2-1.9,2.3-1.7c0.1,0,0.3,0.1,0.4,0.1c0.9,0.2,2.1,1.5,4.1,4.1
					c3,0.7,6.2,0.4,7.2,1c1.6,1.1,3.1,2.6,2.8,3.4s-3.2,3.8-4.6,3.9s-5.5-1.3-7.6-1.9s-5.2-2.8-5.7-4.4S3441,751.6,3441,751.6z"/>
				<path class="st1" d="M3522.3,763c-1.8,0.4-3.5,0.9-4.7,1.6c-7.5,4.2-29.2,15.8-32,15.3s-27.9-21.2-29.3-21.4
					c-1.4-0.2-4.7,1.7-4.7,2.7s1.6,5.3,2.5,6.2s16.2,23.2,23.1,24.2s13.7,1.1,19.2,0c4.8-1,25.9-2.9,28.3-3c0.5-6,2.4-11.6,2.2-16.2
					C3526.9,769.5,3525.7,765.7,3522.3,763z"/>
				<path id="교차_9" class="st6" d="M3477.2,791.6c-6.9-0.9-22.1-23.2-23.1-24.2s-2.5-5.3-2.5-6.2c0-0.3,0.4-0.8,1-1.2
					c0.7,1.1,4.8,7.1,5.6,7.9c0.9,0.9,12.8,19.9,17.6,20.3s12.5,1.1,17.6,0s31.8-4.1,31.8-4.1l-0.5,4.4c-1.9,0.1-23.4,2-28.3,3
					c-2.9,0.5-5.8,0.8-8.7,0.8C3484.2,792.3,3480.7,792.1,3477.2,791.6z"/>
				
					<animateTransform  accumulate="none" additive="sum" attributeName="transform" begin="0s" calcMode="linear" dur="3s" fill="remove" keyTimes="0; 0.5; 1" repeatCount="indefinite" restart="always" type="rotate" values="0 3530 766; 15 3530 766; 0 3530 766">
					</animateTransform>
			</g>
			<path id="패스_484" class="st7" d="M3541.4,999.9c29.1,0,52.6,7.7,52.6,17.2c0,9.5-23.6,17.2-52.6,17.2s-52.6-7.7-52.6-17.2
				C3488.8,1007.6,3512.4,999.9,3541.4,999.9z"/>
			<path id="패스_326" class="st8" d="M3518.1,738.2c0.8-5.6,4.5-21.8,17.5-22.7s18.3-2.7,23.5,19.6s9.1,20.8,11.3,21.8
				s26,10.3,26.2,22.7s-3.1,22.4,1.6,24.7s19.8,13.4,18.7,19s-9.5,21.2-21.4,23.5s-38.3,3.5-41-1.9s-16.1-18.5-20-28
				s-11.7-37.1-11.7-42.2s-0.4-17.3,2.1-19.2s0.6-5.6-2.1-6.4S3517.3,743.8,3518.1,738.2z"/>
			<path id="패스_341" class="st8" d="M3518.5,997c-3,3-7.3,8.3-8,8.7s-3.9,3.1-4.2,4.5s-2.8,5.5-0.8,6.2s2.2,2.8,5,2.3
				s4.4-0.3,6.4-1.4s15.1-10,16.5-11.1s2.2-5.1,1.9-5.6s-1.4-5.8-1.9-5.9S3521.5,994,3518.5,997z"/>
			<path id="패스_342" class="st8" d="M3556.1,997.3c0,4.2-0.8,5.8-1.1,6.5s0.3,7.5,1.1,9s3.6,10,5,10.6s3.1,2.7,5.6,1.9
				s5.9-3,5.8-4.7s-1.1-10.9-2.3-14.3s-4.5-8.6-5.8-9S3556.1,993.1,3556.1,997.3z"/>
			<path id="패스_339" class="st5" d="M3516.3,918.5c0,0,1.1,28.5,1.1,29s4.7,45.1,4.8,46s-1.6,4.2-2.3,5.1s-5.9,7-5.3,8
				c0.5,1.1,1.7,1.6,2.8,1.2c1.7-0.3,11.9-5,12.2-5.8s1.9-1.9,1.6-3.4s1.1-9.2,1.1-11.1s3.6-23.5,4.1-25.4s2.6-26.4-1.2-36
				S3516.3,918.5,3516.3,918.5z"/>
			<path id="패스_340" class="st5" d="M3546,924.8c-0.3,2.8-0.3,21.7,1.4,25.7s9.4,38.1,9.4,39.5s-0.3,8.4,0,10.8
				s4.5,12.2,5.5,12.8s5.1,1.2,6.1,0s0.3-1.6,0-5.5s-1.1-10-1.2-12.9s3-27.4,2.8-30.4s-3.6-23.7-4.7-27.4s-0.9-17.2-0.9-17.2
				S3546.3,922,3546,924.8z"/>
			<path id="패스_338" class="st9" d="M3516.3,847.1l-2.3,7.6c0,0,1.2,52.1,0.9,53.8s-0.9,9.2,0,10.4s17.9,9.8,24.8,10
				s29.2-1.1,31.3-6.4s1.9-9.2,1.4-9.7s-3.1-10.3-2.8-13.7s1.7-37.6,1.4-40.5s-2.3-16.4-5.8-16.4s-38,8.4-39.6,8.4
				S3516.3,847.1,3516.3,847.1z"/>
			<path id="교차_7" class="st10" d="M3553.5,914.9c0.9-5.3,2.2-15.6,2.7-21.8c0.4-6.2,3.1-32.5,0-33.9c-1.8-0.8-4-8-5.6-14
				c7.1-1.6,13.3-2.9,14.7-2.9c3.4,0,5.5,13.4,5.8,16.4s-1.1,37.1-1.4,40.5s2.3,13.3,2.8,13.7s0.8,4.4-1.4,9.7
				c-1.6,3.8-13.6,5.5-22.8,6.1C3550.6,923.5,3553.1,917.5,3553.5,914.9z"/>
			<path class="st1" d="M3578.4,800.6c-1.9-4.4-9.7-30.1-11.1-30.3s-15.8-7.8-18.1-7.6c-2,0.1-17.5-1.6-27,0.3
				c-1.4,1.3-3.1,3.1-4.3,5.6c-2.1,4.2-3.2,15.1-3.7,21.1c0.3,0,0.5,0,0.5,0l-2.2,50.2c0,0-0.2,9.5,5.8,11.4s18.1,6.5,25.7,4.8
				s22-11.1,22.3-15.1c0.2-2.5-0.1-5-0.8-7.3c0,0,13.7-2.2,15-7.2S3580.3,805,3578.4,800.6z"/>
			<path id="패스_327" class="st5" d="M3524.9,728.3c2.9-1.4,6.8-4.5,12.4-3.9s5.9,3.1,7.2,5.9s0,10,0,10s6.4-2.1,6.8,1.2
				s0,6.4-1.9,6.6c-1.6,0.1-3.2,0.1-4.9,0v14l1.2,1.7l-12.3,6.9l-4.2-6.5l2.9-1.8l0.3-3.8v-3.9c-0.6,0-3.1,1.6-4.9,1.4s-6-4.3-6-9.5
				S3522,729.6,3524.9,728.3z"/>
			<path id="패스_331" class="st9" d="M3528.9,762.3l-0.4,8.2c0,0-0.5,4,0,4s4.8-2.8,5-3.4c0-1.1-0.3-2.1-0.9-3
				c-0.3-1.3-0.5-2.6-0.4-4c0.1-1,0-2.1-0.2-3.1l-2.4-0.3L3528.9,762.3z"/>
			<path id="패스_334" class="st6" d="M3558.7,806.4l-10,11.1c0.3,1,0.8,1.9,1.4,2.8c0.4,0.2,0.8,0.5,1.2,0.6
				c2.4-0.6,4.9-1,7.3-1.2c1.9,0,2.5-1.1,2.2-1.6S3558.7,806.4,3558.7,806.4z"/>
			<path id="패스_335" class="st6" d="M3554.9,832.6c0,0,1.4,4.1,1.2,5.6c-0.8,3.1-2,6.1-3.6,8.9c-2.2,2.3-4.7,4.4-7.3,6.2
				c-1.2,0.9-2.3,1.9-3.3,3.1c0,0,7.6-0.9,8.9-1.7s7.6-5.1,8.6-5.8s6.9-5.5,6.9-5.5l1.1-1.9c0,0-0.8-8.1-1.7-8.3
				S3554.9,832.6,3554.9,832.6z"/>
			<path id="패스_332" class="st9" d="M3542.9,761.5c-1.6,1.1-5.1,5.8-5.1,5.8l-4.2,3.4c0.3,1.1,0.9,2.1,1.7,2.9l2.5,2.4l7.8-6.9
				c0,0,3.3-2,2.8-3.3S3544.5,760.4,3542.9,761.5z"/>
			<path id="패스_337" class="st8" d="M3485.1,792.5c-1.2,1.6,1.4,9,2.2,10.3s13.1,31.5,13.1,31.5s6.7,6.1,8.3,6.4
				s16.8,1.9,16.8,1.9l7.2,1.2c0,0,7.3,0.6,6.5-1.9s-9.4-23.9-9.5-24.5s-4.8-12.6-5.3-13.3s-4.2-6.7-9.2-7.6
				S3486.4,791,3485.1,792.5z"/>
			<path id="패스_336" class="st5" d="M3534.9,822c1.3,0.9,2.2,2.2,2.7,3.7c0.3,1.7,1,2.6,0.7,3.2s-2,0.1-2,0.1s-9.1,2.3-10.7,2
				s-5.4,0.7-5.9-2s-0.1-2.4,1.1-3.2c0.8-0.5,4.8-1.9,6.5-2.8c0.3-0.1-2.6,0.6-3.7,0.1c-0.6-0.2,1.1-1.5,4.2-1.9
				c3.3,0.2,3.2,0.6,3.8,0.7C3532.7,822.2,3533.8,822.1,3534.9,822z"/>
			<path id="패스_416" class="st1" d="M3533.1,747.4c-0.5-0.4-5.9,0.5-8.4,0.2c-2.5-0.4,2.1,3.6,3.9,3.7
				C3530.5,751.5,3533.5,747.9,3533.1,747.4z"/>
		</g>
		<g id="buble">
			<path class="st1" d="M2127.7,587c-19.9,0-36,12.1-36,27c0,8,4.7,15.2,12,20.2c-1.1,3-3.6,9.3-3.6,9.3s-0.8,3.1,3,1
				c2.7-1.5,7.3-4.4,9.6-5.9c4.6,1.6,9.6,2.5,15,2.5c19.9,0,36-12.1,36-27S2147.6,587,2127.7,587z"/>
			<ellipse id="타원_266" class="st11" cx="2142.5" cy="613.8" rx="5.2" ry="5.2">
			
				<animate  accumulate="none" additive="replace" attributeName="opacity" calcMode="linear" dur="2s" fill="remove" keyTimes="0; 0.25; 0.5; 0.75; 1" repeatCount="indefinite" restart="always" values="1;1;0;1;1">
				</animate>
			</ellipse>
			<ellipse id="타원_267" class="st11" cx="2128" cy="613.8" rx="5.2" ry="5.2">
			
				<animate  accumulate="none" additive="replace" attributeName="opacity" calcMode="linear" dur="2s" fill="remove" keyTimes="0; 0.25; 0.5; 0.75; 1" repeatCount="indefinite" restart="always" values="1;0;1;1;1">
				</animate>
			</ellipse>
			<ellipse id="타원_268" class="st11" cx="2113.5" cy="613.8" rx="5.2" ry="5.2">
			
				<animate  accumulate="none" additive="replace" attributeName="opacity" calcMode="linear" dur="2s" fill="remove" keyTimes="0; 0.25; 0.5; 0.75; 1" repeatCount="indefinite" restart="always" values="0;1;1;1;0">
				</animate>
			</ellipse>
		</g>
	</g>
</g>
</svg>
