<svg xmlns="http://www.w3.org/2000/svg" width="687.106" height="567.395" viewBox="0 0 687.106 567.395">
  <g id="그룹_673" data-name="그룹 673" transform="translate(-1095.671 -275)">
    <path id="패스_1300" data-name="패스 1300" d="M-1537.854,7627.6c50.25-100.5,158.1-226.74,328.466-203.453,232.867,35.544,308.856,96.824,330.917,276.99s-107.854,297.823-229.19,278.215-235.319-127.463-297.825-127.463S-1605.263,7747.713-1537.854,7627.6Z" transform="translate(2658.781 -7146.34)" fill="#e5f2ff"/>
    <g id="settings_black_24dp_2_" data-name="settings_black_24dp (2)" transform="translate(1339.591 286.596) rotate(19)">
      <path id="패스_67" data-name="패스 67" d="M0,0H171.072V171.072H0Z" fill="none"/>
      <path id="패스_68" data-name="패스 68" d="M117.455,75.129a50.426,50.426,0,0,0,.428-6.7,41.176,41.176,0,0,0-.5-6.7l14.47-11.262a3.5,3.5,0,0,0,.855-4.348L119.023,22.453a3.482,3.482,0,0,0-4.206-1.568L97.782,27.728a50.354,50.354,0,0,0-11.547-6.7L83.669,2.922A3.448,3.448,0,0,0,80.247,0H52.876a3.377,3.377,0,0,0-3.35,2.922L46.959,21.028a51.465,51.465,0,0,0-11.547,6.7L18.376,20.885a3.4,3.4,0,0,0-4.206,1.568L.556,46.118a3.242,3.242,0,0,0,.855,4.348l14.47,11.262a39.656,39.656,0,0,0-.143,13.4L1.269,86.391a3.5,3.5,0,0,0-.855,4.348L14.1,114.4a3.482,3.482,0,0,0,4.206,1.568l17.036-6.843a50.354,50.354,0,0,0,11.547,6.7l2.566,18.105a3.5,3.5,0,0,0,3.421,2.922H80.247a3.324,3.324,0,0,0,3.35-2.922l2.566-18.105a48.89,48.89,0,0,0,11.547-6.7l17.036,6.843a3.4,3.4,0,0,0,4.206-1.568l13.686-23.665a3.3,3.3,0,0,0-.855-4.348ZM66.561,94.09A25.661,25.661,0,1,1,92.222,68.429,25.736,25.736,0,0,1,66.561,94.09Z" transform="translate(18.975 17.107)" fill="#c2defa"/>
    </g>
    <g id="settings_black_24dp_2_2" data-name="settings_black_24dp (2)" transform="translate(1175.797 313.547) rotate(19)">
      <path id="패스_67-2" data-name="패스 67" d="M0,0H246.112V246.112H0Z" fill="none"/>
      <path id="패스_68-2" data-name="패스 68" d="M168.976,108.084a72.54,72.54,0,0,0,.615-9.639,59.239,59.239,0,0,0-.718-9.639l20.817-16.2a5.031,5.031,0,0,0,1.231-6.255L171.232,32.3a5.009,5.009,0,0,0-6.05-2.256l-24.509,9.844a72.442,72.442,0,0,0-16.613-9.639L120.369,4.2A4.961,4.961,0,0,0,115.447,0H76.069a4.858,4.858,0,0,0-4.82,4.2L67.558,30.251a74.04,74.04,0,0,0-16.613,9.639L26.436,30.046a4.9,4.9,0,0,0-6.05,2.256L.8,66.348A4.664,4.664,0,0,0,2.03,72.6l20.817,16.2a57.051,57.051,0,0,0-.205,19.279l-20.817,16.2a5.031,5.031,0,0,0-1.231,6.255l19.689,34.045a5.009,5.009,0,0,0,6.05,2.256L50.843,157a72.442,72.442,0,0,0,16.613,9.639l3.692,26.047a5.041,5.041,0,0,0,4.922,4.2h39.378a4.783,4.783,0,0,0,4.82-4.2l3.692-26.047A70.336,70.336,0,0,0,140.571,157l24.509,9.844a4.9,4.9,0,0,0,6.05-2.256l19.689-34.045a4.747,4.747,0,0,0-1.231-6.255ZM95.758,135.361a36.917,36.917,0,1,1,36.917-36.917A37.025,37.025,0,0,1,95.758,135.361Z" transform="translate(27.298 24.611)" fill="#c2defa"/>
    </g>
    <g id="그룹_669" data-name="그룹 669" transform="translate(1467.792 357.679)">
      <path id="패스_1255" data-name="패스 1255" d="M-1371.212,7508.707v5.115h8.527v-5.115Z" transform="translate(1488.244 -7056.546)" fill="#f7a19c"/>
      <path id="패스_1256" data-name="패스 1256" d="M-1441.371,7508.236v5.358h7.8c.365,0,.609-5.358.609-5.358Z" transform="translate(1515.302 -7056.03)" fill="#f7a19c"/>
      <path id="패스_1257" data-name="패스 1257" d="M-1444.577,7522.838s0-9.5,3.776-10.111a36.731,36.731,0,0,1,8.649,0s4.629,4.994,4.507,8.527-1.1,1.34-1.583,1.584S-1444.577,7522.838-1444.577,7522.838Z" transform="translate(1514.367 -7055.853)" fill="#4366cf"/>
      <path id="패스_1258" data-name="패스 1258" d="M-1441.371,7517.841s6.7.4,7.065,0,0-5.268,0-5.268h-6.213Z" transform="translate(1515.302 -7055.821)" fill="#bacbff"/>
      <path id="패스_1259" data-name="패스 1259" d="M-1445.143,7523.96V7520.3h18.029v3.655Z" transform="translate(1514.202 -7053.563)" fill="#bacbff"/>
      <path id="패스_1260" data-name="패스 1260" d="M-1375.455,7523.6s-.244-11.085,4.385-11.207,14.74.121,17.907,4.142,2.558,7.065,2.558,7.065Z" transform="translate(1487.005 -7056.532)" fill="#4366cf"/>
      <path id="패스_1261" data-name="패스 1261" d="M-1375.32,7523.661h26.07V7520.5h-26.677v3.166Z" transform="translate(1486.868 -7054.163)" fill="#bacbff"/>
      <path id="패스_1262" data-name="패스 1262" d="M-1369.609,7512.367s3.289,5.993,4.263,6.114a58.143,58.143,0,0,0,6.7-.975,51.914,51.914,0,0,0-3.655-4.385C-1363.274,7512.27-1369.609,7512.367-1369.609,7512.367Z" transform="translate(1488.712 -7056.535)" fill="#bacbff"/>
      <path id="패스_1161" data-name="패스 1161" d="M-2293.9,5217.581c.586-1.954,6.058-19.151,24.818-18.565s17.784,15.634,17.784,15.634,8.4,22.278,19.151,26.382,31.268,13.875,36.349,24.623,13.68,37.717-4.495,53.545-56.477,16.807-63.707,0-12.7-59.6-18.369-66.052S-2300.546,5240.445-2293.9,5217.581Z" transform="translate(2364.296 -5091.518)" fill="#2e3393"/>
      <path id="패스_1171" data-name="패스 1171" d="M-2197.281,5327.789s11.49,37.236,12.333,54.944-5.587,149.023-6.3,161.2c-.247,4.235-4.437,3.238-8.654,1.553-4.919-8.687-4.081-8.918-5.476-24.131-2.14-23.333-15.039-135.662-15.039-135.662s-9.911,140.867-12.02,149.12c-1.239,6.876-.617,9.371-4.482,10.673-3.786.234-4.328,1.467-7.465-1.553-6.42-19.275-17.364-145.485-15.937-169.326s5.536-37.8,19.8-46.815S-2197.281,5327.789-2197.281,5327.789Z" transform="translate(2317.95 -5092.759)" fill="#4263c0"/>
      <path id="패스_1164" data-name="패스 1164" d="M67.632,50.864S50.7,62.11,44.232,66.769s-5.111,4.209-9.32-1.954S.831,11.254.08,9.149,4.074-4.785,7.337,2.163s30.294,46.7,30.828,45.189,11.723-6.959,11.99-6.959S67.632,50.864,67.632,50.864Z" transform="translate(54.324 94.794) rotate(51)" fill="#f1a29a"/>
      <rect id="사각형_1656" data-name="사각형 1656" width="105.701" height="104.499" rx="11" transform="translate(65.875 1.201) rotate(3)" fill="#fba051"/>
      <rect id="사각형_1657" data-name="사각형 1657" width="105.701" height="104.499" rx="11" transform="translate(35.846 0) rotate(3)" fill="#fec854"/>
      <path id="패스_1254" data-name="패스 1254" d="M472.783,7295.9s35.192-4.342,42.391-15.14,5.656-52.252,0-53.28c.887-4.873,5.748-8.653,2.328-13.515s-3.421-4.141-4.141-1.98-1.08,9.362-3.961,9.362a8.621,8.621,0,0,1-4.5-1.081s-1.8,3.961,1.08,4.682,4.681,3.781,5.221,4.5-3.6,34.387-5.221,42.31c-7.562,2.881-30.787,5.94-32.227,9S472.783,7295.9,472.783,7295.9Z" transform="translate(-349.564 -7115.277)" fill="#f1a29a"/>
      <path id="패스_1163" data-name="패스 1163" d="M-2174.787,5249.855a94.676,94.676,0,0,1-16.237,2.373c-14.22-1.582-23.15-8.483-35.627-6.378s-17.357-.743-27.641,4.006a113.819,113.819,0,0,0-15.031-4.006s-5.869,11.7-3.683,21.269c4.028,5.4,24.521,6.508,24.647,7.259.3,1.8,5.073,54.1,5.073,54.1s16.334,3.658,28.209,2.456,21.847-.953,21.847-2.456,2.205-50.935,2.205-50.935l18.61-5.142Z" transform="translate(2314.528 -5091.058)" fill="#fff"/>
      <path id="패스_1264" data-name="패스 1264" d="M0,65.816H12.426l9.592-48.784,8.2,46.892H45.987l8.438-46.892L64.856,65.816H77.618L65.507,0H48.884L38.977,45,29.07,0H12.95Z" transform="translate(120.578 89.839) rotate(-177)" fill="#fff"/>
      <path id="패스_1162" data-name="패스 1162" d="M-2223.791,5210.238c-1.774,3.2-8.572,16.549-2.158,27.5,1.464,3.181,3.739,2.19,6.126,1.532-.407,4.224.918,5.951-3.968,7.709s13.289,15.829,17,14.852,9.771-7.036,9.185-13.094c-6.253-1.368-10.456-2.735-10.318-6.406s.314-6.868.352-6.791a26.737,26.737,0,0,0,4.76-8.949c2.526-.526,3.894-2.684,3.421-4.526s-5.053-4.79-5.948-1.632-5.843,1.79-7.579.264S-2224.875,5216.465-2223.791,5210.238Z" transform="translate(2305.323 -5091.407)" fill="#f9a19f"/>
      <path id="패스_1172" data-name="패스 1172" d="M-2203.017,5230.7c.578-.673-6.244,1.513-8.441,0,2.313,3.614,3.816,3.951,4.856,3.614S-2203.6,5231.373-2203.017,5230.7Z" transform="translate(2291.81 -5091.205)" fill="#fff"/>
      <path id="패스_1263" data-name="패스 1263" d="M58.032,32.316c4.131-.971,10.029-2.563,11-3.7a18.745,18.745,0,0,1-11,7.423S57.937,33.611,58.032,32.316Z" transform="translate(27.397 115.589)" fill="#f36c73"/>
    </g>
    <g id="그룹_670" data-name="그룹 670" transform="translate(1245.248 448.773)">
      <path id="패스_1278" data-name="패스 1278" d="M-65.808,7262.33s23.047-16.661,29.018-16.661,5.665-1.377,7.042-1.071,29.394-3.981,29.547-3.062l28.134,8.193L22.116,7333.1s-68.587,1.379-69.046-3.98,0-54.042,0-54.042-4.593,5.053-6.124,4.439S-65.808,7262.33-65.808,7262.33Z" transform="translate(107.933 -7189.94)" fill="#fff"/>
      <path id="패스_1266" data-name="패스 1266" d="M-95.4,7506.887v6.948h17.955s.884-.736.767-3.21a4.969,4.969,0,0,0-2.116-3.738Z" transform="translate(102.111 -7136.539)" fill="#2d369c"/>
      <path id="패스_1267" data-name="패스 1267" d="M-100.594,7513.882s-.236-7.89,6.477-7.183c-.118.117,0,7.183,0,7.183Z" transform="translate(101.065 -7136.586)" fill="#bacbff"/>
      <path id="패스_1268" data-name="패스 1268" d="M-87.179,7508.588l.845-4.74h7.3l-1.413,5.183a10.329,10.329,0,0,1-3.946.742A4.089,4.089,0,0,1-87.179,7508.588Z" transform="translate(103.764 -7137.15)" fill="#fb9e97"/>
      <path id="패스_1269" data-name="패스 1269" d="M-102.457,7512.672v1.767h25.085v-1.767Z" transform="translate(102.457 -7135.375)" fill="#4462cc"/>
      <path id="패스_1265" data-name="패스 1265" d="M-88.071,7542.891h10.608s60.508-178.437,63.612-177.92,28.2,177.231,28.719,178.783,8.021,1.293,8.8,0,16.3-206.468,3.364-228.2c-23.8-1.035-54.851,4.916-69.6-1.294-12.7,18.5-26.83,107.97-26.83,107.97Z" transform="translate(103.455 -7175.285)" fill="#4564cd"/>
      <path id="패스_1270" data-name="패스 1270" d="M6.079,7514.053s1.06-6.713,5.771-6.478,5.771,3.3,5.888,6.478Z" transform="translate(122.522 -7136.402)" fill="#bacbff"/>
      <path id="패스_1272" data-name="패스 1272" d="M-1.372,7504.044l-.589,6.124s7.773,0,7.773-.471-.471-5.653-.471-5.653Z" transform="translate(120.905 -7137.11)" fill="#fb9e97"/>
      <path id="패스_1271" data-name="패스 1271" d="M-1.761,7507.57c-1.178,1.3-1.559,5.349-.677,6.175,2.709.235,16.216.229,16.216.229v-6.4s-6.948-.006-7.773,0S.476,7510.744-1.761,7507.57Z" transform="translate(120.712 -7136.402)" fill="#2d369c"/>
      <path id="패스_1273" data-name="패스 1273" d="M-3.275,7512.669s-.206,2.021,0,2.007c.069.084,24.155,0,24.155,0v-2.007Z" transform="translate(120.927 -7135.376)" fill="#4462cc"/>
      <path id="패스_1275" data-name="패스 1275" d="M-32.069,7237.457s10.081-4.949,12.647-9.9,4.038-3.891,5.014-7.515-.791-14.345-3.174-12.146-7.279,6.57-11.321,6.71-15.786,4.528-13.77,10.026c-3.482,5.132.55,21.261,3.849,18.328S-32.069,7237.457-32.069,7237.457Z" transform="translate(119.493 -7207.604)" fill="#2d3493"/>
      <path id="패스_1276" data-name="패스 1276" d="M-35.479,7228.066s-3.666-3.657-5.5-1.825-1.65,6.232,0,7.331,3.849,2.2,4.4,8.064,1.1,13.93,1.1,13.93l-6.965,2.2s6.965,6.6,14.113,4.4,15.579,0,15.946-8.066c-6.6-.916-8.431-1.281-8.431-1.281v-8.8s5.132-2.75,5.132-10.447-3.3-14.34-4.762-14.157C-23,7228.4-35.479,7228.066-35.479,7228.066Z" transform="translate(119.955 -7202.793)" fill="#fb9e97"/>
      <rect id="사각형_1655" data-name="사각형 1655" width="105.701" height="104.499" rx="11" transform="translate(119.983 56.709) rotate(14)" fill="#cf395e"/>
      <rect id="사각형_1654" data-name="사각형 1654" width="105.701" height="104.499" rx="11" transform="translate(90.964 48.622) rotate(14)" fill="#f95f6a"/>
      <path id="패스_1277" data-name="패스 1277" d="M-63.386,7259.331-74.511,7270.2s-7.244,6.21,2.07,20.182,35.187,33.894,36.481,33.894c.2,3.083,4.181,10.586,8.008,9.819s9.645-2.144,7.808-4.746-5.971-3.41-6.124-5.073,2.45,1.859,3.98,1.246.306-3.521-.765-4.134-7.655-.765-9.645-3.521c-1.531-3.521-20.974-32.15-27.4-34.141,7.349-2.908,9.339-8.573,9.339-8.573Z" transform="translate(105.642 -7186.333)" fill="#fb9e97"/>
      <path id="패스_1279" data-name="패스 1279" d="M-186.143,7237.91a12.616,12.616,0,0,1-15.011-5.479c2.383,9.769,15.011,11.437,15.011,11.437Z" transform="translate(285.059 -7196.955)" fill="#f06871"/>
      <path id="패스_1253" data-name="패스 1253" d="M38.742,7270.106l-2.734,12.848-25.7-6.014-3.007,12.848,23.236,5.467-3.007,13.122L4.026,7302.09l-3.28,13.121,24.876,7.106-3.28,12.575L-17.3,7324.231l15.855-63.419Z" transform="translate(117.691 -7186.036)" fill="#fff"/>
      <path id="패스_1280" data-name="패스 1280" d="M-195.935,7233.393s8.7-1.429,9.173-2.619c-.477,2.859.238,5-3.1,5.242S-195.935,7233.393-195.935,7233.393Z" transform="translate(287.345 -7197.681)" fill="#fff"/>
      <path id="패스_1282" data-name="패스 1282" d="M-189.786,7361.8s8.65-24.386,17.518-26.6" transform="translate(278.782 -7171.073)" fill="none" stroke="#2f2f91" stroke-width="2"/>
    </g>
    <rect id="사각형_1664" data-name="사각형 1664" width="105.701" height="104.499" rx="11" transform="matrix(1, -0.017, 0.017, 1, 1419.134, 723.593)" fill="#1b8a80"/>
    <rect id="사각형_1665" data-name="사각형 1665" width="105.701" height="104.499" rx="11" transform="matrix(1, -0.017, 0.017, 1, 1389.011, 723.291)" fill="#45b3ac"/>
    <text id="B" transform="translate(1443.49 807.827)" fill="#fff" font-size="85" font-family="S-CoreDream-6Bold, 'S-Core Dream \36 '" font-weight="700"><tspan x="-28.475" y="0">B</tspan></text>
    <path id="패스_1301" data-name="패스 1301" d="M660.58,7380.774s5.723-22.408,9.418-27.581" transform="translate(904.548 -6726.817)" fill="none" stroke="#2f2f91" stroke-width="2"/>
    <g id="그룹_671" data-name="그룹 671" transform="translate(1131.705 521.299)">
      <path id="패스_1283" data-name="패스 1283" d="M-1485.778,7363.725s-72.87-3.174-63.4-36.729C-1530.187,7298.456-1485.778,7363.725-1485.778,7363.725Z" transform="translate(1550.028 -7267.275)" fill="#c2defa"/>
      <path id="패스_1284" data-name="패스 1284" d="M-1485.778,7363.725s-72.87-3.174-63.4-36.729C-1530.187,7298.456-1485.778,7363.725-1485.778,7363.725Z" transform="translate(1563.241 -7219.229)" fill="#c2defa"/>
      <path id="패스_1285" data-name="패스 1285" d="M-1485.778,7363.725s-72.87-3.174-63.4-36.729C-1530.187,7298.456-1485.778,7363.725-1485.778,7363.725Z" transform="translate(1577.655 -7162.776)" fill="#c2defa"/>
      <path id="패스_1286" data-name="패스 1286" d="M64.251,43.95S-8.619,40.776.849,7.221C19.841-21.319,64.251,43.95,64.251,43.95Z" transform="matrix(0.996, -0.087, 0.087, 0.996, 36.644, 216.336)" fill="#c2defa"/>
      <path id="패스_1287" data-name="패스 1287" d="M64.251,0S-8.619,3.175.849,36.73C19.841,65.271,64.251,0,64.251,0Z" transform="matrix(-0.934, 0.358, -0.358, -0.934, 164.883, 232.419)" fill="#c2defa"/>
      <path id="패스_1288" data-name="패스 1288" d="M64.251,0S-8.619,3.175.849,36.73C19.841,65.271,64.251,0,64.251,0Z" transform="matrix(-0.934, 0.358, -0.358, -0.934, 148.067, 177.924)" fill="#c2defa"/>
      <path id="패스_1289" data-name="패스 1289" d="M64.251,0S-8.619,3.332.849,38.544C19.841,68.495,64.251,0,64.251,0Z" transform="matrix(-0.934, 0.358, -0.358, -0.934, 136.264, 122.296)" fill="#c2defa"/>
      <path id="패스_1290" data-name="패스 1290" d="M64.251,0S-8.619,3.332.849,38.544C19.841,68.495,64.251,0,64.251,0Z" transform="matrix(-0.934, 0.358, -0.358, -0.934, 124.252, 73.425)" fill="#c2defa"/>
      <path id="패스_1291" data-name="패스 1291" d="M64.251,0S-8.619,3.332.849,38.544C19.841,68.495,64.251,0,64.251,0Z" transform="translate(78.763 12.713) rotate(106)" fill="#c2defa"/>
      <path id="패스_1348" data-name="패스 1348" d="M50.448,236.625,0,0" transform="translate(59.491 70.186)" fill="none" stroke="#c2defa" stroke-width="4"/>
    </g>
    <g id="그룹_672" data-name="그룹 672" transform="translate(1598.813 679.916)">
      <path id="패스_1293" data-name="패스 1293" d="M-52.119,7497.775s23.574-14.27,30.088-46.527S-35.369,7401.93-36.3,7401.93s-29.778,14.267-30.088,43.425S-52.119,7497.775-52.119,7497.775Z" transform="translate(66.392 -7401.93)" fill="#c2defa"/>
      <path id="패스_1294" data-name="패스 1294" d="M-50.5,7556.573s24.194-92.434,20.162-137.411" transform="translate(52.68 -7394.348)" fill="none" stroke="#abbde2" stroke-width="2"/>
      <path id="패스_1295" data-name="패스 1295" d="M-48.466,7434.024l9.926,24.194" transform="translate(58.397 -7387.806)" fill="none" stroke="#abbde2" stroke-width="2"/>
      <path id="패스_1296" data-name="패스 1296" d="M-60.313,7436.662l14.081-14.27" transform="translate(83.149 -7392.925)" fill="none" stroke="#abbde2" stroke-width="2"/>
      <path id="패스_1299" data-name="패스 1299" d="M40.19,0s12.1,10.856-4.032,39.083S2.347,60.8,2.347,60.8-6.028,37.842,8.861,20.782,40.19,0,40.19,0Z" transform="matrix(-0.995, -0.105, 0.105, -0.995, 76.217, 130.981)" fill="#c2defa"/>
      <path id="패스_1297" data-name="패스 1297" d="M-73.453,7533.933s48.389-49.938,53.352-68.239" transform="translate(77.379 -7373.873)" fill="none" stroke="#abbde2" stroke-width="2"/>
      <path id="패스_1298" data-name="패스 1298" d="M-59.917,7471.078c0,.931-10.856,15.2-18.921,12.718" transform="translate(124.949 -7371.502)" fill="none" stroke="#abbde2" stroke-width="2"/>
    </g>
  </g>
</svg>
