<svg xmlns="http://www.w3.org/2000/svg" xmlns:xlink="http://www.w3.org/1999/xlink" width="594.206" height="460.685" viewBox="0 0 594.206 460.685">
  <defs>
    <filter id="사각형_1640" x="90.185" y="0" width="294.706" height="222.022" filterUnits="userSpaceOnUse">
      <feOffset dy="3" input="SourceAlpha"/>
      <feGaussianBlur stdDeviation="6" result="blur"/>
      <feFlood flood-opacity="0.161"/>
      <feComposite operator="in" in2="blur"/>
      <feComposite in="SourceGraphic"/>
    </filter>
  </defs>
  <g id="그룹_638" data-name="그룹 638" transform="translate(919.505 -5042.247)">
    <path id="패스_1210" data-name="패스 1210" d="M-2084.118,6919.691s-35.9-64.943,12.181-129.7,21.8-88.476,20.516-101.939-16.669-91.681,84.629-123.1,234.011-81.423,285.3-5.77,79.5,79.5,92.322,98.733,5.129,98.092-28.21,112.838,50.649,24.363,58.984,34.621c21.8-1.923,100.016,110.009,21.157,114.309S-2084.118,6919.691-2084.118,6919.691Z" transform="translate(1177.492 -1419.357)" fill="#e5f2ff"/>
    <path id="패스_1203" data-name="패스 1203" d="M-1792.436,6622.947c2.116-7.886,5.386-28.277,10-29.046s12.7,42.126,12.7,42.126l-63.094,11.542s-23.853-.578-23.468-2.5.192-6.925,3.462-7.887S-1801.477,6619.1-1792.436,6622.947Z" transform="translate(1258.731 -1347.537)" fill="#cfd6e9"/>
    <g id="그룹_641" data-name="그룹 641" transform="translate(-811.32 5057.248)">
      <g transform="matrix(1, 0, 0, 1, -108.18, -15)" filter="url(#사각형_1640)">
        <rect id="사각형_1640-2" data-name="사각형 1640" width="258.706" height="186.022" rx="11" transform="translate(108.18 15)" fill="#fff"/>
      </g>
      <path id="패스_1213" data-name="패스 1213" d="M10.182,0H248.524a10.182,10.182,0,0,1,10.182,10.182V22.175H0V10.182A10.182,10.182,0,0,1,10.182,0Z" fill="#2183c8"/>
      <circle id="타원_433" data-name="타원 433" cx="4.928" cy="4.928" r="4.928" transform="translate(210.661 6.159)" fill="#fff"/>
      <circle id="타원_434" data-name="타원 434" cx="4.928" cy="4.928" r="4.928" transform="translate(225.444 6.159)" fill="#fff"/>
      <circle id="타원_435" data-name="타원 435" cx="4.928" cy="4.928" r="4.928" transform="translate(240.227 6.159)" fill="#fff"/>
      <line id="선_86" data-name="선 86" x1="26.21" y2="110.871" transform="translate(118.86 49.145)" fill="none" stroke="#1163af" stroke-linecap="round" stroke-miterlimit="10" stroke-width="10"/>
      <path id="패스_1211" data-name="패스 1211" d="M56.8,16.777,20.624,49.147l34.99,34.99" transform="translate(31.17 54.124)" fill="none" stroke="#1163af" stroke-linecap="round" stroke-miterlimit="10" stroke-width="10"/>
      <path id="패스_1212" data-name="패스 1212" d="M53.156,16.777l36.171,32.37-34.99,34.99" transform="translate(126.262 54.124)" fill="none" stroke="#1163af" stroke-linecap="round" stroke-miterlimit="10" stroke-width="10"/>
    </g>
    <line id="선_85" data-name="선 85" x2="242.631" transform="translate(-802.122 5114.718)" fill="none"/>
    <rect id="사각형_1629" data-name="사각형 1629" width="193.872" height="5.805" transform="translate(-731.886 5309.171)" fill="#d4d5f7"/>
    <rect id="사각형_1628" data-name="사각형 1628" width="218.251" height="6.965" transform="translate(-744.656 5303.367)" fill="#2183c8"/>
    <path id="패스_1193" data-name="패스 1193" d="M-1786.8,6812v2.974s14.351.482,15.09.335,14.945-13.762,14.945-13.762-1.687-2.982-2.575-2.835-2.025,2.151-2.025,2.151l-17,9.118Z" transform="translate(1269.717 -1314.668)" fill="#bacbff"/>
    <path id="패스_1192" data-name="패스 1192" d="M-1786.082,6812.658s-.3-10.209,9.618-8.434a76.615,76.615,0,0,0,6.363-6.512s4.439-5.03,7.25-2.663,4.143,4.143,2.367,5.918-10.358,10.95-13.465,11.69S-1786.082,6812.658-1786.082,6812.658Z" transform="translate(1270.03 -1315.269)" fill="#2e3393"/>
    <path id="패스_1191" data-name="패스 1191" d="M-1775.12,6793.206l2.663,6.215s2.664,1.332,4.291,0a5.517,5.517,0,0,0,1.776-3.551l-3.551-5.624Z" transform="translate(1271.794 -1315.94)" fill="#ed6971"/>
    <rect id="사각형_1630" data-name="사각형 1630" width="5.805" height="190.39" transform="translate(-706.616 5312.074) rotate(7)" fill="#d3d4f8"/>
    <path id="패스_1199" data-name="패스 1199" d="M-1829.6,6728.869l60.016,81.144s8.656-.771,9.041-5.386-43.473-102.529-43.473-102.529l-26.93,8.272Z" transform="translate(1262.811 -1330.124)" fill="#2f3194"/>
    <rect id="사각형_1632" data-name="사각형 1632" width="65.011" height="5.805" transform="translate(-628.565 5297.562)" fill="#4a61c0"/>
    <rect id="사각형_1638" data-name="사각형 1638" width="15.092" height="3.483" transform="translate(-456.75 5386.953)" fill="#d3d4f8"/>
    <path id="패스_1222" data-name="패스 1222" d="M0,0H4.644V65.3L.215,64.133Z" transform="matrix(0.819, -0.574, 0.574, 0.819, -665.526, 5251.038)" fill="#4a61c0"/>
    <rect id="사각형_1634" data-name="사각형 1634" width="97.517" height="9.287" transform="translate(-551.945 5379.987)" fill="#2183c8"/>
    <path id="패스_1223" data-name="패스 1223" d="M0,0,3.622.317V114.086H.139Z" transform="matrix(0.996, -0.087, 0.087, 0.996, -464.19, 5389.274)" fill="#d3d4f8"/>
    <path id="패스_1224" data-name="패스 1224" d="M.213,0H3.7V113.769l-3.7.323Z" transform="matrix(-0.996, -0.087, 0.087, -0.996, -553.795, 5502.932)" fill="#d3d4f8"/>
    <rect id="사각형_1639" data-name="사각형 1639" width="3.483" height="52.241" transform="translate(-438.462 5338.159) rotate(7)" fill="#d3d4f8"/>
    <rect id="사각형_1637" data-name="사각형 1637" width="6.965" height="70.816" transform="translate(-435.536 5279.428) rotate(8)" fill="#2183c8"/>
    <path id="패스_1188" data-name="패스 1188" d="M-1866.125,6811.9c0-.591-.74-8.286,11.69-8.137s8.73,0,8.73,0,10.95,0,10.358,4.439-.592,3.847-1.036,3.7S-1866.125,6811.9-1866.125,6811.9Z" transform="translate(1257.149 -1313.767)" fill="#4366cf"/>
    <path id="패스_1189" data-name="패스 1189" d="M-1866.763,6813.237v-3.107h31.282v3.107Z" transform="translate(1257.048 -1312.741)" fill="#bacbff"/>
    <path id="패스_1190" data-name="패스 1190" d="M-1848.918,6798.905v7.546s-.3,2.071,3.255,2.071,4.883-2.071,4.883-2.071v-9.323Z" transform="translate(1259.918 -1314.833)" fill="#f69fa1"/>
    <path id="패스_1194" data-name="패스 1194" d="M-1855.9,6803.755v3.374s1.953,1.009,1.886.807,0-4.181,0-4.181" transform="translate(1258.796 -1313.767)" fill="none"/>
    <path id="패스_1195" data-name="패스 1195" d="M-1853.113,6803.755l.27,4.316h1.953l-.4-4.316Z" transform="translate(1259.244 -1313.767)" fill="none"/>
    <path id="패스_1196" data-name="패스 1196" d="M-1775.12,6800.447l1.991,2.271.8-.718-2.152-2.47Z" transform="translate(1271.794 -1314.447)" fill="none"/>
    <path id="패스_1197" data-name="패스 1197" d="M-1777.044,6802.426l2.152,2.471s.917-.757.837-.877-2.112-2.67-2.112-2.67Z" transform="translate(1271.484 -1314.154)" fill="none"/>
    <path id="패스_1202" data-name="패스 1202" d="M-1780.583,6633.327c-3.655-5.122-8.271-24.167-6.348-34.938s6.925-22.121,12.5-26.738,7.118-7.694,15-4.039,27.892,16.927,34.817,43.28,19.813,53.284,18.274,57.708-47.513,7.118-48.859,6.732-16.735-10.772-16.735-10.772l-1.347-8.656s-27.892.962-29.816,0-35.971-1.923-35.394-3.847-2.309-11.926.962-11.734S-1787.508,6631.525-1780.583,6633.327Z" transform="translate(1261.497 -1352.024)" fill="#fff"/>
    <path id="패스_1198" data-name="패스 1198" d="M-1854.021,6715.391s-10.433-33.47,18.806-38.663,65.4-8.465,65.4-8.465l1.347-17.7s8.848,6.732,27.123,6.541,35.009-2.308,36.548-3.654,8.656,31.162-5.386,47.32-15.2,18.275-23.66,18.659-83.291,0-83.291,0L-1838.1,6823.5s-8.848,1.347-10.387-2.116S-1854.021,6715.391-1854.021,6715.391Z" transform="translate(1258.807 -1338.416)" fill="#4462cc"/>
    <path id="패스_1200" data-name="패스 1200" d="M-1875.623,6630.319c-2.693,3.029-2.167,7.4,1.488,5.865s7.117-4.231,10.772-2.5,1.52,1.632.547,2.5-8.049,5-3.625,4.616,13.465,1.348,15-1.346,1.154-7.31,1.154-7.31-8.079-9.042-13.08-8.079S-1872.93,6627.29-1875.623,6630.319Z" transform="translate(1255.599 -1342.692)" fill="#fc9c98"/>
    <path id="패스_1201" data-name="패스 1201" d="M-1834.386,6631.318s.769,10.805-3.462,10.421-15.774,2.308-15.966,0,6.348-6.348,10.964-7.5A54.451,54.451,0,0,0-1834.386,6631.318Z" transform="translate(1259.131 -1341.513)" fill="#fc9c98"/>
    <path id="패스_1204" data-name="패스 1204" d="M-1789.945,6584.68c.192-.577-2.5-9.232-1.539-10s7.117-6.154,9.233-8.464,3.078-3.271,5.963-.962,1.731,4.232,1.731,4.232Z" transform="translate(1269.127 -1352.357)" fill="#cfd6e9"/>
    <path id="패스_1207" data-name="패스 1207" d="M-1805.759,6542.538c-.35-3.5-4.29-7.618,1.138-11.12s13.834,1.576,16.548,5.429,8.318.174,10.419,0,12.433,3.064,10.244,9.981-7.267,13.833-8.756,13.833-9.106,6.041-11.032,3.678-13.484-15.936-13.484-15.936S-1805.409,6546.04-1805.759,6542.538Z" transform="translate(1266.589 -1357.777)" fill="#2e3393"/>
    <path id="패스_1205" data-name="패스 1205" d="M-1800.51,6544.342c-1.907.973-4.756,4.408-4.756,10.371s5.771,18.852,12.5,15.966c2.693,5.579,3.847,8.464,3.847,8.464l11.349-10.58-3.462-5.386s4.616-3.269,4.424-5.771-3.655-8.079-5.386-4.232-2.308,7.5-3.078,5.771-3.27-8.271-1.731-11.158C-1792.762,6549.9-1800.7,6546.65-1800.51,6544.342Z" transform="translate(1266.943 -1355.668)" fill="#f7a19c"/>
    <path id="패스_1206" data-name="패스 1206" d="M-1794.532,6567.9s8.507-.622,11.585-6.97c-.378,3.993-9.4,11.61-9.571,11.173S-1794.532,6567.9-1794.532,6567.9Z" transform="translate(1268.67 -1352.841)" fill="#ea7173"/>
    <path id="패스_1208" data-name="패스 1208" d="M-1749.837,6595.63s3.847,35.5-1.731,42.233-23.66,13.465-31.162,13.465" transform="translate(1270.569 -1347.256)" fill="none" stroke="#cfd6e9" stroke-width="2"/>
    <path id="패스_1209" data-name="패스 1209" d="M-1770.047,6625.82s-13.374-2.308-19.145-1.923" transform="translate(1269.529 -1342.714)" fill="none" stroke="#cfd6e9" stroke-width="2"/>
    <rect id="사각형_1631" data-name="사각형 1631" width="5.805" height="190.389" transform="translate(-541.809 5501.043) rotate(173)" fill="#d3d4f8"/>
  </g>
</svg>
