<svg xmlns="http://www.w3.org/2000/svg" width="566.146" height="466.341" viewBox="0 0 566.146 466.341">
  <g id="그룹_731" data-name="그룹 731" transform="translate(989.573 -5107.951)">
    <path id="패스_1249" data-name="패스 1249" d="M-1540.9,7593.062c41.836-83.671,131.629-188.77,273.461-169.382,193.871,29.591,257.135,80.61,275.5,230.6s-89.793,247.95-190.81,231.625-195.912-106.118-247.951-106.118S-1597.018,7693.059-1540.9,7593.062Z" transform="translate(566.454 -2313.39)" fill="#e5f2ff"/>
    <g id="그룹_644" data-name="그룹 644" transform="translate(83.954 9.601)">
      <path id="사각형_1644" data-name="사각형 1644" d="M15,0H383.491a15,15,0,0,1,15,15V258.362a0,0,0,0,1,0,0H0a0,0,0,0,1,0,0V15A15,15,0,0,1,15,0Z" transform="translate(-979.579 5191.939)" fill="#2183c8"/>
      <rect id="사각형_1643" data-name="사각형 1643" width="379.88" height="239.751" transform="translate(-969.726 5202.887)" fill="#fff"/>
      <path id="사각형_1645" data-name="사각형 1645" d="M0,0H440.091a0,0,0,0,1,0,0V10.8a10,10,0,0,1-10,10H10a10,10,0,0,1-10-10V0A0,0,0,0,1,0,0Z" transform="translate(-996 5450.301)" fill="#2183c8"/>
      <path id="패스_1250" data-name="패스 1250" d="M0,0H208.182V12.076H0Z" transform="translate(-881.14 5393.358)" fill="#1163af"/>
      <rect id="사각형_1647" data-name="사각형 1647" width="61.306" height="12.076" transform="translate(-734.264 5393.358)" fill="#cfd6e9"/>
      <g id="그룹_642" data-name="그룹 642" transform="translate(-836.162 5244.66)">
        <path id="패스_1244" data-name="패스 1244" d="M-370.77,8184.311s27.354-71.686,61-78.918c0-.313,33.642,31.756,33.642,31.756s-.943,27.668-77.03,64.14C-353.477,8202.231-370.77,8184.311-370.77,8184.311Z" transform="translate(390.646 -8097.771)" fill="#dee2e5"/>
        <path id="패스_1245" data-name="패스 1245" d="M-207.693,8091.228l30.5,28.61s5.031-17.921,2.83-32.384C-190.086,8084.624-207.693,8091.228-207.693,8091.228Z" transform="translate(294.223 -8086.749)" fill="#2183c8"/>
        <path id="패스_1246" data-name="패스 1246" d="M-295.385,8325.493a147.653,147.653,0,0,1,20.122-10.1s-1.258,16.979-11.948,28.612C-287.525,8344.009-286.582,8334.648-295.385,8325.493Z" transform="translate(346.073 -8221.94)" fill="#2183c8"/>
        <path id="패스_1247" data-name="패스 1247" d="M20.122,10.1A147.555,147.555,0,0,0,0,0S1.258,16.979,11.948,28.611C12.262,28.611,11.319,19.251,20.122,10.1Z" transform="matrix(0.087, 0.996, -0.996, 0.087, 28.502, 52.349)" fill="#2183c8"/>
        <path id="패스_1248" data-name="패스 1248" d="M-396.695,8315.327c-2.2,5.344-3.773,5.975,0,10.376s10.061,0,10.061,0-.943,9.432-10.061,12.89-17.921,5.975-17.921,5.975l5.03-16.979S-406.756,8314.384-396.695,8315.327Z" transform="translate(416.57 -8221.872)" fill="#f39c11"/>
        <ellipse id="타원_440" data-name="타원 440" cx="19.21" cy="19.21" rx="19.21" ry="19.21" transform="translate(47.984 36.48)" fill="#323231"/>
        <ellipse id="타원_441" data-name="타원 441" cx="11.853" cy="11.853" rx="11.853" ry="11.853" transform="translate(55.341 43.837)" fill="#3499db"/>
      </g>
    </g>
    <g id="그룹_643" data-name="그룹 643" transform="translate(236.508 -1440.965)">
      <path id="패스_1239" data-name="패스 1239" d="M-1371.212,7508.707v4.844h8.073v-4.844Z" transform="translate(302.489 -531.752)" fill="#f7a19c"/>
      <path id="패스_1235" data-name="패스 1235" d="M-1441.371,7508.236v5.074h7.381c.346,0,.577-5.074.577-5.074Z" transform="translate(286.841 -531.857)" fill="#f7a19c"/>
      <path id="패스_1232" data-name="패스 1232" d="M-1425.458,7325s-3.4,3.118-5.743,1.754-14.229-13.84-13.449-19.3,17.542-59.058,21.245-62.176,6.432-4.872,9.94-5.457,30.991-13.84,56.524-1.755,24.364,19.686,26.313,30.8-13.059,48.729-12.864,50.092,4.288,19.3,0,22.22-32.16,3.9-38.592,2.924-39.957-2.729-41.321-7.8A89.112,89.112,0,0,1-1425.458,7325Z" transform="translate(286.102 -593.243)" fill="#cfd6e9"/>
      <path id="패스_1227" data-name="패스 1227" d="M-1403.556,7212.965s.231,6.8,1.615,7.5,3.345,4.383,3.345,4.383l-.577,15.34s4.613,4.037,8.3,3.69,7.15-2.537,7.5-3.69,0-13.148,0-13.148l4.383-5.536s.923-8.881-2.537-14.532-17.646-3.229-17.646-3.229Z" transform="translate(295.275 -599.886)" fill="#f7a19c"/>
      <path id="패스_1225" data-name="패스 1225" d="M-1402.047,7207.236c-.115-4.729,3.114-9.918,8.419-9s11.418,2.306,12.456.807,4.267-4.383,4.267-5.3c.346,3,1.961,15.223-5.075,16.261s-13.725.346-15.685-.923-1.615,8.535-1.845,8.881-3.921.691-4.5-1.5S-1407.121,7206.659-1402.047,7207.236Z" transform="translate(294.919 -602)" fill="#181146"/>
      <path id="패스_1226" data-name="패스 1226" d="M-1401.36,7219.565s-1.5-3.114,0-2.884,5.421,4.5,6.574,4.268,9-4.729,9.342-5.421,2.422-1.961,5.19,0,5.421,4.96,4.152,6.8-1.615,6.689-8.419,6.689-11.764-2.769-14.071-5.421A14.3,14.3,0,0,1-1401.36,7219.565Z" transform="translate(295.616 -597.375)" fill="#181146"/>
      <path id="패스_1228" data-name="패스 1228" d="M-1425.442,7322.084l-3.3-59.073s-1.8-5.247,4.8-5.1,96.556,0,96.556,0,3.748-.3,3.448,5.1-3.448,59.073-3.448,59.073Z" transform="translate(289.608 -587.689)" fill="#4462cc"/>
      <path id="패스_1229" data-name="패스 1229" d="M-1426.452,7314.907v-4.647h98.8v4.647Z" transform="translate(290.169 -576.013)" fill="#2f3194"/>
      <circle id="타원_439" data-name="타원 439" cx="7.338" cy="7.338" r="7.338" transform="translate(-1094.147 6697.238)" fill="#fff"/>
      <path id="패스_1230" data-name="패스 1230" d="M-1426.4,7313.074c-4.648-1.5-6.6-4.2-6.3-7.646s5.4-7.2,6.3-7.5,3-1.049,2.7,2.249,3.749,3.3,5.4,3.448,6.147,3.449,4.348,5.7S-1421.754,7314.573-1426.4,7313.074Z" transform="translate(288.769 -578.827)" fill="#f7a19c"/>
      <path id="패스_1231" data-name="패스 1231" d="M-1340.611,7299.694c-.767-4.349-2.866-6-4.665-4.948s-.6,4.948,0,6-3.749.6-6.747,0-2.849,5.848.75,9.445,7.531,5.547,10.662,3.748S-1336.4,7306.591-1340.611,7299.694Z" transform="translate(306.298 -579.541)" fill="#f7a19c"/>
      <path id="패스_1233" data-name="패스 1233" d="M-1420.8,7316.977s-6.164,33.4-7.448,47.96-17.557,184.991-14.559,187.132,11.99,0,11.99,0,36.827-152.019,37.255-155.016,7.28-35.113,8.564-29.118,27.406,178.139,27.834,180.708.879,3.732,2.831,4.087a36.426,36.426,0,0,0,6.388,0s1.863-.888,1.863-4.524,7.792-136.62,7.792-144.475,3.547-53.21-1.267-67.653-6.588-15.963-6.588-15.963Z" transform="translate(286.438 -574.515)" fill="#4462cc"/>
      <path id="패스_1234" data-name="패스 1234" d="M-1383.549,7344.2s-9.134,4.561-10.4,7.6-3.041,11.655-3.041,11.655" transform="translate(297.74 -570.444)" fill="none" stroke="#2f3194" stroke-width="2"/>
      <path id="패스_1236" data-name="패스 1236" d="M-1444.577,7522.287s0-9,3.575-9.573a34.768,34.768,0,0,1,8.189,0s4.382,4.729,4.267,8.073-1.038,1.269-1.5,1.5S-1444.577,7522.287-1444.577,7522.287Z" transform="translate(286.126 -531.915)" fill="#4366cf"/>
      <path id="패스_1237" data-name="패스 1237" d="M-1441.371,7517.561s6.344.375,6.689,0,0-4.987,0-4.987h-5.882Z" transform="translate(286.841 -531.89)" fill="#bacbff"/>
      <path id="패스_1238" data-name="패스 1238" d="M-1445.143,7523.766v-3.461h17.069v3.461Z" transform="translate(286 -530.164)" fill="#bacbff"/>
      <path id="패스_1240" data-name="패스 1240" d="M-1375.455,7523s-.231-10.5,4.152-10.61,13.955.114,16.954,3.921,2.422,6.689,2.422,6.689Z" transform="translate(301.542 -531.936)" fill="#4366cf"/>
      <path id="패스_1241" data-name="패스 1241" d="M-1375.352,7523.493h24.683v-3h-25.258v3Z" transform="translate(301.438 -530.123)" fill="#bacbff"/>
      <path id="패스_1242" data-name="패스 1242" d="M-1369.609,7512.368s3.114,5.673,4.037,5.788a54.918,54.918,0,0,0,6.343-.923,49.238,49.238,0,0,0-3.46-4.151C-1363.611,7512.274-1369.609,7512.368-1369.609,7512.368Z" transform="translate(302.847 -531.937)" fill="#bacbff"/>
      <path id="패스_1243" data-name="패스 1243" d="M-1392.063,7219.121h8.121s-.887,3.821-3.617,3.412S-1392.063,7219.121-1392.063,7219.121Z" transform="translate(297.836 -596.34)" fill="#fff"/>
    </g>
  </g>
</svg>
