<?xml version="1.0" encoding="utf-8"?>
<!-- Generator: Adobe Illustrator 25.2.1, SVG Export Plug-In . SVG Version: 6.00 Build 0)  -->
<svg version="1.1" id="Layer_1" xmlns="http://www.w3.org/2000/svg" xmlns:xlink="http://www.w3.org/1999/xlink" x="0px" y="0px"
	 viewBox="0 0 672.7 585.4" style="enable-background:new 0 0 672.7 585.4;" xml:space="preserve">
<style type="text/css">
	.st0{fill:#E5F2FF;}
	.st1{fill:none;}
	.st2{fill:#0057A5;}
	.st3{fill:#1163AF;}
	.st4{fill:#C3E1F6;}
	.st5{fill:none;stroke:#FFE0BC;stroke-miterlimit:10;}
	.st6{fill:#FFFFFF;}
	.st7{fill:#BFDFF6;}
	.st8{fill:#2183C8;}
	.st9{fill:none;stroke:#FFFFFF;stroke-width:3;stroke-linecap:round;stroke-miterlimit:10;}
	.st10{fill:none;stroke:#2285C9;stroke-width:4;stroke-linecap:round;stroke-miterlimit:10;}
	.st11{fill:#FFFFFF;stroke:#0057A5;stroke-width:2;stroke-miterlimit:10;}
	.st12{fill:none;stroke:#C3E1F6;stroke-width:3;stroke-linecap:round;stroke-miterlimit:10;}
	.st13{fill:none;stroke:#2285C9;stroke-width:3;stroke-linecap:round;stroke-miterlimit:10;}
	.st14{fill:#2384C9;}
	.st15{fill:#2285C9;}
	.st16{clip-path:url(#SVGID_2_);}
	.st17{fill:#403559;stroke:#162256;stroke-miterlimit:10;}
	.st18{fill:#BDD4EF;stroke:#162256;stroke-miterlimit:10;}
	.st19{fill:#BCD5EE;}
	.st20{fill:#F7A19C;}
	.st21{fill:#342521;}
	.st22{fill:#2F3194;}
	.st23{fill:#4462CC;}
</style>
<path id="패스_707" class="st0" d="M630.3,276.2c0,0,17-120.5-46.3-200.7S413.7,6.3,361.8,76.2s-92.5,86.9-171.8,96.4
	S31.6,241.8,37.4,341.9s50.7,194.5,205.4,206.5c154.7,12,233.4-34.8,308.4-112.8S630.3,276.2,630.3,276.2z"/>
<g id="그룹_322" transform="translate(4341.825 -618.672)">
	<g id="그룹_321" transform="translate(41.008 0)">
		<g id="패스_507" transform="translate(-152.02 -21.466)">
			<path class="st1" d="M-3720.8,839.7l-188.5-106.1c0-1.4-0.1-3.9,0.1-8.1c0.3-8-8.1-12.8-8.1-12.8s-72.5-42.1-76.9-45
				c-2.7-1.7-5.9-2.2-9-1.4l-5.7,3.3l-0.1,0.4c-2.2,1.1-2.5,4.2-2.5,4.2s-0.1,0.4-0.1,2.2c-0.6-0.1-1.3-0.1-1.9,0l-12.5,7.2
				c-1.2,0.3-2.3,0.9-3.1,1.8l0,0v0c-1,1.1-1.5,2.4-1.5,3.9v191.6c0,6.9,3.7,13.2,9.6,16.7l291,168.7c0.3,0.2,0.6,0.3,0.9,0.4
				l1.1,0.7c0.7,0.2,1.4,0.2,2.1,0c2.2,0,4.3-0.8,5.8-2.4c4.4-2.3,8.7-4.9,12.8-7.6c1.3-1.5,2-3.4,2-5.3V865.8
				C-3705.5,855-3711.3,845-3720.8,839.7z"/>
			<path class="st2" d="M-4000.4,665.9c-1.7,0-2.8,0.4-2.8,0.4l-5.7,3.3l-0.1,0.4c-2.2,1.1-2.5,4.2-2.5,4.2s-0.1,0.4-0.1,2.2
				c-0.7-0.1-1.3-0.1-1.9,0l-12.5,7.2c-1.2,0.3-2.3,0.9-3.1,1.8l0,0l0,0c-0.9,1-1.5,2.3-1.5,3.9v191.6c0,6.9,3.7,13.2,9.6,16.7
				l291,168.7c0.3,0.2,0.6,0.3,0.9,0.4l1.1,0.7c0.5,0.2,1.2,0.2,2.1,0c2.2,0,4.3-0.9,5.8-2.4c5.9-3,12.8-7.6,12.8-7.6
				c1.2-1.4,2-3.2,2-5.3V865.8c0-10.8-5.8-20.8-15.3-26.2l-188.5-106.1c0-1.4-0.1-3.9,0.1-8.1c0.3-8-8.1-12.8-8.1-12.8
				s-72.5-42.1-76.9-45C-3996.4,666.2-3998.7,665.9-4000.4,665.9 M-4000.4,663.9v2V663.9c2.6,0,5.1,0.7,7.3,2.1
				c4.3,2.8,76.1,44.5,76.8,44.9c0.1,0.1,2.4,1.4,4.6,3.8c3.1,3.3,4.6,7,4.5,10.8c-0.1,3.2-0.1,5.4-0.1,6.8l187.5,105.6
				c4.9,2.8,9.1,6.8,11.9,11.7c2.9,4.9,4.4,10.5,4.4,16.2V1052c0,2.5-0.8,4.8-2.4,6.6l-0.2,0.2l-0.2,0.2c-0.3,0.2-6.9,4.6-12.8,7.6
				c-1.8,1.7-4.3,2.7-6.8,2.7c-0.6,0.1-1,0.2-1.5,0.2c-0.7,0-1.3-0.1-1.8-0.4l-0.1,0l-1.1-0.7c-0.3-0.1-0.6-0.3-0.9-0.5l-291-168.7
				c-3.2-1.9-5.9-4.6-7.8-7.8c-1.9-3.2-2.8-6.9-2.8-10.6V689.2c0-1.6,0.5-3.2,1.5-4.5l0-0.5l0.9-0.5c1-1,2.2-1.7,3.6-2.1l12.6-7.2
				l0.3-0.1c0.1,0,0.2,0,0.3-0.1c0-0.2,0-0.3,0-0.4c0.1-0.4,0.5-3.5,2.9-5.2l0.2-0.5l6.5-3.8l0.2-0.1
				C-4003.7,664.3-4002.3,663.9-4000.4,663.9z"/>
		</g>
		<path id="패스_508" class="st3" d="M-3857.5,854.3v-10c0-10.8-5.8-20.8-15.3-26.2l-188.5-106.1c0-1.4-0.1-3.9,0.1-8.1
			c0.3-8-8.1-12.8-8.1-12.8s-72.5-42.1-76.9-45c-2.7-1.7-5.9-2.2-9-1.4l-5.7,3.3l-2.3,6.8c-0.8-0.2-1.6-0.2-2.4-0.1l-15.7,9l1,17
			l310.5,179.7L-3857.5,854.3z"/>
		<path id="패스_509" class="st4" d="M-3869.9,860.5l-310.5-179.7l9.9,171.4c0,6.9,3.7,13.2,9.6,16.7l280.6,176.9
			c3.3,1.7,20.8-10,20.8-10c1.3-1.5,2-3.4,2-5.3V854.3L-3869.9,860.5z"/>
		<g id="패스_510" transform="translate(-163.566 -26.421)">
			<path class="st1" d="M-3789.9,801.2c-1.3-1.1-5-9.1-5.8-10.8c0.1-0.3,0.1-2.1-0.2-8.4c-0.1-6.3-4.1-12-10-14.2l-72.9-42.3
				c0,0-6.4-4.5-11.6-1.7c-1.7,0.8-3.2,1.9-4.6,3.2c-2.4,2.3-3.6,5.6-2.9,11.5c0.4,5.1,3.6,9.5,8.2,11.7l92.3,52.9l3.3,1.9
				C-3793.9,805-3788.4,802.4-3789.9,801.2z"/>
			<path class="st2" d="M-3793.9,805c0,0,5.5-2.6,4-3.8c-1.3-1.1-5-9.1-5.8-10.8c0.1-0.3,0.1-2.1-0.2-8.4c-0.5-11.2-10-14.2-10-14.2
				l-72.9-42.3c0,0-6.4-4.5-11.6-1.7c-1.8,1-3.3,2-4.6,3.2c-2.4,2.3-3.6,5.6-2.9,11.5c1.1,9,8.2,11.7,8.2,11.7L-3793.9,805
				 M-3794,807.3l-4.3-2.4l-92.2-52.9c-0.6-0.2-2.3-1.1-4.2-2.8c-2-1.9-4.5-5.2-5.1-10.4c-0.7-6,0.3-10.1,3.5-13.1
				c1.5-1.5,3.4-2.6,5-3.5c1.4-0.8,3.1-1.2,4.8-1.2c4.3,0,8.2,2.5,8.8,2.9l72.7,42.1c0.7,0.3,3,1.2,5.3,3.3c1.6,1.4,2.9,3.1,3.9,5
				c1.2,2.3,1.9,4.9,2,7.8c0.2,5.1,0.2,7.2,0.2,8.1c2.5,5.5,4.5,9.1,5.1,9.7c0.7,0.6,1,1.4,0.9,2.3c-0.2,1.2-1.1,2.3-3.1,3.6
				c-1.1,0.7-2.2,1.2-2.3,1.3L-3794,807.3z"/>
		</g>
		<g id="그룹_313" transform="translate(149.741 52.041)">
			<path id="패스_511" class="st5" d="M-4109,711.9c-0.1-0.2-0.2-0.3-0.2-0.3S-4109,712.2-4109,711.9z"/>
			<path id="패스_512" class="st6" d="M-4116.6,704.8c-0.5-7.4-11.4-12.8-11.4-12.8s-70-40.7-74.9-43.1c-1.6-0.8-3.6-1-5.3-0.4
				c-2.4,2.3-3.6,5.6-2.9,11.5c0.4,5.1,3.6,9.5,8.2,11.7l92.3,52.9c-1.1-1.5-2.6-3.8-4-6.1C-4117.1,714.5-4116.2,712.2-4116.6,704.8
				z"/>
			<path id="패스_513" class="st7" d="M-4103.2,722.8c-1.3-1.1-5-9.1-5.8-10.8c-0.1,0.2-0.2-0.3-0.2-0.3s0.1,0.1,0.2,0.3
				c0.1-0.3,0.1-2.1-0.2-8.4c-0.1-6.3-4.1-12-10-14.2L-4192,647c0,0-6.4-4.5-11.6-1.7c-1.7,0.8-3.2,1.9-4.6,3.2
				c1.7-0.6,3.7-0.5,5.3,0.4c4.9,2.4,74.9,43.1,74.9,43.1s10.9,5.4,11.4,12.8c0.5,7.4-0.5,9.7,2.1,13.8c1.4,2.3,3,4.6,4,6.1l3.3,1.9
				C-4107.2,726.6-4101.8,724-4103.2,722.8z"/>
		</g>
		<g id="그룹_314" transform="translate(28.49 3.69)">
			<path id="패스_514" class="st6" d="M-4211.3,855.7c0,6.9,3.7,13.2,9.6,16.7l291,168.7c3.9,2.3,9,0.9,11.2-3
				c0.7-1.3,1.1-2.7,1.1-4.1V856.8l-312.9-181.1V855.7z"/>
			<path id="패스_515" class="st8" d="M-3913.6,821.6l-173.9-97.9c-7.7-5.5-10.1-8.5-9.4-17.3s-9.2-15.4-9.2-15.4
				s-71.1-41.8-78-45.6c-7-3.8-7.9,3.5-7.9,3.5c-0.1,2.6-0.1,5.2,0,7.8c0.1,3.9-3.8,4.4-6.9,4.2l-3.5-2c-2.8-1.6-6.4-0.6-7.9,2.2
				c-0.5,0.9-0.7,1.9-0.7,2.9v11.7l312.9,181.1v-9C-3898.4,836.9-3904.2,826.9-3913.6,821.6z"/>
		</g>
		<line id="선_3" class="st9" x1="-4085.7" y1="697.6" x2="-4078.9" y2="709"/>
		<line id="선_4" class="st9" x1="-4085.7" y1="706.1" x2="-4078.9" y2="701.7"/>
		<line id="선_5" class="st9" x1="-4154.5" y1="658.9" x2="-4102.9" y2="688.9"/>
		<line id="선_6" class="st9" x1="-4154.5" y1="664.8" x2="-4120.2" y2="684.8"/>
		<line id="선_7" class="st10" x1="-4051.4" y1="710.4" x2="-4000.7" y2="740.3"/>
		<g id="viewshadow" transform="translate(28.49 55.005)">
			<path id="패스_516" class="st4" d="M-4071,722l-133.7-76.1c-2-1.1-4.3-1.6-6.6-1.4V766c1.8,1.7,3.8,3.1,5.9,4.3l131.4,74
				c4.6,2.6,10.5,1,13.1-3.7c0.8-1.4,1.2-3.1,1.2-4.7v-94.3C-4059.6,733.5-4063.9,726-4071,722z"/>
			<animate  accumulate="none" additive="replace" attributeName="opacity" calcMode="linear" dur="3s" fill="remove" repeatCount="indefinite" restart="always" values="1;0.2;1;"/>
				
		</g>
		<line id="선_8" class="st10" x1="-4051.4" y1="716.2" x2="-4017.5" y2="735.6"/>
		<path id="패스_517" class="st6" d="M-4162.6,674.3l147.8,84.5c2.7,1.5,4.4,4.4,4.4,7.5v0.9c0,2-1.6,3.6-3.6,3.6
			c-0.6,0-1.2-0.2-1.8-0.5l-149.1-85.7c-2.4-1.4-3.9-3.9-3.9-6.7v-0.1c0-2.3,1.8-4.1,4.1-4.1C-4164,673.8-4163.3,674-4162.6,674.3z"
			/>
		<path id="패스_519" class="st3" d="M-4017.3,1049.2"/>
		<path id="view02shadow" class="st4" d="M-4005.8,830.7v56.7c-0.1,7.3,3.7,14.2,10,18l81.3,48.2c4,2.4,8.9-0.7,8.9-5.5v-61.5
			c0-5.2-2.6-10.1-7.1-12.8l-82.7-49.6C-4000.1,821.5-4005.8,825.1-4005.8,830.7z">
			<animate  accumulate="none" additive="replace" attributeName="opacity" calcMode="linear" dur="3s" fill="remove" repeatCount="indefinite" restart="always" values="0.2;1;0.2;"/>
		</path>
		<g id="view02">
			<path id="패스_521" class="st11" d="M-4024.1,839.8v56.7c-0.1,7.3,3.7,14.2,10,18l81.3,48.2c4,2.4,8.9-0.7,8.9-5.5v-61.5
				c0-5.2-2.6-10.1-7.1-12.8l-82.7-49.6C-4018.3,830.7-4024.1,834.2-4024.1,839.8z"/>
			<line id="선_9" class="st12" x1="-4014" y1="900.9" x2="-3947.3" y2="939.8"/>
			<line id="선_10" class="st13" x1="-4014" y1="900.9" x2="-3998.8" y2="909.7"/>
			
				<ellipse id="타원_286" transform="matrix(0.866 -0.5 0.5 0.866 -978.6442 -1868.5229)" class="st4" cx="-3976" cy="891.9" rx="15.2" ry="23.1"/>
			
				<ellipse id="타원_287" transform="matrix(0.9834 -0.1814 0.1814 0.9834 -231.214 -710.306)" class="st14" cx="-3999.3" cy="909" rx="2.1" ry="3.1"/>
			<path id="패스_522" class="st15" d="M-3982.4,879.2V899c0,1,0.9,1.9,1.9,1.9h14.9c0.7,0,1.3-0.6,1.3-1.3c0-0.3-0.1-0.6-0.3-0.8
				l-16.4-20.1c-0.3-0.3-0.7-0.4-1-0.1C-3982.3,878.8-3982.4,879-3982.4,879.2z"/>
			<animateTransform
				attributeType="xml" 
				attributeName="transform"
				type="translate"
				dur="3s"
				values="0,0; 7,0; 0,0;"
				repeatCount="indefinite"/>
		</g>
		<path id="패스_523" class="st10" d="M-3983,749.2c-0.1,0.4,6.4,11.4,6.4,11.4"/>
		<line id="선_11" class="st10" x1="-3975.9" y1="752.5" x2="-3983" y2="757.1"/>
		<path id="view03shadow" class="st4" d="M-4013.5,930.9v32c0,5.2,2.8,10,7.3,12.5l114.7,64.6c1.9,1,4.2,0.4,5.3-1.5
			c0.3-0.6,0.5-1.2,0.5-1.9v-30.4c0-4.7-2.5-9-6.6-11.3l-117-66.6c-1.4-0.8-3.1-0.3-3.9,1.1C-4013.4,930-4013.5,930.4-4013.5,930.9z
			">
			<animate  accumulate="none" additive="replace" attributeName="opacity" calcMode="linear" dur="3.5s" fill="remove" repeatCount="indefinite" restart="always" values="0.2;1;0.2;"/>
		</path>
		<g id="view03">
			<path id="패스_525" class="st11" d="M-4031.8,940.1v32c0,5.2,2.8,10,7.3,12.5l114.7,64.6c1.9,1,4.2,0.4,5.3-1.5
				c0.3-0.6,0.5-1.2,0.5-1.9v-30.4c0-4.7-2.5-9-6.6-11.3l-117-66.6c-1.4-0.8-3.1-0.3-3.9,1.1
				C-4031.7,939.1-4031.8,939.6-4031.8,940.1z"/>
			<g id="그룹_317" transform="translate(39.412 40.224)">
				<line id="선_12" class="st12" x1="-4031.8" y1="928.1" x2="-4031.8" y2="948.5"/>
				<line id="선_13" class="st12" x1="-4026.8" y1="936.6" x2="-4026.8" y2="946.2"/>
				<line id="선_14" class="st12" x1="-4021.7" y1="937.6" x2="-4021.7" y2="951.1"/>
				<line id="선_15" class="st12" x1="-4017.4" y1="937.6" x2="-4017.4" y2="958"/>
				<line id="선_16" class="st12" x1="-4012.4" y1="946.1" x2="-4012.4" y2="955.7"/>
				<line id="선_17" class="st12" x1="-4007.3" y1="947.1" x2="-4007.3" y2="960.6"/>
				<line id="선_18" class="st12" x1="-4002.9" y1="945.1" x2="-4002.9" y2="965.5"/>
				<line id="선_19" class="st12" x1="-3997.9" y1="953.5" x2="-3997.9" y2="963.2"/>
				<line id="선_20" class="st12" x1="-3992.9" y1="954.6" x2="-3992.9" y2="968.1"/>
				<line id="선_21" class="st12" x1="-3988.5" y1="954.6" x2="-3988.5" y2="975"/>
				<line id="선_22" class="st12" x1="-3983.5" y1="963" x2="-3983.5" y2="972.7"/>
				<line id="선_23" class="st12" x1="-3978.4" y1="964.1" x2="-3978.4" y2="977.6"/>
				<line id="선_24" class="st12" x1="-3974.1" y1="961.4" x2="-3974.1" y2="981.8"/>
				<line id="선_25" class="st12" x1="-3969.1" y1="969.9" x2="-3969.1" y2="979.5"/>
				<line id="선_26" class="st12" x1="-3959.1" y1="976.2" x2="-3959.1" y2="985.9"/>
				<line id="선_27" class="st12" x1="-3964" y1="970.9" x2="-3964" y2="984.4"/>
				<line id="선_28" class="st12" x1="-3954.2" y1="976.4" x2="-3954.2" y2="990"/>
			</g>
			
				<ellipse id="타원_288" transform="matrix(0.866 -0.5 0.5 0.866 -1021.011 -1876.936)" class="st4" cx="-4012.9" cy="966.8" rx="8.6" ry="13.1"/>
			<path id="패스_526" class="st6" d="M-4016,970.7V960l8.7,9.4L-4016,970.7z"/>
			<animateTransform
				attributeType="xml" 
				attributeName="transform"
				type="translate"
				dur="3.5s"
				values="0,0; 5,0; 0,0;"
				repeatCount="indefinite"/>
		</g>
		
			<ellipse id="타원_289" transform="matrix(0.4671 -0.8842 0.8842 0.4671 -2813.2292 -3013.8364)" class="st6" cx="-3907" cy="827" rx="2.7" ry="2.9"/>
		
			<ellipse id="타원_290" transform="matrix(0.4671 -0.8842 0.8842 0.4671 -2812.2847 -3003.9612)" class="st6" cx="-3898.3" cy="831.2" rx="2.7" ry="2.9"/>
		
			<ellipse id="타원_291" transform="matrix(0.4671 -0.8842 0.8842 0.4671 -2811.3406 -2994.0845)" class="st6" cx="-3889.6" cy="835.3" rx="2.7" ry="2.9"/>
		<g id="view01">
			<path id="패스_518" class="st11" d="M-4211.3,719.8v87.1c0,11.4,6.2,22,16.1,27.6l131.4,74c4.6,2.6,10.5,1,13.1-3.7
				c0.8-1.4,1.2-3.1,1.2-4.7v-94.3c0-8.1-4.4-15.6-11.4-19.6l-133.7-76.1c-5.4-3.1-12.3-1.2-15.3,4.2
				C-4210.8,716-4211.3,717.9-4211.3,719.8z"/>
			<g id="그룹_320" transform="translate(0 63.22)">
				<g>
					<defs>
						<path id="SVGID_1_" d="M-4211.3,655.7v87.1c0,11.4,6.2,22,16.1,27.6l131.4,74c4.6,2.6,10.5,1,13.1-3.7
							c0.8-1.4,1.2-3.1,1.2-4.7v-94.3c0-8.1-4.4-15.6-11.4-19.6l-133.7-76.1c-5.4-3.1-12.3-1.2-15.3,4.2
							C-4210.8,651.8-4211.3,653.7-4211.3,655.7z"/>
					</defs>
					<clipPath id="SVGID_2_">
						<use xlink:href="#SVGID_1_"  style="overflow:visible;"/>
					</clipPath>
					<g id="그룹_319" class="st16">
						<g id="그룹_259" transform="translate(30.961 52.005)">
							<g id="그룹_257">
								<path id="패스_302" class="st17" d="M-4127.9,911.8c0.4,1.8,0.7,3.3,1.4,6.9s-0.1,6.6-2,7.9c-2.6,1.8-6,1.8-8.6,0
									c-2.9-2.4-1.9-2.7-2.3-5.9c-0.4-3.2-2.1-5.4-1.5-8.9s2.5-5.4,3.8-4.8s3.4-0.4,4.6-0.6l0.9-0.7l2,1.3
									C-4128.9,908.6-4128.3,910.2-4127.9,911.8z"/>
								<path id="패스_303" class="st18" d="M-4139.4,902.3c0,0-0.3,8.3,1.9,10.4s5.5,1.3,6.9-2.1c1.4-3.3-1.4-10.3-1.4-10.3
									L-4139.4,902.3z"/>
								<path id="패스_304" class="st18" d="M-4175.7,888.5c-0.2-0.2-1.3,11-1.3,11l2.6,2.5l7.9-0.5c0,0,1.8-9.6,1.1-10.4
									C-4165.4,891.1-4175.5,888.8-4175.7,888.5z"/>
								<path id="패스_305" class="st17" d="M-4165.4,904c0.5,3,0.6,2.5,0,4.6c-0.6,2.1-5.1,1.5-8.7,3.2c-3.6,1.7-4.9,1.3-8.9,1.9
									c-3,0.5-6,0.2-8.9-0.8c-3-0.7-2.5-0.8-3.2-2.9c-0.7-2.1,1.3-2.5,2.2-3.2c0.8-0.6,7.8-3.2,8.9-3.6c2.2-1.8,4.1-4,5.6-6.5
									c0.8-1.7,2.3,0,2.3,0c1.4,1.3,2.9,2.5,4.4,3.6c1.5,0.8,3.3,0.8,4.9,0C-4166.6,900.4-4165.9,901-4165.4,904z"/>
								<path id="패스_301" class="st8" d="M-4180.4,776.9c-1.9-0.4-0.4,5.5-1.3,8.2c-0.8,2.7,0,33.6,0,35.5c0,1.9,4,70.2,4,70.2
									s3.4,3.8,4,3.6c0.6-0.2,8,0,8,0s1.9-8.2,2.3-11.2c0.4-3,5.1-24.3,5.3-26.9s-0.8-21.8-1.3-25.6s-1.9-14.8-1.3-16.9
									c0.6-2.1,1.5-2.7,2.5-2.5c1.1,0.2,1.7,7.6,2.1,9.3c0.4,1.7,3.6,16.3,4,19.9c0.4,3.6,5.5,28.3,5.7,31.3
									c0.2,3,5.1,31.3,5.1,31.3s1.5,3,2.3,3.4c2.1,0.1,4.2-0.2,6.1-0.8c1.3-0.4,2.7-4.2,4.4-5.7c1.7-1.5,1.7-36.4,1.7-39.1
									c-0.4-4-0.9-7.9-1.7-11.8c-0.2-1.3-5.1-9.5-4.4-10.1c0.6-0.6-1.1-9.1,0-12.5c1.1-3.4,0-21.8,0-21.8l-1.7-27.7
									C-4134.3,776.9-4178.5,777.3-4180.4,776.9z"/>
								<path id="패스_527" class="st8" d="M-4118.2,724c-0.8-2.1-8.5-19.9-8.9-21.1s-12.1-7.4-12.2-7.8
									c-0.1-0.4-16.8-6.1-19.1-7.2c-4.2-1.5-8.5-2.6-12.9-3.4c-1.5,0-15.7,0.8-17.8,3.9c-2.1,3.2-10.7,19.8-14.1,27.2l-6.4,12.2
									c2.1,4,2.9,3.3,7.4,3.8c4.4,0.4,19.7-4.4,19.7-4.4v50.1c0,3.8,9.5,7.4,22.8,9.9c13.3,2.5,27.1-9.9,27.1-9.9v-6.6h10.1
									c14.4,0,11.6-11.6,12.7-13.1C-4108.7,756.2-4117.4,726.1-4118.2,724z"/>
								<path id="패스_296" class="st6" d="M-4166.7,686.2c-2.5,0,0.4,5.3,0,8.2c-0.4,3,0.4,19.2,0,21.8c-0.4,2.5,3.2,2.5,3.2,2.5
									c0.9-0.8,1.8-1.6,2.5-2.5c0.6-0.8,5.5-8,6.6-9.3c1.1-1.3,15-11.4,13.3-12.5S-4164.1,686.2-4166.7,686.2z"/>
								<path id="패스_294" class="st4" d="M-4154.8,657.5c0,0,11.7,6,11.8,6.5c0.2,0.5-1.1,14.3-1.1,14.3l-3.5,6.7
									c0,0,0.2,9.6,0,10.9c-0.2,1.3-5,4.4-9,4.1c-2.7-0.5-5-2.4-6-5c0.2-2.8,0.6-5.6,1.3-8.3c-10.4,2.6-10.7-7-10.7-8.3
									c-0.5-2.1-0.9-4.2-1.1-6.3c0.7-4.5,1.1-9,1.1-13.5L-4154.8,657.5z"/>
								<path id="패스_298" class="st7" d="M-4155,755.1l1.9,8.5h-8.2c-1.1,0-4.4-0.8-6.6-1.1c-2.1-0.2-5.1-3.6-5.1-3.6v-3.8
									c0,0,6.6,0.2,7.2,0s7.4,0,7.4,0L-4155,755.1z"/>
								<path id="패스_297" class="st8" d="M-4132.4,770.3c0,0-8.9-1.7-9.3-1.7c-0.4,0-15.2-1.5-15.2-1.5c0.5-1.3,0.4-2.6,1.3-3.6
									c0.5-1.6,0.4-3.3-0.5-4.7c-0.8-1.2-1.4-2.6-1.9-4c-0.2-1.3-0.8-2.3,0-2.3c0.8,0,14.6-1.3,16.3-1.3c1.7,0,11,2.3,13.1,2.3
									c2.1,0-2.7-16.5-2.7-16.5"/>
								<path id="패스_299" class="st4" d="M-4158.4,771.4l-7.4,1.5l-25.4-5.5l-4.4-3.4l-15.6-45.3h2.1l34.6,7L-4158.4,771.4z"/>
								<path id="패스_293" class="st3" d="M-4137.6,669.8c-0.6,0.6-8.2,15-10.4,15.1c-2.2,0.2-2.1-1.3-2.1-1.3
									c0.5-1.1,1.2-2.1,2.1-2.9c1.1-1,3.3-1.3,4.1-2.4c0.8-1.1-0.8-5.2-2.7-6.7c-1.9-1.5-3,1.1-3.5,1.6c-1.2,1-2.5,1.9-3.9,2.6
									c-0.5,0,1.1-12.4,0-12.4c-4.8,1.8-10,2.4-15.1,1.6c-9.4-1.3-6.6-15.3-5.2-17.6c1.4-2.3,9.4-3.4,17.3-3.1s7.1,0.6,12.4,5.7
									C-4132.5,646.6-4137,669.2-4137.6,669.8z"/>
							</g>
						</g>
					</g>
				</g>
			</g>
			<animateTransform
				attributeType="xml" 
				attributeName="transform"
				type="translate"
				dur="3s"
				values="7,0; 0,0; 7,0;"
				repeatCount="indefinite"/>
			</g>
	</g>
	<ellipse id="타원_381" class="st19" cx="-4163.3" cy="1100.4" rx="60.1" ry="25.9"/>
	<g id="그룹_250" transform="translate(0 180.168)">
		<path id="arm" class="st20" d="M-4123.6,724.3l16.9-23.3c0,0,3.4-4.8,4.4-4.8s-0.7,4.8-0.7,4.8s8.8-2.8,9.9-3.1
			c1.1-0.3,3,0.8,3,1.3c0,4.5-4.9,7-4.9,7s-7.5,3-8,2.8c-0.5-0.2-12.7,29-12.7,29L-4123.6,724.3z">
			<animateTransform  accumulate="none" additive="sum" attributeName="transform" begin="0s" calcMode="linear" dur="3s" fill="remove" keyTimes="0; 0.5; 1" repeatCount="indefinite" restart="always" type="rotate" values="-7 -4121 728; 10 -4121 728; -7 -4121 728"/>
		</path>
		<g id="head">
			<path id="패스_247" class="st20" d="M-4147.2,660.4c0,0,4.7,8.1,3.4,14.4c-1.3,6.2-4.1,9.2-7.1,7.8c-3-1.3-2.3,2.4-2.3,2.4v7
				l-13-2.7c0,0,0.7-8,0-8.7c-0.7-0.6,10.9-20.8,10.9-20.8L-4147.2,660.4z"/>
			<path id="패스_246" class="st21" d="M-4174.7,657.8c1.5-3,2.1-5.9,9.2-7.2c7.1-1.3,10.1-3.4,11.1-4.5s5.3-2.6,6.4-0.8
				c1.1,1.8,2.2,2.6,3.1,4.3c0.8,1.7,3.8,2.2,2.2,6.2c-1.6,4-2.8,6.7-5.3,8.4c-1.7,1-3.3,2.1-4.7,3.5c0.3,1.9,0.5,3.8,0.5,5.7
				c-0.3,0.5-1.1,1-1.3,0c-0.5-2-1.3-4-2.4-5.7c-0.8-0.7-4.3,0.8-3.4,3.2c1.1,1.7,2.6,3.1,4.4,4c0.4,1.7,0.2,3.5-0.5,5.1
				c-1.3,2.6-1.9,4.3-3.9,4.4c-2,0.1-8.1,0.5-9.9-2c-3.1-4.5-5.6-9.5-7.3-14.7C-4178.3,661.8-4178.7,659.1-4174.7,657.8z"/>
			<animateTransform  accumulate="none" additive="sum" attributeName="transform" begin="0s" calcMode="linear" dur="3s" fill="remove" keyTimes="0; 0.5; 1" repeatCount="indefinite" restart="always" type="rotate" values="5 -4161 688; -2 -4161 688; 5 -4161 688"/>
		</g>
		<path id="패스_252" class="st20" d="M-4206.4,720.6l-4,4.7c0,0-2.1,2.3,0,7.1s13.2,41.8,15.5,42.7s3.4,1.5,3.4,1.5
			s2.9-34.5,2.9-35v-10.4L-4206.4,720.6z"/>
		<path id="패스_250" class="st22" d="M-4182.3,690.5l-19.8,20.1c0,0-4,2.9-4.7,5.4s-3,4.9,0,9.1c3,4.1,8.9,12.9,12,13.2
			c2.8,0,5.6-0.4,8.4-1.1L-4182.3,690.5z"/>
		<path id="패스_257" class="st23" d="M-4190.2,905.6l-2.1,2.9v8.9c0,0,3.8,4.7,7.9,3.2c4.1-1.4,14.8-10,15.4-12.1
			c0.5-2.1,1.1-6.4-1.3-7.7c-2.3-1.2-9.6,1.4-13,2.7S-4190.2,905.6-4190.2,905.6z"/>
		<path id="패스_258" class="st23" d="M-4159.5,916.3c0,0-2.2,1.2-2.7,2.3c-0.5,1.1-0.7,8.9-0.7,8.9s0.7,3.2,7.3,2.9
			c7.4-1,13-2.2,19.5-5.7c2.9-2,5.2-3.2,5-6.1c-0.2-2.9-1.4-4.5-6.6-3.6c-5.2,0.9-17.9,1.3-17.9,1.3L-4159.5,916.3z"/>
		<path id="패스_255" class="st20" d="M-4190.2,895.6v14.5c1,1.7,2.7,2.8,4.7,3c3.2,0.4,5.9-1.6,5.5-3s0-16.3,0-16.3
			L-4190.2,895.6z"/>
		<path id="패스_256" class="st20" d="M-4159.5,907.6v11.3c0.1,1.2,0.6,2.4,1.5,3.3c0.8,0.8,5.3,1.2,6.5,0.4
			c1.4-0.9,1.5-0.9,2.1-3.7c0.4-4,0.4-8.1,0-12.1L-4159.5,907.6z"/>
		<path id="패스_254" class="st6" d="M-4188.5,787.3c0,0,0.4,18.6,1.5,22.1c1.2,3.5,0.7,20.4,0,23.5c-0.7,3-5.6,14.6-5.1,24.9
			c0.5,10.2-0.2,39.5,1.6,40.9c1.9,1.4,12.8,3.5,13.7-2.6c0.9-6,6.7-42.5,6.5-44.8c-0.2-2.3,4.9-18.8,4.4-23.9
			c-0.5-5.1,0.2-9.8,1.9-9.8c1.6,0,3.5,22.5,3.3,23.5c-2.7,7.3-3.8,15.2-3.3,23c1.2,12.1,0,41.6,3.3,44.1c3.3,2.6,12.5,4.2,13.9,0
			c1.4-4.2,5.1-53.2,5.1-53.2s6.5-59.9,5.3-63.6S-4188.5,787.3-4188.5,787.3z"/>
		<path id="패스_249" class="st23" d="M-4173.9,686.9c-4.7,0.4-8-1.1-10.3,6.5c-2,7.2-3.5,14.6-4.5,22c-0.4,3.2-4.1,50.9-4.1,56.3
			c-0.3,4.3-1.2,8.6-2.7,12.6c0,0,1,4.9,15.5,7c14.6,2.1,30.6,3.3,34.5,2.2c3.8-1.1,15,0.4,14.7-4.7c-0.3-5.1,0.8-43.3,0.8-43.3
			s4.1,3.6,7.6,1s8.1-7.4,8.1-8.4c0-1,2.5-3-3.3-11.1s-17.5-27.1-17.5-27.1c-3-2.8-6.5-4.7-10.4-5.8
			C-4151.8,692.7-4169.3,686.5-4173.9,686.9z"/>
		<path id="패스_248" class="st6" d="M-4167.4,684.5c-0.3-0.4-3.4,0.1-3.8,0.6c-0.2,1.3-0.3,2.7-0.2,4c1.6,2.1,3.8,3.5,6.3,4.1
			c3.7,0.3,7.4,0.2,11.1-0.3c0.3,0,2.6-1.2,2.3-1.8c-0.3-0.5-1.1-2.2-2.3-2c-3.4,0-6.8-0.6-10.1-1.6
			C-4165.3,686.7-4166.5,685.6-4167.4,684.5z"/>
		<path id="교차_4" class="st22" d="M-4147.1,765.6c0,0-0.3-37.1,0.5-37s7,8,7.4,8.2c0.4,0.3,9.2,8.7,9.2,8.7l0.1,0.2
			c-0.2-0.1-0.2-0.2-0.2-0.2s-1.1,38.2-0.8,43.3c0.3,5.1-10.9,3.6-14.7,4.7c-0.7,0.2-1.5,0.3-2.2,0.3L-4147.1,765.6z"/>
	</g>
</g>
</svg>
