<?xml version="1.0" encoding="utf-8"?>
<!-- Generator: Adobe Illustrator 26.0.1, SVG Export Plug-In . SVG Version: 6.00 Build 0)  -->
<svg version="1.1" id="Layer_1" xmlns="http://www.w3.org/2000/svg" xmlns:xlink="http://www.w3.org/1999/xlink" x="0px" y="0px"
	 viewBox="0 0 687.1 567.4" style="enable-background:new 0 0 687.1 567.4;" xml:space="preserve">
<style type="text/css">
	.st0{fill:#E7F2FB;}
	.st1{fill:none;}
	.st2{fill:#C3DDF3;}
	.st3{fill:#F7A19C;}
	.st4{fill:#4C67B0;}
	.st5{fill:#BDC9E7;}
	.st6{fill:#4864AE;}
	.st7{fill:#2E3790;}
	.st8{fill:#FFFFFF;}
	.st9{fill:#F7A19F;}
	.st10{fill:#F26C73;}
	.st11{fill:#F1A29A;}
	.st12{fill:#F9A053;}
	.st13{fill:#FFC855;}
	.st14{fill:#313A97;}
	.st15{fill:#F69D97;}
	.st16{fill:#4C64AE;}
	.st17{fill:#4D65AF;}
	.st18{fill:#2C3891;}
	.st19{fill:#F06871;}
	.st20{fill:#CE3A5E;}
	.st21{fill:#F15F6B;}
	.st22{fill:none;stroke:#2F338E;stroke-width:2;}
	.st23{fill:#ABBDE1;}
	.st24{fill:#1A8A80;}
	.st25{fill:#44B3AC;}
</style>
<path id="bg" class="st0" d="M25.3,206.3C75.5,105.8,183.4-20.5,353.7,2.8c232.9,35.5,308.9,96.8,330.9,277S576.8,577.6,455.4,558
	S220.1,430.6,157.6,430.6S-42.2,326.4,25.3,206.3z"/>
<g id="setting02" transform="translate(1339.591 286.596) rotate(19)">
	<path id="패스_67" class="st1" d="M-1125.5,96.7l171.1,0l0,171.1l-171.1,0V96.7z"/>
	<path id="패스_68" class="st2" d="M-989.1,188.9c0.3-2.2,0.4-4.5,0.4-6.7c0-2.2-0.2-4.5-0.5-6.7l14.5-11.3
		c1.3-1.1,1.6-2.9,0.9-4.3l-13.7-23.7c-0.8-1.5-2.6-2.1-4.2-1.6l-17,6.8c-3.5-2.7-7.4-5-11.5-6.7l-2.6-18.1
		c-0.3-1.7-1.7-2.9-3.4-2.9l-27.4,0c-1.7,0-3.1,1.2-3.3,2.9l-2.6,18.1c-4.1,1.7-8,4-11.5,6.7l-17-6.8c-1.6-0.6-3.4,0.1-4.2,1.6
		l-13.6,23.7c-0.9,1.4-0.5,3.4,0.9,4.3l14.5,11.3c-0.8,4.4-0.9,9-0.1,13.4l-14.5,11.3c-1.3,1.1-1.6,2.9-0.9,4.3l13.7,23.7
		c0.8,1.5,2.6,2.1,4.2,1.6l17-6.8c3.5,2.7,7.4,5,11.5,6.7l2.6,18.1c0.3,1.7,1.7,2.9,3.4,2.9h27.4c1.7,0,3.1-1.2,3.3-2.9l2.6-18.1
		c4.1-1.7,8-3.9,11.5-6.7l17,6.8c1.6,0.6,3.4-0.1,4.2-1.6l13.7-23.7c0.9-1.5,0.5-3.3-0.9-4.3L-989.1,188.9z M-1040,207.9
		c-14.2,0-25.7-11.5-25.7-25.7c0-14.2,11.5-25.7,25.7-25.7c14.2,0,25.7,11.5,25.7,25.7C-1014.4,196.4-1025.8,207.9-1040,207.9z"/>
	<animateTransform
		additive="sum"
		attributeName="transform"
		type="rotate"
		begin="0s"
		dur="7.2s"
		keyTimes="0; 0.5; 1"
		calcMode="paced"
		values="0 -1040 180; -360 -1040 180"
		repeatCount="indefinite"
	/>
</g>
<g id="setting01" transform="translate(1175.797 313.547) rotate(19)">
	<path id="패스_67-2" class="st1" d="M-1125.5,96.7l246.1,0l0,246.1l-246.1,0L-1125.5,96.7z"/>
	<path id="패스_68-2" class="st2" d="M-929.2,229.4c0.4-3.2,0.6-6.4,0.6-9.6c0-3.2-0.2-6.5-0.7-9.6l20.8-16.2
		c1.8-1.5,2.4-4.1,1.2-6.3l-19.7-34.1c-1.2-2.1-3.8-3.1-6-2.3l-24.5,9.8c-5.1-3.9-10.7-7.2-16.6-9.6l-3.7-26
		c-0.4-2.4-2.5-4.2-4.9-4.2l-39.4,0c-2.4,0-4.5,1.8-4.8,4.2l-3.7,26.1c-5.9,2.5-11.5,5.7-16.6,9.6l-24.5-9.8
		c-2.3-0.9-4.9,0.1-6.1,2.3l-19.6,34c-1.3,2.1-0.8,4.8,1.2,6.3l20.8,16.2c-1.2,6.4-1.2,12.9-0.2,19.3l-20.8,16.2
		c-1.8,1.5-2.4,4.1-1.2,6.3l19.7,34c1.2,2.1,3.8,3.1,6.1,2.3l24.5-9.8c5.1,3.9,10.7,7.2,16.6,9.6l3.7,26c0.4,2.4,2.5,4.2,4.9,4.2
		h39.4c2.4,0,4.5-1.8,4.8-4.2l3.7-26c6-2.4,11.5-5.7,16.6-9.6l24.5,9.8c2.3,0.9,4.9-0.1,6-2.3l19.7-34c1.3-2.1,0.7-4.8-1.2-6.3
		L-929.2,229.4z M-1002.5,256.7c-20.4,0-36.9-16.5-36.9-36.9s16.5-36.9,36.9-36.9c20.4,0,36.9,16.5,36.9,36.9
		C-965.6,240.1-982.1,256.6-1002.5,256.7z"/>
	<animateTransform
		additive="sum"
		attributeName="transform"
		type="rotate"
		begin="0s"
		dur="7.2s"
		keyTimes="0; 0.5; 1"
		calcMode="paced"
		values="0 -1002 220; 360 -1002 220"
		repeatCount="indefinite"
	/>
</g>
<g id="그룹_669" transform="translate(1467.792 357.679)">
	<path id="패스_1255" class="st3" d="M-978.6,177.2v5.1h8.5v-5.1H-978.6z"/>
	<path id="패스_1256" class="st3" d="M-1021.7,177.2v5.4h7.8c0.4,0,0.6-5.4,0.6-5.4H-1021.7z"/>
	<path id="패스_1257" class="st4" d="M-1025.9,192c0,0,0-9.5,3.8-10.1c2.9-0.3,5.8-0.3,8.6,0c0,0,4.6,5,4.5,8.5s-1.1,1.3-1.6,1.6
		S-1025.9,192-1025.9,192z"/>
	<path id="패스_1258" class="st5" d="M-1021.7,187c0,0,6.7,0.4,7.1,0s0-5.3,0-5.3h-6.2L-1021.7,187z"/>
	<path id="패스_1259" class="st5" d="M-1026.6,195.4v-3.7h18v3.7L-1026.6,195.4z"/>
	<path id="패스_1260" class="st4" d="M-984.1,192.1c0,0-0.2-11.1,4.4-11.2s14.7,0.1,17.9,4.1s2.6,7.1,2.6,7.1H-984.1z"/>
	<path id="패스_1261" class="st5" d="M-984.1,194.5h26.1v-3.2h-26.7v3.2L-984.1,194.5z"/>
	<path id="패스_1262" class="st5" d="M-976.6,180.8c0,0,3.3,6,4.3,6.1c2.3-0.2,4.5-0.5,6.7-1c-1.1-1.5-2.4-3-3.7-4.4
		C-970.2,180.7-976.6,180.8-976.6,180.8z"/>
	<path id="패스_1171" class="st6" d="M-975-40c0,0,11.5,37.2,12.3,54.9s-5.6,149-6.3,161.2c-0.2,4.2-4.4,3.2-8.7,1.6
		c-4.9-8.7-4.1-8.9-5.5-24.1c-2.1-23.3-15-135.7-15-135.7s-9.9,140.9-12,149.1c-1.2,6.9-0.6,9.4-4.5,10.7c-3.8,0.2-4.3,1.5-7.5-1.6
		c-6.4-19.3-17.4-145.5-15.9-169.3s5.5-37.8,19.8-46.8S-975-40-975-40z"/>
	<g id="girltop">
		<path id="girlhair" class="st7" d="M-1025.3-148.9c0.6-2,6.1-19.2,24.8-18.6s17.8,15.6,17.8,15.6s8.4,22.3,19.2,26.4
			s31.3,13.9,36.3,24.6s13.7,37.7-4.5,53.5s-56.5,16.8-63.7,0s-12.7-59.6-18.4-66.1S-1031.9-126.1-1025.3-148.9z"/>
		<path id="girlbody" class="st8" d="M-972.5-102.7c0-11.5-4.4-11.8-4.4-11.8c-11.6-2.3-19.8-7.5-30.9-5.6c-6.4,1.1-10.8,0.9-14.9,1
			c0,0-8.5,4.8-8.2,11.5c0.3,6.8,1.4,16,1.4,16c0.3,1.8,5.1,54.1,5.1,54.1s16.3,3.7,28.2,2.5s21.8-1,21.8-2.5s2.2-50.9,2.2-50.9
			S-972.5-91.2-972.5-102.7z"/>
		<g id="girlhead">
			<path id="패스_1162" class="st9" d="M-1014.1-156.2c-1.8,3.2-8.6,16.5-2.2,27.5c1.5,3.2,3.7,2.2,6.1,1.5c-0.4,4.2,0.9,6-4,7.7
				s13.3,15.8,17,14.9s9.8-7,9.2-13.1c-6.3-1.4-10.5-2.7-10.3-6.4s0.3-6.9,0.4-6.8c2.1-2.7,3.8-5.7,4.8-8.9c2.5-0.5,3.9-2.7,3.4-4.5
				s-5.1-4.8-5.9-1.6s-5.8,1.8-7.6,0.3S-1015.2-149.9-1014.1-156.2z"/>
			<path id="패스_1172" class="st8" d="M-1006.9-135.5c0.6-0.7-6.2,1.5-8.4,0c2.3,3.6,3.8,4,4.9,3.6S-1007.5-134.8-1006.9-135.5z"
				/>
			<path id="패스_1263" class="st10" d="M-1010.2-127.1c4.1-1,10-2.5,10.9-3.7c-2.6,3.7-6.6,6.4-11.1,7.4
				C-1010.3-123.4-1010.3-125.8-1010.2-127.1z"/>
		</g>
		<g id="girlhand">
			<path id="패스_1164" class="st11" d="M-1038.3-95.6c0,0-19.4-6.1-27.1-8.2s-6.5-1.3-4.3-8.5c2.1-7.1,20.2-60.2,21.3-62.1
				c1.2-1.9,13.3-5.7,10,1.2c-3.3,6.9-17.2,52.9-15.7,52.4c1.5-0.5,12.8,4.7,13,4.9C-1041-115.6-1038.3-95.6-1038.3-95.6z"/>
			<path id="사각형_1656" class="st12" d="M-1018.8-273.2l83.6,4.4c6.1,0.3,10.7,5.5,10.4,11.6l-4.3,82.4
				c-0.3,6.1-5.5,10.7-11.6,10.4l-83.6-4.4c-6.1-0.3-10.7-5.5-10.4-11.6l4.3-82.4C-1030.1-268.9-1024.9-273.5-1018.8-273.2z"/>
			<path id="사각형_1657" class="st13" d="M-1048.8-274.4l83.6,4.4c6.1,0.3,10.7,5.5,10.4,11.6l-4.3,82.4
				c-0.3,6.1-5.5,10.7-11.6,10.4l-83.6-4.4c-6.1-0.3-10.7-5.5-10.4-11.6l4.3-82.4C-1060.1-270.1-1054.9-274.7-1048.8-274.4z"/>
			<path id="패스_1254" class="st11" d="M-972.5-94.4c0,0,35.2-4.3,42.4-15.1s5.7-52.3,0-53.3c0.9-4.9,5.7-8.7,2.3-13.5
				s-3.4-4.1-4.1-2s-1.1,9.4-4,9.4c-1.6,0.1-3.1-0.3-4.5-1.1c0,0-1.8,4,1.1,4.7c2.9,0.7,4.7,3.8,5.2,4.5c0.5,0.7-3.6,34.4-5.2,42.3
				c-7.6,2.9-30.8,5.9-32.2,9S-972.5-94.4-972.5-94.4z"/>
			<path id="패스_1264" class="st8" d="M-971.6-250.9l-12.4-0.7l-12.1,48.2l-5.7-47.3l-15.7-0.8l-10.9,46.4l-7.9-49.3l-12.7-0.7
				l8.6,66.4l16.6,0.9l12.2-44.4l7.5,45.5l16.1,0.8L-971.6-250.9z"/>
			<path id="패스_1163_00000172402351280361607720000008283616364008858001_" class="st8" d="M-1016.2-105.9
				c2.4-6.1-5.2-13.3-5.2-13.3c-4.5,0.1-8.4,0.5-14,3c-4.9-1.7-9.9-3-15-4c0,0-5.9,11.7-3.7,21.3c4,5.4,24.5,6.5,24.6,7.3
				C-1026.8-89.5-1018.6-99.8-1016.2-105.9z"/>
			<path id="패스_1163_00000067938213278222243610000008644363359977009086_" class="st8" d="M-972.2-88.5l18.6-5.1l-2.4-22.5
				c-5.3,1.3-10.8,2.1-16.2,2.4c0,0-1.6-0.1-6.6,1.2s-7.8,3.1-6.4,11.3C-983.9-93.8-977.9-86.9-972.2-88.5z"/>
			<animateTransform
				additive="sum"
				attributeName="transform"
				type="rotate"
				begin="0s"
				dur="4.2s"
				keyTimes="0; 0.5; 1"
				calcMode="paced"
				values="0 -1020 -50; -5 -1020 -50; 0 -1020 -50;"
				repeatCount="indefinite"
			/>
		</g>
		<animateTransform
			additive="sum"
			attributeName="transform"
			type="rotate"
			begin="0s"
			dur="4.2s"
			keyTimes="0; 0.5; 1"
			calcMode="paced"
			values="0 -1020 -50; -5 -1020 -50; 0 -1020 -50;"
			repeatCount="indefinite"
		/>
	</g>
</g>
<g id="그룹_670" transform="translate(1245.248 448.773)">
	<path id="패스_1266" class="st14" d="M-1089,95.4v6.9h18c0,0,0.9-0.7,0.8-3.2c-0.1-1.5-0.9-2.9-2.1-3.7L-1089,95.4z"/>
	<path id="패스_1267" class="st5" d="M-1095.2,102.3c0,0-0.2-7.9,6.5-7.2c-0.1,0.1,0,7.2,0,7.2H-1095.2z"/>
	<path id="패스_1268" class="st15" d="M-1079.1,96.4l0.8-4.7h7.3l-1.4,5.2c-1.3,0.5-2.6,0.8-3.9,0.7
		C-1077.3,97.6-1078.3,97.2-1079.1,96.4z"/>
	<path id="패스_1269" class="st16" d="M-1095.7,102.3v1.8h25.1v-1.8H-1095.7z"/>
	<path id="패스_1265" class="st17" d="M-1080.3,92.6h10.6c0,0,60.5-178.4,63.6-177.9s28.2,177.2,28.7,178.8c0.5,1.6,8,1.3,8.8,0
		c0.8-1.3,16.3-206.5,3.4-228.2c-23.8-1-54.9,4.9-69.6-1.3c-12.7,18.5-26.8,108-26.8,108L-1080.3,92.6z"/>
	<path id="패스_1270" class="st5" d="M-967.1,102.7c0,0,1.1-6.7,5.8-6.5s5.8,3.3,5.9,6.5H-967.1z"/>
	<path id="패스_1272" class="st15" d="M-976.1,91.9l-0.6,6.1c0,0,7.8,0,7.8-0.5s-0.5-5.7-0.5-5.7H-976.1z"/>
	<path id="패스_1271" class="st14" d="M-976.7,96.2c-1.2,1.3-1.6,5.3-0.7,6.2c2.7,0.2,16.2,0.2,16.2,0.2v-6.4c0,0-6.9,0-7.8,0
		C-969.8,96.2-974.5,99.3-976.7,96.2z"/>
	<path id="패스_1273" class="st16" d="M-978,102.3c0,0-0.2,2,0,2c0.1,0.1,24.2,0,24.2,0v-2H-978z"/>
	<g id="mantop">
		<g id="head">
			<path id="패스_1275" class="st18" d="M-1008.2-245.1c0,0,10.1-4.9,12.6-9.9c2.6-5,4-3.9,5-7.5s-0.8-14.3-3.2-12.1
				s-7.3,6.6-11.3,6.7s-15.8,4.5-13.8,10c-3.5,5.1,0.5,21.3,3.8,18.3S-1008.2-245.1-1008.2-245.1z"/>
			<path id="패스_1276_00000166667962547307777320000009167964690583945914_" class="st15" d="M-996.5-225v-8.8
				c0,0,5.1-2.8,5.1-10.4s-3.3-14.3-4.8-14.2c-2.6,9-15,8.7-15,8.7s-3.7-3.7-5.5-1.8s-1.7,6.2,0,7.3s3.8,2.2,4.4,8.1
				c0.6,5.9,1.1,13.9,1.1,13.9s0.6,4.6,8.4,2.1S-996.5-225-996.5-225z"/>
			<path id="패스_1279" class="st19" d="M-996.5-233.8c-5.7,2-11.9-0.3-15-5.5c2.4,9.8,15,11.4,15,11.4V-233.8z"/>
			<path id="패스_1280" class="st8" d="M-1004.3-239.3c0,0,8.7-1.4,9.2-2.6c-0.5,2.9,0.2,5-3.1,5.2S-1004.3-239.3-1004.3-239.3z"
				/>
			<animateTransform
				additive="sum"
				attributeName="transform"
				type="rotate"
				begin="0s"
				dur="4.2s"
				keyTimes="0; 0.5; 1"
				calcMode="paced"
				values="0 -1000 -210; 5 -1000 -210; 0 -1000 -210;"
				repeatCount="indefinite"
			/>
		</g>
		<g id="body">
			<path id="패스_1278_00000126297506430357846220000001556278370483111845_" class="st8" d="M-1024.5-219.3c6,0,5.7-1.4,7-1.1
				s29.4-4,29.5-3.1l28.1,8.2l-5.8,83.4c0,0-68.6,1.4-69-4s0-54,0-54S-1034.8-217.3-1024.5-219.3"/>
			<path id="패스_1276_00000032621868380402482100000004958840866511795092_" class="st15" d="M-1011.2-222.2l-7,2.2
				c0,0,7,6.6,14.1,4.4s15.6,0,15.9-8.1c-6.6-0.9-8.4-1.3-8.4-1.3C-1000.5-225.6-1011.2-222.2-1011.2-222.2z"/>
		</g>
		<g id="manarm">
			<path id="사각형_1655" class="st20" d="M-965-215.6l81.2,20.2c5.9,1.5,9.5,7.4,8,13.3l-20,80c-1.5,5.9-7.4,9.5-13.3,8
				l-81.2-20.2c-5.9-1.5-9.5-7.4-8-13.3l20-80C-976.9-213.5-970.9-217.1-965-215.6z"/>
			<path id="사각형_1654" class="st21" d="M-994-223.7l81.2,20.2c5.9,1.5,9.5,7.4,8,13.3l-20,80c-1.5,5.9-7.4,9.5-13.3,8
				l-81.2-20.2c-5.9-1.5-9.5-7.4-8-13.3l20-80C-1005.9-221.6-999.9-225.2-994-223.7z"/>
			<g>
				<path id="패스_1278_00000127743784300407403910000005939909788802197914_" class="st8" d="M-1033.7-188.6c0,0-5.6,3.8-7.1,3.2
					s-12.8-17.2-12.8-17.2s23-16.7,29-16.7c0,0,9.3,2.8,6.4,13.8S-1033.7-188.6-1033.7-188.6z"/>
				<path id="패스_1277" class="st15" d="M-1053.4-202l-11.1,10.9c0,0-7.2,6.2,2.1,20.2c9.3,14,35.2,33.9,36.5,33.9
					c0.2,3.1,4.2,10.6,8,9.8c3.8-0.8,9.6-2.1,7.8-4.7c-1.8-2.6-6-3.4-6.1-5.1c-0.2-1.7,2.5,1.9,4,1.2c1.5-0.6,0.3-3.5-0.8-4.1
					c-1.1-0.6-7.7-0.8-9.6-3.5c-1.5-3.5-21-32.1-27.4-34.1c7.3-2.9,9.3-8.6,9.3-8.6L-1053.4-202z"/>
			</g>
			<path id="패스_1253" class="st8" d="M-939.2-190.9l-2.7,12.8l-25.7-6l-3,12.8l23.2,5.5l-3,13.1l-23.5-6.3l-3.3,13.1l24.9,7.1
				l-3.3,12.6l-39.6-10.7l15.9-63.4L-939.2-190.9z"/>
			<animateTransform
				additive="sum"
				attributeName="transform"
				type="rotate"
				begin="0s"
				dur="4.2s"
				keyTimes="0; 0.5; 1"
				calcMode="paced"
				values="0 -1020 -210; -20 -1020 -210; 0 -1020 -210;"
				repeatCount="indefinite"
			/>
		</g>
		<animateTransform
			additive="sum"
			attributeName="transform"
			type="rotate"
			begin="0s"
			dur="4.2s"
			keyTimes="0; 0.5; 1"
			calcMode="paced"
			values="0 -1000 -120; 5 -1000 -120; 0 -1000 -120;"
			repeatCount="indefinite"
		/>
	</g>
	<path id="패스_1282" class="st22" d="M-1006.7-84.3c0,0,8.6-24.4,17.5-26.6"/>
</g>
<path id="패스_1301" class="st22" d="M469.5,379c0,0,5.7-22.4,9.4-27.6"/>
<g id="planet01" transform="translate(1131.705 521.299)">
	<path id="패스_1283" class="st2" d="M-1031.4-178.5c0,0-72.9-3.2-63.4-36.7C-1075.8-243.8-1031.4-178.5-1031.4-178.5z"/>
	<path id="패스_1284" class="st2" d="M-1019.4-129.7c0,0-72.9-3.2-63.4-36.7C-1063.8-195-1019.4-129.7-1019.4-129.7z"/>
	<path id="패스_1285" class="st2" d="M-1007.6-74c0,0-72.9-3.2-63.4-36.7C-1052-139.3-1007.6-74-1007.6-74z"/>
	<path id="패스_1286" class="st2" d="M-996.8-20.5c0,0-72.9,3.2-66.3-31.1C-1046.7-81.6-996.8-20.5-996.8-20.5z"/>
	<path id="패스_1287" class="st2" d="M-994.6-19.6c0,0,66.9-29.1,46.1-57C-976.5-96.4-994.6-19.6-994.6-19.6z"/>
	<path id="패스_1288" class="st2" d="M-1007.6-74.1c0,0,66.9-29.1,46.1-57C-989.5-150.9-1007.6-74.1-1007.6-74.1z"/>
	<path id="패스_1289" class="st2" d="M-1019.4-129.7c0,0,66.9-29.2,45.4-58.7C-1002.5-209.6-1019.4-129.7-1019.4-129.7z"/>
	<path id="패스_1290" class="st2" d="M-1031.4-178.6c0,0,66.9-29.2,45.4-58.7C-1014.5-258.4-1031.4-178.6-1031.4-178.6z"/>
	<path id="패스_1291" class="st2" d="M-1034.6-200.5c0,0,16.9-71-19.6-71.6C-1088.2-262.1-1034.6-200.5-1034.6-200.5z"/>
	
		<rect x="-1013" y="-207.5" transform="matrix(0.978 -0.2085 0.2085 0.978 -4.1849 -212.6986)" class="st2" width="4" height="241.9"/>
	<animateTransform
		additive="sum"
		attributeName="transform"
		type="rotate"
		begin="0s"
		dur="3.5s"
		keyTimes="0; 0.5; 1"
		calcMode="paced"
		values="0 -1000 0; -5 -1000 0; 0 -1000 0"
		repeatCount="indefinite"
	/>
</g>
<g id="planet02">
	<path id="패스_1293" class="st2" d="M519.6,500.8c0,0,23.6-14.3,30.1-46.5c6.5-32.3-13.3-49.3-14.3-49.3
		c-0.9,0-29.8,14.3-30.1,43.4S519.6,500.8,519.6,500.8z"/>
	<path class="st23" d="M506.3,567.4l-1.9-0.5c0.2-0.9,24.1-92.8,20.1-137.1l2-0.2C530.5,474.3,506.5,566.5,506.3,567.4z"/>
	
		<rect x="517" y="450.2" transform="matrix(0.9252 -0.3796 0.3796 0.9252 -137.0567 231.2858)" class="st23" width="2" height="26.2"/>
	<rect x="523" y="440.5" transform="matrix(0.7022 -0.712 0.712 0.7022 -155.6211 510.9769)" class="st23" width="20" height="2"/>
	<animateTransform
		additive="sum"
		attributeName="transform"
		type="rotate"
		begin="0s"
		dur="3.2s"
		keyTimes="0; 0.5; 1"
		calcMode="paced"
		values="0 500 550; 5 500 550; 0 500 550"
		repeatCount="indefinite"
	/>
</g>
<g id="planet03">
	<path id="패스_1299" class="st2" d="M537.7,529.6c0,0-10.9-12.1,8.1-38.5c19-26.4,35.9-18.1,35.9-18.1s5.9,23.7-10.7,39.1
		C554.5,527.7,537.7,529.6,537.7,529.6z"/>
	<path class="st23" d="M507.8,565.7l-1.4-1.4c0.5-0.5,48.3-50,53.1-67.8l1.9,0.5C556.4,515.3,509.8,563.6,507.8,565.7z"/>
	<path class="st23" d="M551.2,518.5c-0.8,0-1.6-0.1-2.3-0.3l0.6-1.9c7,2.2,17.2-10.7,17.7-12c0,0,0,0.1,0,0.2h2
		c0,1.3-4.8,7.2-9.4,10.5C556.7,517.3,553.8,518.5,551.2,518.5z"/>
	<animateTransform
		additive="sum"
		attributeName="transform"
		type="rotate"
		begin="0s"
		dur="3.2s"
		keyTimes="0; 0.5; 1"
		calcMode="paced"
		values="0 500 550; -5 500 550; 0 500 550"
		repeatCount="indefinite"
	/>
</g>
<g id="box01">
	<path id="사각형_1664" class="st24" d="M334.5,448.4l83.7-1.4c6.1-0.1,11.1,4.7,11.2,10.8l1.4,82.5c0.1,6.1-4.7,11.1-10.8,11.2
		l-83.7,1.4c-6.1,0.1-11.1-4.7-11.2-10.8l-1.4-82.5C323.5,453.5,328.4,448.5,334.5,448.4z"/>
	<path id="사각형_1665" class="st25" d="M304.9,448.8l83.7-1.4c6.1-0.1,11.1,4.8,11.2,10.8l1.4,82.8c0.1,6.1-4.7,11.1-10.8,11.2
		l-83.7,1.4c-6.1,0.1-11.1-4.8-11.2-10.8l-1.4-82.8C294,454,298.9,448.9,304.9,448.8z"/>
	<g>
		<path class="st8" d="M323.1,533.5l-0.6-67.2l25.4-0.2c14-0.1,21.2,5.9,21.3,18c0.1,7.1-3.6,12-9.7,14.1
			c7.3,1.7,11.8,7.7,11.9,15.6c0.1,12.6-6.8,19.4-21.2,19.5L323.1,533.5z M345.7,476.7l-10.6,0.1l0.1,16.8l10.6-0.1
			c7.1-0.1,11-2.1,11-8.5C356.8,478.5,352.9,476.6,345.7,476.7z M347.6,504l-12.2,0.1l0.2,18.6l12.2-0.1c7.7-0.1,11.3-2.6,11.2-9.4
			C358.9,506.5,355.2,504,347.6,504z"/>
	</g>
	<animateTransform
		additive="sum"
		attributeName="transform"
		type="translate"
		begin="0s"
		dur="3.5s"
		keyTimes="0; 0.1;0.2;0.3;0.4; 0.5;0.6;0.7;0.8;0.9;1"
		values="0 0; 0 -10; 0 0; 0 -6; 0 0; 0 -4; 0 0; 0 -2; 0 0; 0 -1; 0 0; 0 0"
		repeatCount="indefinite"
		calcMode="paced"
	/>
</g>
</svg>
