<svg xmlns="http://www.w3.org/2000/svg" xmlns:xlink="http://www.w3.org/1999/xlink" width="550.297" height="552.632" viewBox="0 0 550.297 552.632">
  <defs>
    <filter id="사각형_1641" x="45.746" y="41.577" width="430.107" height="319.382" filterUnits="userSpaceOnUse">
      <feOffset dy="3" input="SourceAlpha"/>
      <feGaussianBlur stdDeviation="6" result="blur"/>
      <feFlood flood-opacity="0.161"/>
      <feComposite operator="in" in2="blur"/>
      <feComposite in="SourceGraphic"/>
    </filter>
    <clipPath id="clip-path">
      <rect id="사각형_77" data-name="사각형 77" width="291.768" height="185.962" fill="#fff" stroke="#707070" stroke-width="1"/>
    </clipPath>
  </defs>
  <g id="그룹_592" data-name="그룹 592" transform="translate(587.057 -891.143)">
    <path id="패스_780" data-name="패스 780" d="M3099.278,573.08c-71.376-69.417-142.922-171.582-42.3-287.113s270.98-201.322,389.893-120.107,87.655,175.918,66.317,225.344,5.4,99.588,26.3,123.539,66.317,99.517-165.789,137.265C3234.2,676.029,3190.441,646.759,3099.278,573.08Z" transform="translate(-3594.253 757.251)" fill="#e5f2ff"/>
    <g id="그룹_639" data-name="그룹 639" transform="translate(-14 268)">
      <g transform="matrix(1, 0, 0, 1, -573.06, 623.14)" filter="url(#사각형_1641)">
        <rect id="사각형_1641-2" data-name="사각형 1641" width="394.107" height="283.382" rx="11" transform="translate(63.75 56.58)" fill="#fff"/>
      </g>
      <path id="패스_1214" data-name="패스 1214" d="M15.511,0H378.6a15.511,15.511,0,0,1,15.511,15.511V33.781H0V15.511A15.511,15.511,0,0,1,15.511,0Z" transform="translate(-509.311 679.72)" fill="#2183c8"/>
      <ellipse id="타원_436" data-name="타원 436" cx="7.507" cy="7.507" rx="7.507" ry="7.507" transform="translate(-188.395 689.104)" fill="#fff"/>
      <ellipse id="타원_437" data-name="타원 437" cx="7.507" cy="7.507" rx="7.507" ry="7.507" transform="translate(-165.874 689.104)" fill="#fff"/>
      <ellipse id="타원_438" data-name="타원 438" cx="7.507" cy="7.507" rx="7.507" ry="7.507" transform="translate(-143.354 689.104)" fill="#fff"/>
      <g id="패스_1219" data-name="패스 1219" transform="translate(-299.428 742.234)" fill="#c3e1f6">
        <path d="M 163.0807800292969 117.9634170532227 L 0.4999941885471344 117.9634170532227 L 0.4999941885471344 0.5000001788139343 L 163.0807800292969 0.5000001788139343 L 163.0807800292969 117.9634170532227 Z" stroke="none"/>
        <path d="M 1 1 L 1 117.4634170532227 L 162.5807800292969 117.4634170532227 L 162.5807800292969 1 L 1 1 M 0 0 L 163.5807800292969 0 L 163.5807800292969 118.4634170532227 L 0 118.4634170532227 L 0 0 Z" stroke="none" fill="#c3e1f6"/>
      </g>
      <g id="패스_1220" data-name="패스 1220" transform="translate(-483.49 742.234)" fill="#c3e1f6">
        <path d="M 163.0807800292969 117.9634170532227 L 0.4999941885471344 117.9634170532227 L 0.4999941885471344 0.5000001788139343 L 163.0807800292969 0.5000001788139343 L 163.0807800292969 117.9634170532227 Z" stroke="none"/>
        <path d="M 1 1 L 1 117.4634170532227 L 162.5807800292969 117.4634170532227 L 162.5807800292969 1 L 1 1 M 0 0 L 163.5807800292969 0 L 163.5807800292969 118.4634170532227 L 0 118.4634170532227 L 0 0 Z" stroke="none" fill="#c3e1f6"/>
      </g>
      <g id="패스_1221" data-name="패스 1221" transform="translate(-483.49 873.84)" fill="#c3e1f6">
        <path d="M 347.1425476074219 56.42416000366211 L 0.5000163316726685 56.42416000366211 L 0.5000163316726685 0.5000231266021729 L 347.1425476074219 0.5000231266021729 L 347.1425476074219 56.42416000366211 Z" stroke="none"/>
        <path d="M 1.000030517578125 0.9999771118164062 L 1.000030517578125 55.92411422729492 L 346.6425476074219 55.92411422729492 L 346.6425476074219 0.9999771118164062 L 1.000030517578125 0.9999771118164062 M 3.0517578125e-05 -2.288818359375e-05 L 347.6425476074219 -2.288818359375e-05 L 347.6425476074219 56.92411422729492 L 3.0517578125e-05 56.92411422729492 L 3.0517578125e-05 -2.288818359375e-05 Z" stroke="none" fill="#c3e1f6"/>
      </g>
    </g>
    <g id="그룹_294" data-name="그룹 294" transform="translate(-242.54 1078.737)">
      <ellipse id="타원_255" data-name="타원 255" cx="52.486" cy="26.72" rx="52.486" ry="26.72" transform="translate(54.141 311.598)" fill="#bcd5ee"/>
      <path id="패스_326" data-name="패스 326" d="M4439.931,4637.8c.772-5.619,4.457-21.707,17.444-22.676s18.218-2.715,23.454,19.577,9.11,20.741,11.242,21.71,25.976,10.271,26.167,22.677-3.1,22.293,1.55,24.62,19.772,13.375,18.608,19-9.5,21.127-21.32,23.454-38.187,3.487-40.9-1.939-16.088-18.412-19.964-27.912-11.631-37.021-11.631-42.061-.389-17.252,2.131-19.189.581-5.62-2.131-6.4S4439.156,4643.424,4439.931,4637.8Z" transform="translate(-4361.887 -4614.636)" fill="#1f3598"/>
      <path id="패스_341" data-name="패스 341" d="M4444.932,4754.149c-2.954,2.955-7.309,8.241-7.929,8.707s-3.889,3.111-4.2,4.51-2.8,5.443-.778,6.221,2.177,2.8,4.977,2.331,4.354-.312,6.375-1.4,15.083-9.95,16.482-11.038,2.178-5.131,1.866-5.6-1.4-5.754-1.866-5.908S4447.886,4751.195,4444.932,4754.149Z" transform="translate(-4363.164 -4434.874)" fill="#1f3598"/>
      <path id="패스_342" data-name="패스 342" d="M4458.031,4754.132c0,4.2-.778,5.754-1.088,6.533s.311,7.463,1.088,9.018,3.579,9.951,4.977,10.572,3.11,2.645,5.6,1.866,5.91-2.955,5.754-4.664-1.089-10.884-2.333-14.306-4.509-8.553-5.753-9.019S4458.031,4749.933,4458.031,4754.132Z" transform="translate(-4337.286 -4435.608)" fill="#1f3598"/>
      <path id="패스_339" data-name="패스 339" d="M4438,4713.037s1.088,32.149,1.088,32.678,4.665,50.769,4.821,51.823-1.553,4.742-2.33,5.794-5.91,7.908-5.288,8.962,1.087,1.756,2.8,1.4,11.821-5.623,12.131-6.5,1.864-2.111,1.552-3.868,1.09-10.363,1.09-12.471,3.577-26.526,4.043-28.635,2.643-29.691-1.246-40.579S4438,4713.037,4438,4713.037Z" transform="translate(-4358.412 -4483.551)" fill="#f1a29a"/>
      <path id="패스_340" data-name="패스 340" d="M4452.359,4718.967c-.313,3.146-.311,24.284,1.4,28.825s9.328,42.629,9.328,44.2-.311,9.435,0,12.054,4.512,13.629,5.443,14.327,5.133,1.4,6.065,0,.311-1.746,0-6.115-1.091-11.182-1.244-14.5,1.4-33.211,1.244-36.53-2.02-24.094-3.109-28.289-.934-19.215-.934-19.215S4452.669,4715.821,4452.359,4718.967Z" transform="translate(-4343.225 -4482.708)" fill="#f1a29a"/>
      <path id="패스_338" data-name="패스 338" d="M4438.268,4680.682l-2.322,10.621s1.244,72.4.935,74.784-.936,12.787,0,14.521,17.88,13.657,24.723,13.874,29.077-1.514,31.253-8.891,1.868-12.785,1.4-13.435-3.11-14.306-2.8-19.075,1.713-52.244,1.4-56.357-2.332-22.763-5.751-22.763-37.941,11.705-39.5,11.705S4438.268,4680.682,4438.268,4680.682Z" transform="translate(-4361.994 -4546.999)" fill="#4263c0"/>
      <path id="교차_7" data-name="교차 7" d="M5.249,72.369C6.136,67.04,7.47,56.823,7.914,50.608s3.108-32.422,0-33.755C6.128,16.089,3.905,8.889,2.335,2.891,9.435,1.308,15.629,0,16.979,0,20.4,0,22.42,13.372,22.731,16.326s-1.087,37.009-1.4,40.428,2.334,13.218,2.8,13.685.778,4.354-1.4,9.64C21.159,83.9,9.14,85.605,0,86.2,2.341,80.968,4.8,75.045,5.249,72.369Z" transform="translate(108.132 126.964)" fill="none"/>
      <path id="패스_330" data-name="패스 330" d="M4398.111,4629.255s2.955-2.644,5.287-2.021,8.708,4.2,9.33,4.662,3.267,3.578,2.955,4.354-3.422,5.289-4.82,5.444-8.24-.157-9.487-.935-3.885-3.73-4.353-5.286S4398.111,4629.255,4398.111,4629.255Z" transform="translate(-4396.936 -4592.691)" fill="#f1a29a"/>
      <path id="패스_329" data-name="패스 329" d="M4408.736,4631.177c-1.4-.156-4.664,1.711-4.664,2.644s1.554,5.286,2.489,6.219,16.171,23.169,23.013,24.1,13.684,1.086,19.125,0,18.35-1.865,18.35-1.865l-2.178,50.068s-.154,9.485,5.754,11.352,18.039,6.53,25.657,4.819,21.924-11.039,22.235-15.082a20.565,20.565,0,0,0-.778-7.309s13.685-2.175,14.929-7.152-.313-21.459-2.178-25.813-9.642-30.009-11.04-30.165-15.705-7.775-18.037-7.62-24.1-2.331-31.566,1.867-29.076,15.7-31.876,15.239S4410.137,4631.333,4408.736,4631.177Z" transform="translate(-4392.318 -4587.715)" fill="#fff"/>
      <path id="패스_327" data-name="패스 327" d="M4444.694,4622.422c2.908-1.357,6.787-4.46,12.405-3.877s5.885,3.126,7.173,5.9,0,10,0,10,6.4-2.134,6.786,1.161,0,6.4-1.939,6.59a36.436,36.436,0,0,1-4.847,0v13.981l1.164,1.72-12.295,6.9-4.224-6.482,2.863-1.831.281-3.818v-3.877c-.582,0-3.1,1.551-4.846,1.357s-6.009-4.261-6.009-9.5S4441.786,4623.778,4444.694,4622.422Z" transform="translate(-4359.869 -4609.14)" fill="#f1a29a"/>
      <path id="패스_331" data-name="패스 331" d="M4442.861,4633.379l-.393,8.193s-.468,4.019,0,4.019,4.81-2.764,4.965-3.389a5.157,5.157,0,0,0-.868-2.993,13.628,13.628,0,0,1-.393-3.938,9.407,9.407,0,0,0-.193-3.074l-2.406-.34Z" transform="translate(-4354.038 -4586.128)" fill="#4263c0"/>
      <path id="패스_334" data-name="패스 334" d="M4463.669,4655.635l-9.953,11.041a11.529,11.529,0,0,0,1.4,2.8,8.389,8.389,0,0,0,1.244.622,56.514,56.514,0,0,1,7.308-1.244c1.865,0,2.486-1.089,2.175-1.555S4463.669,4655.635,4463.669,4655.635Z" transform="translate(-4345.089 -4564.436)" fill="#cfd6e9"/>
      <path id="패스_335" data-name="패스 335" d="M4463.152,4669.023s1.363,4.042,1.207,5.6a36.485,36.485,0,0,1-3.576,8.863,50.561,50.561,0,0,1-7.309,6.22,15.3,15.3,0,0,0-3.265,3.111s7.62-.932,8.863-1.709,7.616-5.135,8.552-5.754,6.842-5.44,6.842-5.44l1.087-1.869s-.778-8.085-1.71-8.239S4463.152,4669.023,4463.152,4669.023Z" transform="translate(-4348.425 -4551.701)" fill="#cfd6e9"/>
      <path id="패스_332" data-name="패스 332" d="M4455.955,4631.657c-1.556,1.09-5.131,5.754-5.131,5.754l-4.2,3.421a6.908,6.908,0,0,0,1.679,2.9l2.521,2.441,7.773-6.892s3.266-2.021,2.8-3.265S4457.51,4630.568,4455.955,4631.657Z" transform="translate(-4353.173 -4585.244)" fill="#4263c0"/>
      <path id="패스_333" data-name="패스 333" d="M4460.147,4653.811c-1.4.621-1.086,15.7,0,16.016s5.131,1.088,4.977,0S4461.548,4653.188,4460.147,4653.811Z" transform="translate(-4339.859 -4566.188)" fill="none"/>
      <path id="패스_337" data-name="패스 337" d="M4421.363,4648.7c-1.243,1.556,1.4,9.02,2.179,10.263s13.061,31.41,13.061,31.41,6.687,6.062,8.242,6.375,16.792,1.866,16.792,1.866l7.152,1.244s7.309.622,6.531-1.866-9.33-23.792-9.484-24.414-4.822-12.594-5.289-13.215-4.2-6.687-9.174-7.62S4422.608,4647.142,4421.363,4648.7Z" transform="translate(-4376.179 -4571.336)" fill="#1f3598"/>
      <path id="교차_9" data-name="교차 9" d="M25.5,31.506C18.661,30.572,3.421,8.337,2.489,7.4S0,2.118,0,1.184C0,.861.394.425.966,0c.741,1.093,4.811,7.082,5.6,7.874.872.872,12.8,19.873,17.544,20.26s12.506,1.067,17.546,0,21.521-2.907,21.521-2.907l-.5,4.432c-1.944.122-13.1.855-18.056,1.847a44.807,44.807,0,0,1-8.668.758A78.3,78.3,0,0,1,25.5,31.506Z" transform="translate(11.754 44.923)" fill="#cfd6e9"/>
      <path id="패스_416" data-name="패스 416" d="M8.649.025C8.1-.264,3.126,2.042.641,2.328S3.58,5.21,5.388,4.921,9.2.312,8.649.025Z" transform="matrix(0.966, 0.259, -0.259, 0.966, 84.641, 30.139)" fill="#fff"/>
      <path id="패스_336" data-name="패스 336" d="M4453.622,4663.6a7.039,7.039,0,0,1,2.645,3.732,9.243,9.243,0,0,1,0,4.2,1.117,1.117,0,0,0,0,1.088s-10.884.932-12.439.623-3.422.932-3.888-1.711-1.246-4.821,0-5.6,1.554-1.71,4.82-1.555,7.464-.155,8.085,0S4453.622,4663.6,4453.622,4663.6Z" transform="translate(-4358.833 -4556.854)" fill="#fe835a"/>
    </g>
    <line id="선_87" data-name="선 87" x2="392.231" transform="translate(-505.588 964.809)" fill="none"/>
  </g>
</svg>
