<?xml version="1.0" encoding="utf-8"?>
<!-- Generator: Adobe Illustrator 26.0.1, SVG Export Plug-In . SVG Version: 6.00 Build 0)  -->
<svg version="1.1" id="Layer_1" xmlns="http://www.w3.org/2000/svg" xmlns:xlink="http://www.w3.org/1999/xlink" x="0px" y="0px"
	 viewBox="0 0 594.2 460.7" style="enable-background:new 0 0 594.2 460.7;" xml:space="preserve">
<style type="text/css">
	.st0{fill:#E5F2FF;}
	.st1{fill:#BACBFF;}
	.st2{fill:#2E3393;}
	.st3{fill:#ED6971;}
	.st4{fill:#2F3194;}
	.st5{fill:#4A61C0;}
	.st6{fill:#D3D4F8;}
	.st7{fill:#2183C8;}
	.st8{fill:none;}
	.st9{fill:#CFD6E9;}
	.st10{fill:#FC9C98;}
	.st11{fill:#FFFFFF;}
	.st12{fill:#4462CC;}
	.st13{fill:#4366CF;}
	.st14{fill:#F69FA1;}
	.st15{fill:#F7A19C;}
	.st16{fill:#EA7173;}
	.st17{fill:#D4D5F7;}
	.st18{fill:#1163AF;}
</style>
<path id="bg" class="st0" d="M12.9,458.1c0,0-35.9-64.9,12.2-129.7s21.8-88.5,20.5-101.9s-16.7-91.7,84.6-123.1s234-81.4,285.3-5.8
	s79.5,79.5,92.3,98.7s5.1,98.1-28.2,112.8s50.6,24.4,59,34.6c21.8-1.9,100,110,21.2,114.3S12.9,458.1,12.9,458.1z"/>
<g id="innerfoot">
	<path id="패스_1193" class="st1" d="M402.4,455.1v3c0,0,14.4,0.5,15.1,0.3s14.9-13.8,14.9-13.8s-1.7-3-2.6-2.8s-2,2.2-2,2.2
		l-17,9.1L402.4,455.1z"/>
	<path id="패스_1192" class="st2" d="M403.5,455.1c0,0-0.3-10.2,9.6-8.4c2.2-2,4.4-4.2,6.4-6.5c0,0,4.4-5,7.2-2.7s4.1,4.1,2.4,5.9
		s-10.4,11-13.5,11.7S403.5,455.1,403.5,455.1z"/>
	<path id="패스_1191" class="st3" d="M416.2,435l2.7,6.2c0,0,2.7,1.3,4.3,0c1-0.9,1.6-2.2,1.8-3.6l-3.6-5.6L416.2,435z"/>
	<path id="패스_1199" class="st4" d="M352.7,356.5l60,81.1c0,0,8.7-0.8,9-5.4s-43.5-102.5-43.5-102.5l-26.9,8.3L352.7,356.5z"/>
</g>
<g id="pc">
	<rect id="사각형_1632" x="290.9" y="255.3" class="st5" width="65" height="5.8"/>
	<path id="패스_1222" class="st5" d="M254,208.8l3.8-2.7l37.5,53.5l-4.3,1.6L254,208.8z"/>
</g>
<g id="chair">
	<rect id="사각형_1638" x="462.8" y="344.7" class="st6" width="15.1" height="3.5"/>
	<rect id="사각형_1634" x="367.6" y="337.7" class="st7" width="97.5" height="9.3"/>
	<path id="패스_1223" class="st6" d="M455.3,347l3.6,0l9.9,113.3l-3.5,0.3L455.3,347z"/>
	<path id="패스_1224" class="st6" d="M365.5,460.7l-3.5-0.3l9.9-113.3l3.7,0L365.5,460.7z"/>
	
		<rect id="사각형_1639" x="453.5" y="320.3" transform="matrix(0.1219 -0.9925 0.9925 0.1219 101.4915 758.8156)" class="st6" width="52.2" height="3.5"/>
	
		<rect id="사각형_1637" x="447.1" y="269.2" transform="matrix(0.1392 -0.9903 0.9903 0.1392 145.2651 712.5668)" class="st7" width="70.8" height="7"/>
</g>
<path id="패스_1194" class="st8" d="M322.4,447.7v3.4c0,0,2,1,1.9,0.8s0-4.2,0-4.2"/>
<path id="패스_1195" class="st8" d="M325.6,447.7l0.3,4.3h2l-0.4-4.3H325.6z"/>
<path id="패스_1196" class="st8" d="M416.2,443.8l2,2.3l0.8-0.7l-2.2-2.5L416.2,443.8z"/>
<path id="패스_1197" class="st8" d="M413.9,446l2.2,2.5c0,0,0.9-0.8,0.8-0.9s-2.1-2.7-2.1-2.7L413.9,446z"/>
<g id="rhand">
	<path id="패스_1203" class="st9" d="M385.8,233.2c2.1-7.9,5.4-28.3,10-29s12.7,42.1,12.7,42.1l-63.1,11.5c0,0-23.9-0.6-23.5-2.5
		s0.2-6.9,3.5-7.9S376.8,229.3,385.8,233.2z"/>
	<path id="패스_1200" class="st10" d="M299.5,245.4c-2.7,3-2.2,7.4,1.5,5.9s7.1-4.2,10.8-2.5s1.5,1.6,0.5,2.5s-8,5-3.6,4.6
		s13.5,1.3,15-1.3s1.2-7.3,1.2-7.3s-8.1-9-13.1-8.1S302.2,242.4,299.5,245.4z"/>
	<animateTransform
		additive="sum"
		attributeName="transform"
		type="rotate"
		begin="0s"
		dur="2s"
		keyTimes="0; 0.5; 1"
		calcMode="paced"
		values="8 430 200; 0 430 200; 8 430 200"
		repeatCount="indefinite"
	/>
</g>
<path id="body" class="st11" d="M400.4,239.1c-3.7-5.1-8.3-24.2-6.3-34.9s6.9-22.1,12.5-26.7s7.1-7.7,15-4s27.9,16.9,34.8,43.3
	s19.8,53.3,18.3,57.7s-47.5,7.1-48.9,6.7s-16.7-10.8-16.7-10.8l-1.3-8.7L400.4,239.1z"/>
<path id="패스_1198_00000182493167075115389920000005718479736697599144_" class="st12" d="M341.3,321.8
	c-4.8-11.7,1.8-25.7,1.8-25.7c29.2-5.2,65.4-8.5,65.4-8.5l1.3-17.7c0,0,8.8,6.7,27.1,6.5s35-2.3,36.5-3.7s8.7,31.2-5.4,47.3
	s-15.2,18.3-23.7,18.7s-83.3,0-83.3,0S346.1,333.5,341.3,321.8z"/>
<g id="foot">
	<path id="패스_1188" class="st13" d="M310.5,455.9c0-0.6-0.7-8.3,11.7-8.1s8.7,0,8.7,0s10.9,0,10.4,4.4s-0.6,3.8-1,3.7
		S310.5,455.9,310.5,455.9z"/>
	<path id="패스_1189" class="st1" d="M309.8,458.2v-3.1h31.3v3.1H309.8z"/>
	<path id="패스_1190" class="st14" d="M330.5,441.8v7.5c0,0-0.3,2.1,3.3,2.1s4.9-2.1,4.9-2.1V440L330.5,441.8z"/>
	<path id="패스_1198_00000093884625500072574900000007380841375484637338_" class="st12" d="M361.2,338.8
		c-5.2,9.4-21,104.1-21,104.1s-8.8,1.3-10.4-2.1s-5.5-106-5.5-106s-10.4-33.5,18.8-38.7c0,0,16.9-1.9,17.9,6.3
		C362,310.5,366.4,329.3,361.2,338.8z"/>
	<animateTransform
		additive="sum"
		attributeName="transform"
		type="rotate"
		begin="0s"
		dur="2.5s"
		keyTimes="0; 0.5; 1"
		calcMode="paced"
		values="0 340 300; 20 340 300; 0 340 300"
		repeatCount="indefinite"
	/>
</g>
<g id="head">
	<path id="패스_1207" class="st2" d="M380.3,142.5c-0.3-3.5-4.3-7.6,1.1-11.1s13.8,1.6,16.5,5.4s8.3,0.2,10.4,0s12.4,3.1,10.2,10
		s-7.3,13.8-8.8,13.8s-9.1,6-11,3.7s-13.5-15.9-13.5-15.9S380.7,146,380.3,142.5z"/>
	<path id="패스_1205" class="st15" d="M385.9,146.4c-1.9,1-4.8,4.4-4.8,10.4s5.8,18.9,12.5,16c2.7,5.6,6.2,10.3,6.2,10.3
		s3.1,0.8,7.5-3.4c4.4-4.2,3.1-6.6,3.1-6.6l-5-7.8c0,0,4.6-3.3,4.4-5.8s-3.7-8.1-5.4-4.2s-2.3,7.5-3.1,5.8s-3.3-8.3-1.7-11.2
		C393.7,152,385.7,148.7,385.9,146.4z"/>
	<path id="패스_1206" class="st16" d="M393.6,172.8c0,0,8.5-0.6,11.6-7c-0.4,4-9.1,11.6-9.3,11.2L393.6,172.8z"/>
	<path id="패스_1204" class="st9" d="M398.7,190.1c0.2-0.6-2.5-9.2-1.5-10s7.1-6.2,9.2-8.5s3.1-3.3,6-1s1.7,4.2,1.7,4.2
		L398.7,190.1z"/>
	<animateTransform
		additive="sum"
		attributeName="transform"
		type="rotate"
		begin="0s"
		dur="2s"
		keyTimes="0; 0.5; 1"
		calcMode="paced"
		values="0 420 180; -15 420 180; 0 420 180"
		repeatCount="indefinite"
	/>
</g>
<g id="lhand">
	<path id="패스_1202_00000124843253003758243100000007885004806349764276_" class="st11" d="M404,217.1
		c4.3-11.2,35.2-10.8,35.2-10.8s-1.3-3.9,0.7,7.3c1.9,11.2,1.7,29.2-0.6,35.4s-31.6,12.6-31.6,12.6s-27.9,1-29.8,0s-36-1.9-35.4-3.8
		s-2.3-11.9,1-11.7s50-8.8,56.9-7C400.4,239.1,399.7,228.2,404,217.1z"/>
	<path id="패스_1201" class="st10" d="M344.2,247.6c0,0,0.8,10.8-3.5,10.4s-15.8,2.3-16,0s6.3-6.3,11-7.5
		C338.7,249.7,341.5,248.8,344.2,247.6z"/>
	<path class="st9" d="M407.3,262.8v-2c7,0,25-6.6,30.4-13.1c4.4-5.3,2.6-31.7,1.5-41.5l2-0.2c0.2,1.5,3.8,36-2,43
		C433.4,256.1,415,262.8,407.3,262.8z"/>
	<path class="st9" d="M418.8,241.8c-0.1,0-13.3-2.3-18.9-1.9l-0.1-2c5.8-0.4,18.8,1.8,19.4,1.9L418.8,241.8z"/>
	<animateTransform
		additive="sum"
		attributeName="transform"
		type="rotate"
		begin="0s"
		dur="2s"
		keyTimes="0; 0.5; 1"
		calcMode="paced"
		values="0 430 200; 10 430 200; 0 430 200"
		repeatCount="indefinite"
	/>
</g>
<g id="desk">
	<rect id="사각형_1629" x="187.6" y="266.9" class="st17" width="193.9" height="5.8"/>
	<rect id="사각형_1628" x="174.8" y="261.1" class="st7" width="218.3" height="7"/>
	
		<rect id="사각형_1630" x="109" y="361.8" transform="matrix(0.1219 -0.9925 0.9925 0.1219 -182.6615 522.8713)" class="st6" width="190.4" height="5.8"/>
	
		<rect id="사각형_1631" x="360.3" y="269.5" transform="matrix(0.9925 -0.1219 0.1219 0.9925 -41.7341 46.9828)" class="st6" width="5.8" height="190.4"/>
</g>
<g id="web">
	<path id="사각형_1640-2" class="st11" d="M119.2,15h236.7c6.1,0,11,4.9,11,11v164c0,6.1-4.9,11-11,11H119.2c-6.1,0-11-4.9-11-11
		V26C108.2,19.9,113.1,15,119.2,15z"/>
	<path id="패스_1213" class="st7" d="M118.4,15h238.3c5.6,0,10.2,4.6,10.2,10.2v12H108.2v-12C108.2,19.6,112.7,15,118.4,15
		C118.4,15,118.4,15,118.4,15z"/>
	<circle id="타원_433" class="st11" cx="323.8" cy="26.1" r="4.9"/>
	<circle id="타원_434" class="st11" cx="338.6" cy="26.1" r="4.9"/>
	<circle id="타원_435" class="st11" cx="353.3" cy="26.1" r="4.9"/>
	<path class="st18" d="M227,180c-0.4,0-0.8,0-1.2-0.1c-2.7-0.6-4.4-3.3-3.7-6L248.4,63c0.6-2.7,3.3-4.4,6-3.7c2.7,0.6,4.4,3.3,3.7,6
		l-26.2,110.9C231.4,178.5,229.3,180,227,180z">
		<animate  accumulate="none" additive="replace" attributeName="opacity" calcMode="linear" dur="2s" fill="remove" keyTimes="0; 0.25; 0.5; 0.75; 1" repeatCount="indefinite" restart="always" values="1;1;0;1;1">
		</animate>
	</path>
	<path class="st18" d="M195,158.3c-1.3,0-2.6-0.5-3.5-1.5l-38.7-38.7l40.1-35.9c2.1-1.8,5.2-1.7,7.1,0.4c1.8,2.1,1.7,5.2-0.4,7.1
		l-32.2,28.8l31.3,31.3c2,2,2,5.1,0,7.1C197.5,157.8,196.2,158.3,195,158.3z">
		<animate  accumulate="none" additive="replace" attributeName="opacity" calcMode="linear" dur="2s" fill="remove" keyTimes="0; 0.25; 0.5; 0.75; 1" repeatCount="indefinite" restart="always" values="1;0;1;1;1">
				</animate>
	</path>
	<path class="st18" d="M288.8,158.3c-1.3,0-2.6-0.5-3.5-1.5c-2-2-2-5.1,0-7.1l31.3-31.3l-32.2-28.8c-2.1-1.8-2.2-5-0.4-7.1
		c1.8-2.1,5-2.2,7.1-0.4l40.1,35.9l-38.7,38.7C291.3,157.8,290.1,158.3,288.8,158.3z">
		<animate  accumulate="none" additive="replace" attributeName="opacity" calcMode="linear" dur="2s" fill="remove" keyTimes="0; 0.25; 0.5; 0.75; 1" repeatCount="indefinite" restart="always" values="0;1;1;1;0">
				</animate>
	</path>
</g>
</svg>
