<?xml version="1.0" encoding="utf-8"?>
<!-- Generator: Adobe Illustrator 26.0.1, SVG Export Plug-In . SVG Version: 6.00 Build 0)  -->
<svg version="1.1" id="mainContent" xmlns="http://www.w3.org/2000/svg" xmlns:xlink="http://www.w3.org/1999/xlink" x="0px"
	 y="0px" viewBox="0 0 903.9 603.6" style="enable-background:new 0 0 903.9 603.6;" xml:space="preserve">
<style type="text/css">
	.st0{fill:#BCC4DB;}
	.st1{clip-path:url(#SVGID_00000075848710701005720690000017873261090146913713_);}
	.st2{fill:url(#사각형_1593_00000034073783531173976210000000206329839097313178_);}
	.st3{clip-path:url(#SVGID_00000121973140500378920730000001905297408803093417_);}
	.st4{fill:#162044;}
	.st5{clip-path:url(#SVGID_00000069389233790092143520000008015024973487872129_);}
	.st6{fill:url(#사각형_1595_00000041266421483038534840000008478327259315589538_);}
	.st7{fill:#6F67AC;}
	.st8{fill:#ECEBEE;}
	.st9{fill:#DCE2E3;}
	.st10{fill:#FFFFFF;}
	.st11{fill:#8F81BB;}
	.st12{fill:none;stroke:#8F81BB;stroke-miterlimit:10;}
	.st13{fill:#D9BCDA;}
	.st14{fill:#CA9FC9;}
	.st15{fill:#997A9A;}
	.st16{fill:none;}
	.st17{fill:#D7C3D8;}
	.st18{fill:#F28884;}
	.st19{fill:#4462CC;}
	.st20{fill:#0B287A;}
	.st21{fill:#32519F;}
	.st22{fill:#08297E;}
	.st23{fill:#1B3978;}
	.st24{fill:#182740;}
	.st25{fill:#D8D8D8;}
	.st26{fill:#343960;}
	.st27{fill:#924E99;}
	.st28{fill:#E8E8E8;}
	.st29{fill:#1A224B;}
	.st30{fill:#C29AE1;}
	.st31{fill:#E0BDF5;}
	.st32{fill:#8C5CB2;}
	.st33{fill:#D9C8F6;}
	.st34{fill:#A184F1;}
	.st35{fill:#FDC321;}
	.st36{fill:#ABB2BC;}
	.st37{fill:#7162D7;}
	.st38{fill:#EBCDEC;}
	.st39{fill:#313131;}
</style>
<g id="그룹_732" transform="translate(-877 -213.034)">
	<g id="pc" transform="translate(-28.258 -7)">
		<ellipse id="타원_453" class="st0" cx="1394.8" cy="718" rx="126.5" ry="28"/>
		<g id="그룹_581" transform="translate(224.014 350.604)">
			<g>
				<defs>
					<path id="SVGID_1_" d="M1096.6,295.7l4.2-0.1c-0.5-0.3-1.1-0.4-1.7-0.4C1098.2,295.1,1097.4,295.3,1096.6,295.7 M1100.8,295.6
						c2.4,1.5,3.1,7.5-7.4,27.8c-18,34.5-4.6,35.5-4.6,35.5l64.3,28.6l115.8-11.1c0,0,4-7.4,0-9.7c-4-2.3-35.5-12.9-47.9-21.2
						s-9.2-53.4-9.2-53.4L1100.8,295.6z"/>
				</defs>
				<clipPath id="SVGID_00000036971325480846510620000014261703251314742674_">
					<use xlink:href="#SVGID_1_"  style="overflow:visible;"/>
				</clipPath>
				<g id="그룹_580" style="clip-path:url(#SVGID_00000036971325480846510620000014261703251314742674_);">
					
						<linearGradient id="사각형_1593_00000152241456701796544770000018407953924675184053_" gradientUnits="userSpaceOnUse" x1="881.6533" y1="421.7509" x2="881.6603" y2="421.7509" gradientTransform="matrix(181.4789 -119.537 -103.5551 -157.2155 -115415.3047 172208.5312)">
						<stop  offset="0" style="stop-color:#2D3975"/>
						<stop  offset="1" style="stop-color:#191C3E"/>
					</linearGradient>
					
						<polygon id="사각형_1593" style="fill:url(#사각형_1593_00000152241456701796544770000018407953924675184053_);" points="
						1031.6,320.9 1213.1,201.3 1316.6,358.6 1135.2,478.1 					"/>
				</g>
			</g>
		</g>
		<g id="그룹_583" transform="translate(0 0.001)">
			<g>
				<defs>
					<rect id="SVGID_00000002362796456524590920000009521837285244212387_" x="1084" y="292" width="620.9" height="531.7"/>
				</defs>
				<clipPath id="SVGID_00000072997550642075779820000013231794529166123429_">
					<use xlink:href="#SVGID_00000002362796456524590920000009521837285244212387_"  style="overflow:visible;"/>
				</clipPath>
				<g id="그룹_582" style="clip-path:url(#SVGID_00000072997550642075779820000013231794529166123429_);">
					<path id="패스_1080" class="st4" d="M1625.3,639.6L1101.5,668c-9.7,0-17.5-7.8-17.5-17.5v-341c0-9.7,7.8-17.5,17.5-17.5
						l523.8,18.1c9.7,0,17.5,7.8,17.5,17.5v294.5C1642.8,631.7,1635,639.6,1625.3,639.6L1625.3,639.6"/>
				</g>
			</g>
		</g>
		<g id="그룹_585" transform="translate(10.336 -0.001)">
			<g>
				<defs>
					<path id="SVGID_00000040543028618275555150000010649239163725987000_" d="M1101.5,292c-9.7,0-17.5,7.8-17.5,17.5v341
						c0,9.7,7.8,17.5,17.5,17.5l523.8-28.4c9.7,0,17.5-7.8,17.5-17.5V327.6c0-9.7-7.8-17.5-17.5-17.5L1101.5,292z"/>
				</defs>
				<clipPath id="SVGID_00000103963541104798583670000018401856857120255408_">
					<use xlink:href="#SVGID_00000040543028618275555150000010649239163725987000_"  style="overflow:visible;"/>
				</clipPath>
				<g id="그룹_584" style="clip-path:url(#SVGID_00000103963541104798583670000018401856857120255408_);">
					
						<linearGradient id="사각형_1595_00000010295863309972913730000008438307669232653697_" gradientUnits="userSpaceOnUse" x1="1096.5425" y1="771.6733" x2="1096.5446" y2="771.6733" gradientTransform="matrix(558.798 0 0 -375.987 -611671.8125 290619.125)">
						<stop  offset="0" style="stop-color:#37458C"/>
						<stop  offset="1" style="stop-color:#22263F"/>
					</linearGradient>
					
						<rect id="사각형_1595" x="1084" y="292" style="fill:url(#사각형_1595_00000010295863309972913730000008438307669232653697_);" width="558.8" height="376"/>
				</g>
			</g>
		</g>
		<path id="패스_1082" class="st7" d="M1623.2,610.1L1131,635.4c-9.1,0-16.4-7-16.4-15.6V316.7c0-8.6,7.4-15.6,16.4-15.6
			l492.1,16.1c9.1,0,16.4,7,16.4,15.6v261.8C1639.6,603.2,1632.3,610.1,1623.2,610.1"/>
		<path id="패스_1083" class="st8" d="M1627.5,363.2l-446.7-16.5V326l446.7,16.5V363.2z"/>
		<path id="패스_1084" class="st8" d="M1627.5,594.5L1126.1,619V354.1l501.5,16.5V594.5z"/>
		<path id="패스_1085" class="st9" d="M1127.2,337l9.2-10v5.5h9.2v9.3h-9.2v4.8L1127.2,337z"/>
		<path id="패스_1086" class="st9" d="M1173.7,337l-9.2-10v5.5h-9.2v9.3h9.2v4.8L1173.7,337z"/>
		<path class="st10" d="M1580.2,336.6c-0.1,0-0.2,0-0.2,0c-1.8-0.1-3.4-0.8-4.6-2.1s-1.8-3-1.8-4.7c0.1-3.6,3-6.4,6.6-6.4
			c0,0,0,0,0,0c3.7,0.1,6.7,3.1,6.6,6.8v0c-0.1,1.8-0.8,3.4-2.1,4.6C1583.5,336,1581.9,336.6,1580.2,336.6z M1580.2,324.4
			c-3,0-5.5,2.4-5.6,5.4c-0.1,1.5,0.5,2.9,1.5,4c1,1.1,2.4,1.7,3.9,1.8c1.5,0,2.9-0.5,4-1.5c1.1-1,1.7-2.4,1.8-3.9
			C1585.9,327.1,1583.3,324.5,1580.2,324.4L1580.2,324.4z"/>
		<path class="st10" d="M1599.9,337.8c-3.5,0-6.3-2.9-6.3-6.5s2.8-6.5,6.3-6.5s6.3,2.9,6.3,6.5S1603.4,337.8,1599.9,337.8z
			 M1599.9,325.7c-2.9,0-5.3,2.5-5.3,5.5s2.4,5.5,5.3,5.5s5.3-2.5,5.3-5.5S1602.8,325.7,1599.9,325.7z"/>
		<path class="st10" d="M1619.6,337.1c-0.1,0-0.1,0-0.2,0c-1.6-0.1-3.1-0.7-4.2-1.9s-1.7-2.7-1.6-4.4c0.1-3.3,2.8-5.9,6.1-5.9
			c3.4,0.1,6.1,2.9,6.1,6.3v0C1625.5,334.5,1622.8,337.1,1619.6,337.1z M1619.5,326c-2.7,0-5,2.1-5.1,4.9c0,1.4,0.4,2.6,1.4,3.6
			s2.2,1.6,3.5,1.6c2.8,0.1,5.2-2.1,5.3-4.9C1624.7,328.4,1622.4,326,1619.5,326z"/>
		<path id="패스_1089" class="st11" d="M1601.3,479.9l-196,7.5c-4.2,0.2-7.7-3.1-7.9-7.3c0-0.1,0-0.2,0-0.3v-88
			c0-4.2,3.4-7.6,7.6-7.6c0.1,0,0.1,0,0.2,0l196,5.7c4.1,0.1,7.4,3.5,7.4,7.6v74.9C1608.7,476.3,1605.4,479.7,1601.3,479.9"/>
		<path class="st12" d="M1606.9,501.1c0-3.8-3.3-6.9-7.4-7l-194.2,7.7c-0.1,0-0.1,0-0.2,0c-4.2,0-7.6,3.1-7.6,7l0,72.9
			c0.2,3.9,3.7,6.9,7.9,6.7l195.1-8l0,0c4.1-0.1,7.3-3.2,7.3-7L1606.9,501.1z"/>
		<path id="패스_1090" class="st13" d="M1479.8,435.5c0,18.6-14.2,33.7-31.7,33.7c-17.5,0-31.7-15.1-31.7-33.7
			s14.2-33.7,31.7-33.7S1479.8,416.9,1479.8,435.5"/>
		<path id="패스_1090_00000102503835252156830940000007416238452403419021_" class="st12" d="M1472.3,544.4
			c0,14.2-10.8,25.7-24.2,25.7c-13.4,0-24.2-11.5-24.2-25.7s10.8-25.7,24.2-25.7C1461.5,518.7,1472.3,530.2,1472.3,544.4"/>
		<path id="패스_1091" class="st13" d="M1594.6,416l-92.5,0c-2,0.1-3.7-1.5-3.7-3.5c0,0,0-0.1,0-0.1V404c0-2,1.6-3.6,3.6-3.6
			c0,0,0.1,0,0.1,0l92.5,2.7c1.9,0.1,3.5,1.7,3.5,3.6v5.8C1598,414.4,1596.5,415.9,1594.6,416"/>
		<path id="패스_1091_00000168089590599802719530000008218014399482980491_" class="st12" d="M1589.5,518.7l-87.1,6.3
			c-1.9,0.2-3.5-1-3.7-2.6c0,0,0-0.1,0-0.1l-0.5-6.9c-0.1-1.6,1.3-3,3.2-3.2c0,0,0.1,0,0.1,0l87.3-4.1c1.8-0.1,3.4,1.1,3.5,2.7
			l0.3,4.7C1592.6,517.1,1591.3,518.5,1589.5,518.7"/>
		<path id="패스_1091_00000027603486423146550870000000233369411400833922_" class="st12" d="M1547,545.4l-46.3,3.4
			c-1,0.1-1.9-1.1-2.1-2.7c0,0,0-0.1,0-0.1l-0.5-6.9c-0.1-1.6,0.6-3,1.6-3.1c0,0,0,0,0.1,0l46.5-1.2c1,0,1.8,1.2,2,2.8l0.3,4.7
			C1548.6,543.9,1548,545.3,1547,545.4"/>
		<path id="패스_1092" class="st14" d="M1322.6,393.1V393l-182.8-29.6v241l197.2-9.7v-184C1336.7,403.6,1334.8,395.1,1322.6,393.1
			"/>
		<path id="패스_1110" class="st15" d="M1139.8,363.4l166.6,75c0,0-4.7-18.7-2.9-27.8c1.9-9.8,11.6-17.5,21.7-17L1139.8,363.4z"/>
		<rect id="사각형_1599" x="1084" y="292" class="st16" width="620.9" height="531.7"/>
		<path id="패스_1126" class="st17" d="M1139.8,363.4l153.8,63.8c0,0-2.3-37.6,27.5-34.3c0.5,0.1,1,0.1,1.5,0.2V393L1139.8,363.4z
			"/>
		<rect id="사각형_1603" x="1084" y="292" class="st16" width="620.9" height="531.7"/>
	</g>
	<g id="man">
		<path id="패스_1347" class="st0" d="M1146,759c29.3,0,53,6.9,53,15.5s-23.7,15.5-53,15.5s-53-6.9-53-15.5S1116.7,759,1146,759z"
			/>
		<path id="패스_1097" class="st18" d="M1118.2,755.7v9.7c0,0,6.1,2.2,7.3,0c0-3-1-11.2-1-11.2L1118.2,755.7z"/>
		<path id="패스_1098" class="st18" d="M1160.8,754.1v13c0,0,5.5,2.2,5.9,0c0.4-2.2,0-12,0-12L1160.8,754.1z"/>
		<path id="패스_1100" class="st19" d="M1116,755.3c0,0,1,3.2,5.3,3s4.7-0.2,4.9-3s14.4-97.4,15.2-109.5
			c2.6,15.2,15.6,105.7,16.2,107.5c0.6,1.8,1.8,5.1,5.5,4.9c3.7-0.2,6.9,0.8,7.1-5.5c0.2-6.3,3.2-98.2,3.2-98.2s2.2-45.8-3.4-53.4
			s-50.7-13-50.7-13s-3-1.8-6.3,16c-3.4,17.8-1.2,73.8,0,93.7S1116,755.3,1116,755.3"/>
		<path id="패스_1101" class="st20" d="M1116,774.5c0,0,10,1.1,11.1,0c1.2-1.1,0-5.7-0.6-7.6c-0.6-1.9-2.8-2.8-4.7-2.8
			c-1.4,0.1-5.1,0.5-5.4,3.9S1116,774.5,1116,774.5"/>
		<path id="패스_1102" class="st20" d="M1161.4,765c-1.5,0.3-2.5,1.6-2.6,3.1c-0.1,1.2-0.1,2.4,0,3.6h23.3c0,0,1.4-3.2-3.8-4.7
			c-3.7-1-7.5-1.7-11.4-2H1161.4z"/>
		<path id="패스_1103" class="st21" d="M1158,771.7v2.9l24.9,0.5v-3.3H1158z"/>
		<path id="패스_1104" class="st21" d="M1116,771.7h11.7c0,0,0.4,3.1,0,3.3s-10.9,0.4-11.4,0.1
			C1115.1,774.2,1116,771.7,1116,771.7"/>
		<g id="mantop">
			<g id="manhead">
				<path id="패스_1096" class="st18" d="M1161,528.3c0,0,3.8-9.4,5.2-10.2s11.4-13.1,11.4-13.1l3.6,2.6c0,0,1.3,6.9,0.4,9.1
					c-0.3,3.1-0.6,8.1-7.5,6.8c0,0-1,5.1-0.6,7.1S1162.3,532.5,1161,528.3"/>
				<path id="패스_1106" class="st22" d="M1163.1,502.5c3-2,6.7-2.9,10.3-2.6c1.8,0.1,6.4-3.2,8-3c2.7,0.4,1.8,4.6,1.9,7.3
					c0.1,3.8-1.1,5.4-2.7,3.9c-1.6-1.5-0.1,4.8-0.1,4.8s-1.6-1.7-1.9-2.1c-0.3-0.4-2.6-3.6-3.5-1.5c-0.9,2.1,0.6,5.4,1.3,5.8
					s-0.6,3.9-2.3,5.2s-2.3,3.8-8.3,0S1159.7,506.6,1163.1,502.5"/>
				<animateTransform
					additive="sum"
					attributeName="transform"
					type="rotate"
					begin="0s"
					dur="3.5s"
					keyTimes="0; 0.5; 1"
					calcMode="paced"
					values="0 1150 560; 5 1150 560; 0 1150 560"
					repeatCount="indefinite"
				/>
			</g>
			<g id="manarm">
				<path class="st19" d="M1221,416.7C1221,416.7,1221,416.7,1221,416.7C1221,416.7,1221,416.7,1221,416.7
					c-5.2-1.1-10.2,2.2-11.3,7.4s2.2,10.2,7.4,11.3c0,0,0,0,0,0v0l26.8,5.6l3.9-18.7L1221,416.7z"/>
				<path id="패스_1094" class="st23" d="M1254.1,433.3c-1.1,5.2-6.1,8.5-11.3,7.4c-5.2-1.1-8.5-6.1-7.4-11.3s6.1-8.5,11.3-7.4
					c0,0,0,0,0,0C1251.9,423.1,1255.2,428.2,1254.1,433.3"/>
				<path class="st24" d="M1227,448.8c-0.1,0-0.1,0-0.2,0c-0.5-0.1-0.9-0.6-0.8-1.2c1-5.8,3.8-6.8,4.2-6.9l0.2-0.1l14.6,3
					c1.7,0.4,3.9,0.6,5.5-0.4c1.1-0.8,1.9-2.3,2.2-4.6c0.2-1.5-0.1-2.7-0.9-3.7c-1.5-1.8-4.6-2.3-5.7-2.4c-0.6,0-1-0.5-1-1
					c0-0.6,0.5-1,1-1c0.2,0,4.8,0.2,7.2,3.1c1.2,1.4,1.6,3.2,1.3,5.2c-0.4,2.8-1.4,4.8-3,5.9c-2.2,1.5-4.9,1.2-7,0.8l-14-2.9
					c-0.5,0.3-2,1.5-2.6,5.2C1227.9,448.4,1227.4,448.8,1227,448.8z"/>
				<path id="패스_1337" class="st24" d="M1190.4,607.9l32.3-153.3l4.2,0.9l-32.3,153.3L1190.4,607.9z"/>
				<path id="패스_1353" class="st23" d="M1219.6,458.2l2.6-12.6l9.3,1.9l-2.6,12.6L1219.6,458.2z"/>
				<path id="패스_1107" class="st25" d="M1158.5,545.5c0,0,44.7-15.1,45.2-14.9c0.5,0.2,2,7,2,7s-31.5,14.3-37.8,15.1
					C1161.6,553.4,1158.5,545.5,1158.5,545.5"/>
				<path id="패스_1105" class="st18" d="M1202.4,543.6c0,0,0.5,2.4,1.2,3s-0.3,4.8-0.3,4.8s5.4,4.3,6.5,3c0.8-0.9,1.4-2,1.8-3.1
					c0.1-0.5,3.2-3.9,2.1-6.1c-1.1-2.2-3.9-5.6-5.5-3c-1.6,2.6-2.9,3.2-3.2,1.8c-0.2-1-0.8-1.8-1.7-2.3
					C1202.9,541.8,1202.3,541.6,1202.4,543.6"/>
				<path id="패스_1108" class="st18" d="M1210.6,526c-1,1.2-1.5,2.7-1.4,4.3c0,2.9-0.1,3.4,0.9,3.5c1.1,0.1,2.4-0.3,3.3-3
					c0.9-2.8,0.8-5.3-0.4-5.1C1211.8,525.8,1210.6,526,1210.6,526"/>
				<path id="패스_1109" class="st18" d="M1207.2,528.1c0,0,2.8-2.6,2.3-4.2c-0.5-1.6-0.8-1.6-1.9-0.7c-1.1,1-1.8,2.3-2.1,3.7
					c-0.4,1.2-0.9,2.4-1.7,3.5l1.8,5.6l0.2-1.1L1207.2,528.1z"/>
				<path id="패스_1099_00000157310183857078997370000005865422626431001994_" class="st10" d="M1181.8,559.7
					c0.7,0.4,8.6,17.5,8.6,17.5s3.3,7.7,8.2,2.3c8.1-8.8,10.5-25.1,10.5-25.1c0.7,0.2-4.4-2.2-5.9-3c-1.8-0.9-8.2,11.4-8.2,11.4
					s-2.8-13.1-8.4-21.5c-3.4-5-4.2-4-8.8-2.8c0,0-7.9,2.8-4.4,10C1177.2,555.5,1181.8,559.7,1181.8,559.7z"/>
				<animateTransform
					additive="sum"
					attributeName="transform"
					type="rotate"
					begin="0s"
					dur="3.5s"
					keyTimes="0; 0.5; 1"
					calcMode="paced"
					values="0 1170 560; 15 1170 560; 0 1170 560"
					repeatCount="indefinite"
				/>
			</g>
			<path id="manbody" class="st10" d="M1186.8,541.2c-0.6-5-8-8.9-13.5-11.5c0,0-14.7-2.6-20.2-2.9c-5.5-0.3-18.4,0.5-24.1,7.8
				c-10,12.8-11.9,17.7-8.9,28.2l3.3,8.1c-0.4,0.9-5.9,17.9-5.9,17.9s5.9,7.7,27.8,10.6c21.9,3,24.7,8.3,26,2.6s9.8-42.8,10.4-42.4
				C1181.8,559.7,1187.4,546.2,1186.8,541.2z"/>
			<animateTransform
				additive="sum"
				attributeName="transform"
				type="rotate"
				begin="0s"
				dur="3.5s"
				keyTimes="0; 0.5; 1"
				calcMode="paced"
				values="0 1150 570; 3 1150 570; 0 1150 570"
				repeatCount="indefinite"
			/>
		</g>
	</g>
	<g id="girl">
		<ellipse id="타원_452" class="st0" cx="1565" cy="765.5" rx="53" ry="15.5"/>
		<g id="그룹_694" transform="translate(0 2)">
			<path id="패스_1116" class="st26" d="M1587.1,749.1c-1.5,2.9-1.7,4.3-1.1,10.5c0.5,5.5,3,5.4,6.6,5.4c3.6,0,4.4,1.4,5.5-4.6
				c1.1-6,1-8.6-1.4-12.2c-2.5-2.1-3.1-1-5.4-1.7C1589,745.7,1588.2,746.6,1587.1,749.1"/>
			<path id="패스_1117" class="st18" d="M1588.7,737.4c0,0-0.6,10.3,0.8,11.6c1,0.9,3.9,1.2,5.8,0.7c0.4-0.1,1.1-1.9,1-2.6
				c-0.4-2.5-1-9.3-1-9.7S1588.7,737.4,1588.7,737.4"/>
		</g>
		<path id="패스_1312" class="st27" d="M1564.1,640.9c0,0,11.3,46.1,13.4,50.9s10.8,52.3,10.8,52.3s1.9,2.9,4.4,2.1
			s2.9-2.3,2.7-3.6c-0.2-1.3,2.2-33.1-4.5-52.1c2.5-18.3,0-49.7,0-49.7L1564.1,640.9z"/>
		<g id="girlrightarm">
			<path id="패스_1111" class="st18" d="M1596.5,615.3c0,0,6.9,12.3,2.6,12.9c-1,0.1-4,2.3-5.1,2.2c-2.7,0-2.8-3.1-3.5-6.2
				c-0.9-4,0.1-7.4,1.7-8.4C1593.7,614.9,1596.5,615.3,1596.5,615.3"/>
			<path id="패스_1112" class="st28" d="M1596.5,575.4c0,0,7.8,39.3,1.2,42.2c-3.2,1.4-4.9,0.8-6.1-0.8s-4.6-37.2-9.8-44.3
				C1581,571.4,1596.5,575.4,1596.5,575.4"/>
		</g>
		<path id="패스_1113" class="st26" d="M1545.1,746.9c0,0,3.1,0.9,3.5,2c0.4,1.1,0.1,16.3-0.5,16.8c-0.3,0.4-1.6,1.2-2.6,0.3
			c-0.7-1.6-1.2-5.9-1.2-5.9s-3.5,5.4-6.6,6.8c-3.1,1.4-10,5-9.8-1.3s7.6-8.2,8.7-10.1C1537.9,753.8,1545.1,746.9,1545.1,746.9"/>
		<path id="패스_1114" class="st18" d="M1539.9,733.5l0,16.9c0,0-7,8.1-6.3,8.3c0.7,0.2,6.1-0.1,9-3.2c1.7-1.8,3.3-2.7,4-4
			c0.4-1,0.5-2.1,0.2-3.2l-1.7-14.8L1539.9,733.5z"/>
		<path id="패스_1313" class="st27" d="M1532.5,628.3c0,0,5.1,110.5,6.5,111.6s5.5,2.9,6.7,0c1.3-2.9,9.1-102.7,9.1-102.7
			L1532.5,628.3z"/>
		<path class="st10" d="M1582.6,607.7c-2-7.1-6.7-15.3-3.6-22.7c3.5-8.3,8.3-5.3,6.3-28.5s-17.3-24.4-25.2-22.9
			c-7.9,1.4-21.5,29.6-21.5,29.6c-1.3,3.5-9.7,15.4-14.8,44.3c-5,28.9,42.4,35.3,46.8,37.5s22.7,1,28.7-1.3
			C1605.3,641.4,1584.6,614.8,1582.6,607.7z"/>
		<path class="st10" d="M1501.7,496.4"/>
		<g id="girlleftarm">
			<path id="패스_1122" class="st18" d="M1508.9,495.5c0,0,3.5-4.8,3.7-7c0.2-2.2,1.2-7-0.8-5.2c-2.1,1.8-4.7,7.4-4.3,8.3
				C1507.9,492.4,1508.9,495.5,1508.9,495.5"/>
			<path id="패스_1123" class="st13" d="M1544.4,490.3l-68.5-5.5c-1.5-0.1-2.6-1.4-2.5-2.9c0,0,0-0.1,0-0.1l3.6-30.6
				c0.2-1.5,1.5-2.5,3-2.3c0,0,0.1,0,0.1,0l68.3,8.5c1.4,0.2,2.4,1.5,2.3,3l-3.3,27.6C1547.1,489.3,1545.9,490.4,1544.4,490.3"/>
			<path id="패스_1124" class="st18" d="M1501.2,497c0,0-3.5-13.8-2.2-15.9c1.1-1.8,5-5.4,7.4-3.9c2.4,1.5,3.7,10.7,3.7,10.7
				s0.9,8.1-0.6,9.1C1508.1,498,1501.2,497,1501.2,497"/>
			<path class="st10" d="M1521.8,525.2c-7.7-3.7-10.4-22.8-11.8-28.9c-1.3-6-8.4,0-8.4,0l0,0c0,0-3,2.1,1.7,27.5
				c5.7,31.3,36.2,38.1,38.6,40.8c0,0,15.2-5.1,18.2-12.7c2.9-7.7,0-16.9,0-16.9C1553.1,536.4,1529.6,528.9,1521.8,525.2z"/>
			<animateTransform
				additive="sum"
				attributeName="transform"
				type="rotate"
				begin="0s"
				dur="4.5s"
				keyTimes="0; 0.5; 1"
				calcMode="paced"
				values="0 1550 560; -10 1550 560; 0 1550 560"
				repeatCount="indefinite"
			/>
		</g>
		<g id="girlhead">
			<path id="패스_1120" class="st18" d="M1569.9,511.6c0,0-5.6,1.7-8.7,10.1c-2.7,7.3,0.2,8.1,3.1,9.3c2.9,1.3,11-4.5,11.5-5.6
				C1576.3,524.2,1569.9,511.6,1569.9,511.6"/>
			<path id="패스_1121" class="st29" d="M1588.8,525.7c0,0,4.4,9.3,10.8,9.7c12.4,0.8,19,9.3,27.6,13c10.4,4.4,20.1,8.9,21.2,30.2
				c1,21.3-23.7,27.1-38.9,20.2c-43.4-19.8-28.3-23.7-32.3-31.4c-2.9-5.6-11.6-5.7-12.8-20s0.9-19.8,3.7-22.3
				c2.8-2.5-2.9-15.4,4.1-14.7c4.2-1.6,9.3-0.9,12,1C1590.3,516.3,1585.8,517.6,1588.8,525.7"/>
			<animateTransform
				additive="sum"
				attributeName="transform"
				type="rotate"
				begin="0s"
				dur="4.5s"
				keyTimes="0; 0.5; 1"
				calcMode="paced"
				values="0 1550 560; 3 1550 560; 0 1550 560"
				repeatCount="indefinite"
			/>
		</g>
	</g>
	<g id="squar" transform="translate(39.869)">
		<path id="패스_1127" class="st30" d="M1705.4,635l-13.8,63.6l33.2,32.1l16.2-61.5L1705.4,635z"/>
		<path id="패스_1128" class="st31" d="M1667.4,645.3l-14.2,63.2l38.7-9.7l13.1-64.2L1667.4,645.3z"/>
		<path id="패스_1129" class="st32" d="M1688.8,741.4l35.9-10.7l-32.5-31.4l-39,9L1688.8,741.4z"/>
		<animateTransform
			additive="sum"
			attributeName="transform"
			type="translate"
			begin="0s"
			dur="7.5s"
			keyTimes="0; 0.2; 0.4; 0.6;0.8;1"
			values="0 0; -10 -10; 0 0; -10 10; 0 0;"
			repeatCount="indefinite"
			calcMode="paced"
		/>
	</g>
	<g id="triangle" transform="translate(24 -105.523)">
		<path id="제외_2" class="st33" d="M892.9,836.6L892.9,836.6l30-70l77.8,31.1L892.9,836.6L892.9,836.6z M927.8,777.2L909.9,822
			l66.5-23L927.8,777.2z"/>
		<path id="패스_1132" class="st34" d="M925.3,784.2l43.3,17.6l8.4-2.7l-49.2-22.2L925.3,784.2z"/>
		<path id="패스_1133" class="st34" d="M892.9,836.6v10.3l108.4-40.3v-9.5L892.9,836.6z"/>
		<animateTransform
			additive="sum"
			attributeName="transform"
			type="translate"
			begin="0s"
			dur="8.5s"
			keyTimes="0; 0.2; 0.4; 0.6;0.8;1"
			values="0 0; 10 10; 0 0; 10 -10; 0 0;"
			repeatCount="indefinite"
			calcMode="paced"
		/>
	</g>
	<g id="buble02">
		<path id="사각형_1604-3" class="st10" d="M1535,268h172c16.6,0,30,13.4,30,30v31c0,16.6-13.4,30-30,30h-172
			c-16.6,0-30-13.4-30-30v-31C1505,281.4,1518.4,268,1535,268z"/>
		<circle id="타원_431-2" class="st35" cx="1538" cy="298" r="17"/>
		<path id="사각형_1605-3" class="st7" d="M1574.5,284h119c3,0,5.5,2.5,5.5,5.5l0,0c0,3-2.5,5.5-5.5,5.5h-119
			c-3,0-5.5-2.5-5.5-5.5l0,0C1569,286.5,1571.5,284,1574.5,284z"/>
		<path id="사각형_1606-3" class="st36" d="M1574.5,300h36c3,0,5.5,2.5,5.5,5.5l0,0c0,3-2.5,5.5-5.5,5.5h-36
			c-3,0-5.5-2.5-5.5-5.5l0,0C1569,302.5,1571.5,300,1574.5,300z"/>
		<animateTransform
			additive="sum"
			attributeName="transform"
			type="translate"
			begin="0s"
			dur="4.5s"
			keyTimes="0; 0.1;0.2;0.3;0.4; 0.5;0.6;0.7;0.8;0.9;1"
			values="0 0; 0 -10; 0 0; 0 -6; 0 0; 0 -4; 0 0; 0 -2; 0 0; 0 -1; 0 0; 0 0"
			repeatCount="indefinite"
			calcMode="paced"
		/>
		<animate attributeName="fill-opacity" attributeType="CSS"
			begin="0s" dur="4.5s" fill="freeze" repeatCount="indefinite"
			values="0; 0; 1; 1; 1; 1; 1; 1; 1; 1; 0; 0"
		/>
	</g>
	<g id="buble01">
		<path id="사각형_1604-4" class="st10" d="M919,402h212c8.3,0,15,6.7,15,15v35c0,8.3-6.7,15-15,15H919c-8.3,0-15-6.7-15-15v-35
			C904,408.7,910.7,402,919,402z"/>
		<path id="사각형_1606-4" class="st36" d="M966,431h108c2.2,0,4,1.8,4,4l0,0c0,2.2-1.8,4-4,4H966c-2.2,0-4-1.8-4-4l0,0
			C962,432.8,963.8,431,966,431z"/>
		<path id="사각형_1623" class="st37" d="M924,414h21c4.4,0,8,3.6,8,8v21c0,4.4-3.6,8-8,8h-21c-4.4,0-8-3.6-8-8v-21
			C916,417.6,919.6,414,924,414z"/>
		<path id="사각형_1605-4" class="st7" d="M966.5,414h144c2.5,0,4.5,2,4.5,4.5l0,0c0,2.5-2,4.5-4.5,4.5h-144
			c-2.5,0-4.5-2-4.5-4.5l0,0C962,416,964,414,966.5,414z"/>
		<animateTransform
			additive="sum"
			attributeName="transform"
			type="translate"
			begin="0s"
			dur="4s"
			keyTimes="0; 0.1;0.2;0.3;0.4; 0.5;0.6;0.7;0.8;0.9;1"
			values="0 0; 0 -10; 0 0; 0 -6; 0 0; 0 -4; 0 0; 0 -2; 0 0; 0 -1; 0 0; 0 0"
			repeatCount="indefinite"
			calcMode="paced"
		/>
		<animate attributeName="fill-opacity" attributeType="CSS"
			begin="0s" dur="4s" fill="freeze" repeatCount="indefinite"
			values="0; 0; 1; 1; 1; 1; 1; 1; 1; 1; 0; 0"
		/>
	</g>
	<g id="bug" transform="translate(-5 -35.314)">
		<path id="패스_1155" class="st38" d="M950.7,250.2l130.8,74.7c0,0-46,60.3-103.5,22.3S950.7,250.2,950.7,250.2z"/>
		<polygon class="st39" points="1069.9,265.4 1052.6,252.1 1034,265.4 1016.3,252.1 998.4,265.4 979.2,251.4 980.9,249 998.3,261.6 
			1016.3,248.3 1034,261.6 1052.7,248.4 1070,261.6 1088.7,248.3 1105.7,261.6 1125.3,248.4 1143.8,262.3 1142,264.7 1125.2,252.1 
			1105.5,265.4 1088.6,252.1 		">
			<animate attributeName="fill-opacity" attributeType="CSS"
				begin="0s" dur="6.5s" fill="freeze" repeatCount="indefinite"
				values="0; 0; 1; 1; 1; 1; 1; 1; 1; 1; 1; 0"
			/>
		</polygon>
		<polygon class="st39" points="1069.9,284.4 1052.6,271.1 1034,284.4 1016.3,271.1 998.4,284.4 979.2,270.4 980.9,268 998.3,280.6 
			1016.3,267.3 1034,280.6 1052.7,267.4 1070,280.6 1088.7,267.3 1105.7,280.6 1125.3,267.4 1143.8,281.3 1142,283.7 1125.2,271.1 
			1105.5,284.4 1088.6,271.1 		">
			<animate attributeName="fill-opacity" attributeType="CSS"
				begin="0s" dur="6.5s" fill="freeze" repeatCount="indefinite"
				values="0; 0; 0; 0; 0; 1; 1; 1; 1; 1; 1; 0"
			/>
		</polygon>
		<polygon class="st39" points="1069.9,302.4 1052.6,289.1 1034,302.4 1016.3,289.1 998.4,302.4 979.2,288.4 980.9,286 998.3,298.6 
			1016.3,285.3 1034,298.6 1052.7,285.4 1070,298.6 1088.7,285.3 1105.7,298.6 1125.3,285.4 1143.8,299.3 1142,301.7 1125.2,289.1 
			1105.5,302.4 1088.6,289.1 		">
			<animate attributeName="fill-opacity" attributeType="CSS"
				begin="0s" dur="6.5s" fill="freeze" repeatCount="indefinite"
				values="0; 0; 0; 0; 0; 0; 0; 0; 1; 1; 1; 0"
			/>
		</polygon>
	</g>
</g>
</svg>
