<svg xmlns="http://www.w3.org/2000/svg" xmlns:xlink="http://www.w3.org/1999/xlink" width="672.689" height="609.106" viewBox="0 0 672.689 609.106">
  <defs>
    <clipPath id="clip-path">
      <path id="패스_528" data-name="패스 528" d="M149.307,103.709V204.29a36.578,36.578,0,0,0,18.631,31.873L319.8,321.669a11.119,11.119,0,0,0,16.575-9.689V202.989a26.082,26.082,0,0,0-13.186-22.672L168.711,92.424A12.984,12.984,0,0,0,149.307,103.709Z" transform="translate(-149.307 -90.706)" fill="none"/>
    </clipPath>
  </defs>
  <g id="그룹_580" data-name="그룹 580" transform="translate(-910.54 -3343.476)">
    <path id="패스_707" data-name="패스 707" d="M10.761,227.239s-33.584,116.917,17.91,205.2S187.624,524.7,248.818,462.664,352.547,389.491,432.4,391.082s166.4-46.429,174.626-146.345S583.887,45.1,432.4,11.7s-236,1.988-321.076,68.8S10.761,227.239,10.761,227.239Z" transform="translate(1583.08 3866.882) rotate(172)" fill="#e5f2ff"/>
    <g id="그룹_348" data-name="그룹 348" transform="translate(-3312.335 3964.148)">
      <g id="그룹_322" data-name="그룹 322" transform="translate(4329.738 -618.672)">
        <g id="그룹_321" data-name="그룹 321" transform="translate(61.341 0)">
          <g id="패스_507" data-name="패스 507" transform="translate(-147.595 -21.466)" fill="none" stroke-miterlimit="10">
            <path d="M538.63,222.225,320.83,99.609c-.054-1.65-.065-4.519.121-9.34.357-9.209-9.326-14.812-9.326-14.812s-83.752-48.642-88.873-51.933a13.38,13.38,0,0,0-10.423-1.646l-6.583,3.851-.163.487c-2.484,1.306-2.943,4.8-2.943,4.8s-.066.472-.08,2.488a6.62,6.62,0,0,0-2.235.017l-14.461,8.282a6.831,6.831,0,0,0-3.6,2.059l-.035.02V43.9a6.627,6.627,0,0,0-1.723,4.485V269.8a22.281,22.281,0,0,0,11.108,19.277L527.779,483.943a9.8,9.8,0,0,0,.988.5l1.267.8a3.855,3.855,0,0,0,2.436,0,9.6,9.6,0,0,0,6.741-2.741,170.046,170.046,0,0,0,14.821-8.822A9.365,9.365,0,0,0,556.3,467.5V252.447A34.682,34.682,0,0,0,538.63,222.225Z" stroke="none"/>
            <path d="M 215.6213989257812 21.46560668945312 C 213.6548461914062 21.46554565429688 212.3290405273438 21.87741088867188 212.3290405273438 21.87741088867188 L 205.74560546875 25.72869873046875 L 205.5820922851562 26.21609497070312 C 203.097900390625 27.52203369140625 202.6390380859375 31.01995849609375 202.6390380859375 31.01995849609375 C 202.6390380859375 31.01995849609375 202.5725708007812 31.491455078125 202.558837890625 33.50839233398438 C 201.8046264648438 33.3870849609375 201.0493774414062 33.39337158203125 200.3236083984375 33.5252685546875 L 185.8623657226562 41.80709838867188 C 184.4805297851562 42.10345458984375 183.219970703125 42.82601928710938 182.266357421875 43.86614990234375 L 182.2315673828125 43.88619995117188 L 182.2326049804688 43.90414428710938 C 181.1819458007812 45.0687255859375 180.5099487304688 46.61090087890625 180.5099487304688 48.389404296875 L 180.5099487304688 269.8042602539062 C 180.5099487304688 277.7506103515625 184.7421264648438 285.0956420898438 191.6177368164062 289.0809020996094 L 527.7791137695312 483.9426574707031 C 528.1050415039062 484.1314697265625 528.4352416992188 484.2928466796875 528.767578125 484.4383239746094 L 530.0344848632812 485.2369689941406 C 530.5640869140625 485.5080261230469 531.4130859375 485.475341796875 532.4701538085938 485.2327270507812 C 535.0042114257812 485.247802734375 537.4332275390625 484.2305908203125 539.210693359375 482.4921569824219 C 546.077880859375 479.0079040527344 554.0316772460938 473.6702880859375 554.0316772460938 473.6702880859375 C 555.4271850585938 472.0489501953125 556.2984619140625 469.925537109375 556.2984619140625 467.4993286132812 L 556.2984619140625 252.4474639892578 C 556.2984619140625 239.9219665527344 549.5452270507812 228.3700866699219 538.6304931640625 222.2254638671875 L 320.8297424316406 99.60858154296875 C 320.7759094238281 97.95877075195312 320.7643127441406 95.08953857421875 320.9510498046875 90.26876831054688 C 321.3076171875 81.05978393554688 311.6248474121094 75.45626831054688 311.6248474121094 75.45626831054688 C 311.6248474121094 75.45626831054688 227.87255859375 26.814208984375 222.752197265625 23.52301025390625 C 220.192626953125 21.87728881835938 217.5869750976562 21.4656982421875 215.6213989257812 21.46560668945312 M 215.6209106445312 19.465576171875 L 215.6209106445312 21.465576171875 L 215.6210327148438 19.465576171875 C 218.5777587890625 19.46578979492188 221.4175415039062 20.28707885742188 223.8338623046875 21.84078979492188 C 228.8578491210938 25.07003784179688 311.7921752929688 73.2406005859375 312.6293029785156 73.72677612304688 C 312.7360534667969 73.78851318359375 315.3351135253906 75.30722045898438 317.8854370117188 78.0462646484375 C 319.4060363769531 79.67947387695312 320.6065368652344 81.41909790039062 321.4534912109375 83.21688842773438 C 322.5401000976562 85.52316284179688 323.0434265136719 87.92184448242188 322.9495544433594 90.34616088867188 C 322.8000793457031 94.20492553710938 322.78076171875 96.77462768554688 322.8035278320312 98.42462158203125 L 539.6116333007812 220.4826354980469 C 545.2758178710938 223.67138671875 550.003662109375 228.3229064941406 553.2841186523438 233.9342651367188 C 556.5645751953125 239.5455932617188 558.2984619140625 245.9473266601562 558.2984619140625 252.4474639892578 L 558.2984619140625 467.4993286132812 C 558.2984619140625 470.2990112304688 557.3472290039062 472.884033203125 555.5474853515625 474.9749755859375 L 555.3709106445312 475.1801452636719 L 555.1461181640625 475.3309631347656 C 554.8214111328125 475.5489196777344 547.2080078125 480.6454162597656 540.37744140625 484.1422729492188 C 538.2901611328125 486.0718078613281 535.5151977539062 487.18896484375 532.6922607421875 487.2316284179688 C 532.0661010742188 487.3634338378906 531.5140380859375 487.4277038574219 531.0106201171875 487.4277038574219 C 530.2901000976562 487.4277038574219 529.655029296875 487.2895812988281 529.1229858398438 487.0172119140625 L 529.0435791015625 486.9764709472656 L 527.822998046875 486.2071533203125 C 527.4447021484375 486.0365905761719 527.1011352539062 485.8612365722656 526.776611328125 485.6732788085938 L 190.61474609375 290.8112182617188 C 186.9384765625 288.680419921875 183.8739624023438 285.6080932617188 181.7525634765625 281.926513671875 C 179.6312255859375 278.2450256347656 178.5099487304688 274.05322265625 178.5099487304688 269.8042602539062 L 178.5099487304688 48.389404296875 C 178.5099487304688 46.52871704101562 179.1014404296875 44.73355102539062 180.1903076171875 43.248779296875 L 180.1619873046875 42.77059936523438 L 181.0176391601562 42.2774658203125 C 182.1503295898438 41.12893676757812 183.5575561523438 40.32278442382812 185.12109375 39.92681884765625 L 199.6279907226562 31.618896484375 L 199.9661865234375 31.55746459960938 C 200.176513671875 31.51925659179688 200.389404296875 31.48904418945312 200.6036987304688 31.4669189453125 C 200.6226196289062 31.06527709960938 200.6429443359375 30.85955810546875 200.6560668945312 30.75982666015625 L 200.6560668945312 30.75982666015625 C 200.6712646484375 30.64395141601562 200.8192138671875 29.59176635742188 201.328369140625 28.34939575195312 C 201.9341430664062 26.87109375 202.818603515625 25.69573974609375 203.9125366210938 24.90460205078125 L 204.088134765625 24.38128662109375 L 211.5169067382812 20.035400390625 L 211.7357177734375 19.9674072265625 C 211.901123046875 19.91607666015625 213.4150390625 19.465576171875 215.6209106445312 19.465576171875 Z" stroke="none" fill="#0057a5"/>
          </g>
          <path id="패스_508" data-name="패스 508" d="M556.209,263.991V252.447a34.682,34.682,0,0,0-17.668-30.222L320.74,99.609c-.054-1.65-.065-4.519.121-9.34.356-9.209-9.326-14.812-9.326-14.812s-83.752-48.642-88.873-51.933a13.38,13.38,0,0,0-10.423-1.646l-6.583,3.851-2.645,7.884a6.6,6.6,0,0,0-2.777-.088L182.142,43.886l1.133,19.67,358.67,207.565Z" transform="translate(-147.505 -21.466)" fill="#1163af"/>
          <path id="패스_509" data-name="패스 509" d="M541.886,268.932,183.216,61.367l11.409,198.019a22.282,22.282,0,0,0,11.107,19.277L529.886,483.048c3.84,1.963,24-11.567,24-11.567a9.364,9.364,0,0,0,2.267-6.171V261.8Z" transform="translate(-147.446 -19.276)" fill="#c3e1f6"/>
          <g id="패스_510" data-name="패스 510" transform="translate(-140.309 -18.338)" fill="none" stroke-miterlimit="10">
            <path d="M438.195,168.973c-1.468-1.224-5.771-10.518-6.682-12.51.095-.368.137-2.373-.174-9.708A17.953,17.953,0,0,0,419.817,130.3L335.608,81.473s-7.406-5.212-13.44-1.92a23.481,23.481,0,0,0-5.294,3.664c-2.762,2.709-4.154,6.455-3.331,13.265A16.541,16.541,0,0,0,322.991,110l106.675,61.147,3.867,2.216S439.842,170.345,438.195,168.973Z" stroke="none"/>
            <path d="M 433.5324096679688 173.3621673583984 C 433.5324096679688 173.3621673583984 439.8416137695312 170.3452301025391 438.1949462890625 168.9728698730469 C 436.7266235351562 167.7492218017578 432.4237670898438 158.4547882080078 431.512451171875 156.4632110595703 C 431.6072998046875 156.0950317382812 431.6495361328125 154.0897216796875 431.3383178710938 146.7552337646484 C 430.789794921875 133.8636627197266 419.8170776367188 130.2971649169922 419.8170776367188 130.2971649169922 L 335.60791015625 81.47257995605469 C 335.60791015625 81.47257995605469 328.20166015625 76.26052856445312 322.1679077148438 79.55270385742188 C 320.1045532226562 80.67720794677734 318.30810546875 81.80908203125 316.8734741210938 83.21628570556641 C 314.11181640625 85.92516326904297 312.7194213867188 89.6710205078125 313.542236328125 96.48124694824219 C 314.7911376953125 106.827392578125 322.9906616210938 109.9993896484375 322.9906616210938 109.9993896484375 L 433.5324096679688 173.3621673583984 M 433.4484252929688 175.6192016601562 L 428.6708679199219 172.8811492919922 L 322.1032409667969 111.7959976196289 C 321.515625 111.5425033569336 319.4815063476562 110.5790557861328 317.3605651855469 108.5732269287109 C 315.9246520996094 107.2152252197266 314.7215881347656 105.6453094482422 313.7848205566406 103.9070358276367 C 312.6212768554688 101.7480010986328 311.8716430664062 99.33024597167969 311.5566711425781 96.72093200683594 C 310.7281188964844 89.86331176757812 311.9359436035156 85.25791168212891 315.4729614257812 81.78849792480469 C 317.2213439941406 80.07356262207031 319.3546142578125 78.80818176269531 321.2108459472656 77.79656219482422 C 322.833251953125 76.91133117675781 324.6562805175781 76.46222686767578 326.6284484863281 76.46222686767578 C 331.5884704589844 76.46222686767578 336.0056762695312 79.32502746582031 336.6772155761719 79.78070068359375 L 420.661376953125 128.4748229980469 C 421.4371337890625 128.7618408203125 424.0547485351562 129.8415222167969 426.7018432617188 132.1980133056641 C 428.5187377929688 133.8154754638672 429.9933776855469 135.7101287841797 431.0847778320312 137.8293304443359 C 432.44140625 140.4635162353516 433.1990051269531 143.4380187988281 433.3365173339844 146.6702117919922 C 433.5948791503906 152.7590179443359 433.6093444824219 155.107177734375 433.5574645996094 156.1237487792969 C 434.1290893554688 157.363525390625 435.2061767578125 159.6671142578125 436.3490905761719 161.9433746337891 C 438.6287841796875 166.4836883544922 439.3879089355469 167.3442535400391 439.4935302734375 167.4517211914062 C 440.2142639160156 168.0619659423828 440.5619506835938 168.9326324462891 440.4479675292969 169.8442840576172 C 440.2831420898438 171.1626892089844 439.2478332519531 172.3270874023438 436.9861450195312 173.7377471923828 C 435.69677734375 174.5419311523438 434.44775390625 175.1413726806641 434.3952026367188 175.16650390625 L 433.4484252929688 175.6192016601562 Z" stroke="none" fill="#0057a5"/>
          </g>
          <g id="그룹_313" data-name="그룹 313" transform="translate(172.999 60.124)">
            <path id="패스_511" data-name="패스 511" d="M425.373,152.426c-.111-.242-.174-.382-.174-.382S425.3,152.7,425.373,152.426Z" transform="translate(-307.168 -74.425)" fill="none" stroke="#ffe0bc" stroke-miterlimit="10" stroke-width="1"/>
            <path id="패스_512" data-name="패스 512" d="M422.651,147.993c-.549-8.6-13.166-14.812-13.166-14.812s-80.826-47-86.495-49.739a7.8,7.8,0,0,0-6.117-.45c-2.762,2.709-4.154,6.455-3.331,13.265a16.541,16.541,0,0,0,9.448,13.518l106.675,61.147c-1.227-1.753-2.99-4.342-4.636-7.018C422.1,159.147,423.2,156.587,422.651,147.993Z" transform="translate(-313.307 -78.237)" fill="#fff"/>
            <path id="패스_513" data-name="패스 513" d="M438.009,168.973c-1.468-1.224-5.771-10.518-6.683-12.51-.073.278-.174-.382-.174-.382s.063.14.174.382c.095-.368.137-2.373-.174-9.708A17.953,17.953,0,0,0,419.632,130.3L335.422,81.473s-7.406-5.212-13.44-1.92a23.483,23.483,0,0,0-5.294,3.664,7.8,7.8,0,0,1,6.117.45c5.669,2.743,86.495,49.739,86.495,49.739s12.617,6.217,13.166,14.812-.549,11.154,2.378,15.91c1.647,2.676,3.409,5.265,4.636,7.018l3.867,2.216S439.656,170.345,438.009,168.973Z" transform="translate(-313.122 -78.462)" fill="#bfdff6"/>
          </g>
          <g id="그룹_314" data-name="그룹 314" transform="translate(32.915 4.263)">
            <path id="패스_514" data-name="패스 514" d="M180.51,267.7a22.281,22.281,0,0,0,11.108,19.277L527.779,481.839a9.494,9.494,0,0,0,14.255-8.214V269.018L180.51,59.8Z" transform="translate(-180.51 -23.625)" fill="#fff"/>
            <path id="패스_515" data-name="패스 515" d="M524.367,230.233,323.431,117.111c-8.858-6.4-11.624-9.875-10.893-19.932S301.933,79.44,301.933,79.44s-82.107-48.276-90.152-52.665-9.141,4.023-9.141,4.023a85.29,85.29,0,0,0,0,8.96c.108,4.516-4.334,5.111-8.015,4.837L190.546,42.3a6.733,6.733,0,0,0-10.036,5.867V61.683L542.035,270.9V260.454A34.681,34.681,0,0,0,524.367,230.233Z" transform="translate(-180.51 -25.507)" fill="#2183c8"/>
          </g>
          <line id="선_3" data-name="선 3" x2="7.817" y2="13.166" transform="translate(145.103 61.488)" fill="none" stroke="#fff" stroke-linecap="round" stroke-miterlimit="10" stroke-width="3"/>
          <line id="선_4" data-name="선 4" y1="5.075" x2="7.817" transform="translate(145.103 66.151)" fill="none" stroke="#fff" stroke-linecap="round" stroke-miterlimit="10" stroke-width="3"/>
          <line id="선_5" data-name="선 5" x2="59.66" y2="34.562" transform="translate(65.557 16.778)" fill="none" stroke="#fff" stroke-linecap="round" stroke-miterlimit="10" stroke-width="3"/>
          <line id="선_6" data-name="선 6" x2="39.636" y2="23.178" transform="translate(65.557 23.498)" fill="none" stroke="#fff" stroke-linecap="round" stroke-miterlimit="10" stroke-width="3"/>
          <line id="선_7" data-name="선 7" x2="58.563" y2="34.562" transform="translate(184.739 76.163)" fill="none" stroke="#2285c9" stroke-linecap="round" stroke-miterlimit="10" stroke-width="4"/>
          <g id="그룹_315" data-name="그룹 315" transform="translate(32.915 63.548)">
            <path id="패스_516" data-name="패스 516" d="M342.577,171.317,188.1,83.424a12.827,12.827,0,0,0-7.587-1.66V222.188a36.57,36.57,0,0,0,6.813,4.975l151.864,85.507a11.119,11.119,0,0,0,16.575-9.689V193.989A26.082,26.082,0,0,0,342.577,171.317Z" transform="translate(-180.51 -81.709)" fill="#c3e1f6"/>
          </g>
          <line id="선_8" data-name="선 8" x2="39.087" y2="22.492" transform="translate(184.739 82.883)" fill="none" stroke="#2285c9" stroke-linecap="round" stroke-miterlimit="10" stroke-width="4"/>
          <path id="패스_517" data-name="패스 517" d="M202.933,54.241l170.742,97.577a10.014,10.014,0,0,1,5.045,8.7v1.081a4.107,4.107,0,0,1-6.153,3.561L200.316,66.2a8.9,8.9,0,0,1-4.464-7.713v-.136A4.733,4.733,0,0,1,202.933,54.241Z" transform="translate(-146.753 -19.702)" fill="#fff"/>
          <path id="패스_518" data-name="패스 518" d="M149.307,104.709V205.29a36.579,36.579,0,0,0,18.631,31.873L319.8,322.67a11.119,11.119,0,0,0,16.575-9.689V203.989a26.082,26.082,0,0,0-13.186-22.672L168.711,93.424A12.984,12.984,0,0,0,149.307,104.709Z" transform="translate(-149.307 -17.612)" fill="#fff" stroke="#0057a5" stroke-miterlimit="10" stroke-width="2"/>
          <path id="패스_519" data-name="패스 519" d="M361.755,464.73" transform="translate(-137.65 2.856)" fill="#1163af"/>
          <g id="그룹_316" data-name="그룹 316" transform="translate(216.253 206.714)">
            <path id="패스_520" data-name="패스 520" d="M374.312,225.9v65.538a24.077,24.077,0,0,0,11.518,20.768l93.881,55.717c4.582,2.72,10.247-.771,10.247-6.313V290.592a17.178,17.178,0,0,0-8.151-14.773l-95.5-57.271C380.957,215.338,374.312,219.411,374.312,225.9Z" transform="translate(-353.215 -217.428)" fill="#c3e1f6"/>
            <path id="패스_521" data-name="패스 521" d="M354.312,235.9v65.538a24.077,24.077,0,0,0,11.518,20.768l93.881,55.717c4.582,2.719,10.247-.771,10.247-6.313V300.592a17.178,17.178,0,0,0-8.151-14.773l-95.5-57.271C360.957,225.338,354.312,229.411,354.312,235.9Z" transform="translate(-354.312 -216.879)" fill="#fff" stroke="#0057a5" stroke-miterlimit="10" stroke-width="2"/>
            <line id="선_9" data-name="선 9" x2="77.078" y2="44.985" transform="translate(11.688 89.573)" fill="none" stroke="#c3e1f6" stroke-linecap="round" stroke-miterlimit="10" stroke-width="3"/>
            <line id="선_10" data-name="선 10" x2="17.507" y2="10.218" transform="translate(11.688 89.573)" fill="none" stroke="#2285c9" stroke-linecap="round" stroke-miterlimit="10" stroke-width="3"/>
            <ellipse id="타원_286" data-name="타원 286" cx="17.616" cy="26.712" rx="17.616" ry="26.712" transform="translate(26.917 64.885) rotate(-30)" fill="#c3e1f6"/>
            <ellipse id="타원_287" data-name="타원 287" cx="2.469" cy="3.549" rx="2.469" ry="3.549" transform="translate(25.569 95.958) rotate(-10.45)" fill="#2384c9"/>
            <path id="패스_522" data-name="패스 522" d="M399.976,278.639v22.855a2.194,2.194,0,0,0,2.194,2.194h17.172a1.479,1.479,0,0,0,1.143-2.417l-19-23.172A.851.851,0,0,0,399.976,278.639Z" transform="translate(-351.806 -214.116)" fill="#2285c9"/>
          </g>
          <path id="패스_523" data-name="패스 523" d="M399.326,136.182c-.137.411,7.405,13.167,7.405,13.167" transform="translate(-135.589 -15.171)" fill="none" stroke="#2285c9" stroke-linecap="round" stroke-miterlimit="10" stroke-width="4"/>
          <line id="선_11" data-name="선 11" x1="8.231" y2="5.372" transform="translate(263.735 124.828)" fill="none" stroke="#2285c9" stroke-linecap="round" stroke-miterlimit="10" stroke-width="4"/>
          <g id="그룹_318" data-name="그룹 318" transform="translate(207.368 327.716)">
            <path id="패스_524" data-name="패스 524" d="M365.889,335.414v36.962a16.632,16.632,0,0,0,8.473,14.493l132.505,74.608a4.471,4.471,0,0,0,6.665-3.9v-35.07a15,15,0,0,0-7.58-13.034L370.78,332.569A3.273,3.273,0,0,0,365.889,335.414Z" transform="translate(-344.792 -332.135)" fill="#c3e1f6"/>
            <path id="패스_525" data-name="패스 525" d="M345.889,345.414v36.961a16.632,16.632,0,0,0,8.473,14.493l132.505,74.608a4.471,4.471,0,0,0,6.665-3.9v-35.07a15,15,0,0,0-7.58-13.034L350.78,342.568A3.273,3.273,0,0,0,345.889,345.414Z" transform="translate(-345.889 -331.587)" fill="#fff" stroke="#0057a5" stroke-miterlimit="10" stroke-width="2"/>
            <g id="그룹_317" data-name="그룹 317" transform="translate(45.534 46.472)">
              <line id="선_12" data-name="선 12" y2="23.59" fill="none" stroke="#c3e1f6" stroke-linecap="round" stroke-miterlimit="10" stroke-width="3"/>
              <line id="선_13" data-name="선 13" y2="11.155" transform="translate(5.76 9.783)" fill="none" stroke="#c3e1f6" stroke-linecap="round" stroke-miterlimit="10" stroke-width="3"/>
              <line id="선_14" data-name="선 14" y2="15.635" transform="translate(11.612 10.972)" fill="none" stroke="#c3e1f6" stroke-linecap="round" stroke-miterlimit="10" stroke-width="3"/>
              <line id="선_15" data-name="선 15" y2="23.59" transform="translate(16.676 10.972)" fill="none" stroke="#c3e1f6" stroke-linecap="round" stroke-miterlimit="10" stroke-width="3"/>
              <line id="선_16" data-name="선 16" y2="11.155" transform="translate(22.436 20.755)" fill="none" stroke="#c3e1f6" stroke-linecap="round" stroke-miterlimit="10" stroke-width="3"/>
              <line id="선_17" data-name="선 17" y2="15.635" transform="translate(28.288 21.944)" fill="none" stroke="#c3e1f6" stroke-linecap="round" stroke-miterlimit="10" stroke-width="3"/>
              <line id="선_18" data-name="선 18" y2="23.59" transform="translate(33.351 19.635)" fill="none" stroke="#c3e1f6" stroke-linecap="round" stroke-miterlimit="10" stroke-width="3"/>
              <line id="선_19" data-name="선 19" y2="11.155" transform="translate(39.112 29.418)" fill="none" stroke="#c3e1f6" stroke-linecap="round" stroke-miterlimit="10" stroke-width="3"/>
              <line id="선_20" data-name="선 20" y2="15.635" transform="translate(44.963 30.607)" fill="none" stroke="#c3e1f6" stroke-linecap="round" stroke-miterlimit="10" stroke-width="3"/>
              <line id="선_21" data-name="선 21" y2="23.59" transform="translate(50.027 30.607)" fill="none" stroke="#c3e1f6" stroke-linecap="round" stroke-miterlimit="10" stroke-width="3"/>
              <line id="선_22" data-name="선 22" y2="11.155" transform="translate(55.787 40.39)" fill="none" stroke="#c3e1f6" stroke-linecap="round" stroke-miterlimit="10" stroke-width="3"/>
              <line id="선_23" data-name="선 23" y2="15.635" transform="translate(61.639 41.579)" fill="none" stroke="#c3e1f6" stroke-linecap="round" stroke-miterlimit="10" stroke-width="3"/>
              <line id="선_24" data-name="선 24" y2="23.59" transform="translate(66.703 38.501)" fill="none" stroke="#c3e1f6" stroke-linecap="round" stroke-miterlimit="10" stroke-width="3"/>
              <line id="선_25" data-name="선 25" y2="11.155" transform="translate(72.463 48.284)" fill="none" stroke="#c3e1f6" stroke-linecap="round" stroke-miterlimit="10" stroke-width="3"/>
              <line id="선_26" data-name="선 26" y2="11.155" transform="translate(83.959 55.599)" fill="none" stroke="#c3e1f6" stroke-linecap="round" stroke-miterlimit="10" stroke-width="3"/>
              <line id="선_27" data-name="선 27" y2="15.635" transform="translate(78.315 49.473)" fill="none" stroke="#c3e1f6" stroke-linecap="round" stroke-miterlimit="10" stroke-width="3"/>
              <line id="선_28" data-name="선 28" y2="15.635" transform="translate(89.604 55.873)" fill="none" stroke="#c3e1f6" stroke-linecap="round" stroke-miterlimit="10" stroke-width="3"/>
            </g>
            <ellipse id="타원_288" data-name="타원 288" cx="9.949" cy="15.086" rx="9.949" ry="15.086" transform="translate(5.642 36.596) rotate(-30)" fill="#c3e1f6"/>
            <path id="패스_526" data-name="패스 526" d="M363.225,379.432V367.089l10.058,10.881Z" transform="translate(-344.938 -330.218)" fill="#fff"/>
          </g>
          <ellipse id="타원_289" data-name="타원 289" cx="3.112" cy="3.327" rx="3.112" ry="3.327" transform="matrix(0.467, -0.884, 0.884, 0.467, 347.189, 212.127)" fill="#fff"/>
          <ellipse id="타원_290" data-name="타원 290" cx="3.112" cy="3.327" rx="3.112" ry="3.327" transform="matrix(0.467, -0.884, 0.884, 0.467, 357.2, 216.927)" fill="#fff"/>
          <ellipse id="타원_291" data-name="타원 291" cx="3.112" cy="3.327" rx="3.112" ry="3.327" transform="matrix(0.467, -0.884, 0.884, 0.467, 367.212, 221.727)" fill="#fff"/>
          <g id="그룹_320" data-name="그룹 320" transform="translate(0 73.04)">
            <g id="그룹_319" data-name="그룹 319" clip-path="url(#clip-path)">
              <g id="그룹_259" data-name="그룹 259" transform="translate(35.77 60.082)">
                <g id="그룹_257" data-name="그룹 257">
                  <path id="패스_302" data-name="패스 302" d="M275.371,440.908c.458,2.031.861,3.8,1.59,7.951s-.139,7.641-2.338,9.109a8.534,8.534,0,0,1-9.92,0c-3.294-2.754-2.151-3.174-2.639-6.84s-2.388-6.283-1.728-10.227,2.9-6.285,4.368-5.552,3.9-.472,5.365-.708l1.012-.758,2.279,1.466A41.571,41.571,0,0,1,275.371,440.908Z" transform="translate(-178.992 -131.959)" fill="#403559" stroke="#162256" stroke-miterlimit="10" stroke-width="1"/>
                  <path id="패스_303" data-name="패스 303" d="M261.97,430.2s-.342,9.636,2.181,12.056,6.328,1.479,7.948-2.38S270.523,428,270.523,428Z" transform="translate(-178.896 -132.282)" fill="#bdd4ef" stroke="#162256" stroke-miterlimit="10" stroke-width="1"/>
                  <path id="패스_304" data-name="패스 304" d="M222.207,415.025c-.243-.25-1.457,12.723-1.457,12.723l2.96,2.83,9.146-.593s2.057-11.052,1.323-12.028C234.178,417.958,222.45,415.275,222.207,415.025Z" transform="translate(-181.157 -132.994)" fill="#bdd4ef" stroke="#162256" stroke-miterlimit="10" stroke-width="1"/>
                  <path id="패스_305" data-name="패스 305" d="M235.267,432.42c.565,3.429.731,2.872,0,5.317s-5.864,1.771-10.017,3.724-5.611,1.51-10.236,2.2a21.931,21.931,0,0,1-10.264-.868c-3.427-.848-2.889-.877-3.687-3.3s1.554-2.915,2.531-3.649,9.042-3.7,10.265-4.193a29.027,29.027,0,0,0,6.506-7.548c.977-1.955,2.687,0,2.687,0a62.132,62.132,0,0,0,5.132,4.154,5.9,5.9,0,0,0,5.62,0S234.7,428.99,235.267,432.42Z" transform="translate(-182.246 -132.543)" fill="#403559" stroke="#162256" stroke-miterlimit="10" stroke-width="1"/>
                  <path id="패스_301" data-name="패스 301" d="M217.142,292.754c-2.2-.487-.491,6.359-1.467,9.529s0,38.84,0,41.039,4.641,81.112,4.641,81.112,3.908,4.389,4.641,4.154,9.284,0,9.284,0,2.2-9.529,2.686-12.948,5.866-28.1,6.109-31.029-.976-25.166-1.467-29.562-2.2-17.1-1.466-19.546,1.71-3.176,2.931-2.931,1.955,8.8,2.443,10.75,4.146,18.811,4.641,22.966,6.368,32.747,6.6,36.158S262.6,438.6,262.6,438.6s1.71,3.42,2.687,3.907a19,19,0,0,0,7.075-.976c1.465-.5,3.175-4.895,5.13-6.6s1.956-42.022,1.956-45.2a130.779,130.779,0,0,0-1.956-13.68c-.243-1.465-5.863-10.991-5.13-11.727s-1.222-10.5,0-14.415,0-25.166,0-25.166L270.4,292.735S219.342,293.243,217.142,292.754Z" transform="translate(-181.459 -139.704)" fill="#2183c8"/>
                  <path id="패스_527" data-name="패스 527" d="M290.62,237.222c-.979-2.444-9.773-22.966-10.262-24.432s-13.927-8.553-14.05-9.04-19.422-7.1-22.109-8.312a84.532,84.532,0,0,0-14.9-3.907c-1.71,0-18.088.884-20.531,4.548s-12.325,22.845-16.278,31.448l-7.359,14.128c2.444,4.641,3.365,3.866,8.5,4.353s22.722-5.092,22.722-5.092v57.876c0,4.408,10.995,8.552,26.388,11.483s31.274-11.483,31.274-11.483v-7.574h11.727c16.614,0,13.439-13.439,14.658-15.149S291.6,239.665,290.62,237.222Z" transform="translate(-183.111 -145.257)" fill="#2183c8"/>
                  <path id="패스_296" data-name="패스 296" d="M232.147,193.381c-2.931,0,.488,6.107,0,9.529s.488,22.233,0,25.165,3.666,2.931,3.666,2.931a31.514,31.514,0,0,0,2.939-2.936c.734-.977,6.352-9.283,7.573-10.75s17.347-13.194,15.392-14.416S235.079,193.381,232.147,193.381Z" transform="translate(-180.597 -145.155)" fill="#fff"/>
                  <path id="패스_294" data-name="패스 294" d="M246.165,161.966s13.464,6.949,13.646,7.513-1.272,16.527-1.272,16.527l-4,7.7s.18,11.082,0,12.584-5.82,5.071-10.365,4.693a9.143,9.143,0,0,1-6.908-5.821,58.755,58.755,0,0,1,1.454-9.577c-12,3.005-12.364-8.076-12.364-9.577a56.583,56.583,0,0,1-1.273-7.326,98.094,98.094,0,0,0,1.273-15.586Z" transform="translate(-180.919 -146.879)" fill="#c3e1f6"/>
                  <path id="패스_298" data-name="패스 298" d="M245.912,268.886l2.2,9.774h-9.529c-1.222,0-5.13-.977-7.573-1.223s-5.864-4.153-5.864-4.153v-4.4s7.576.236,8.307,0,8.544,0,8.544,0Z" transform="translate(-180.915 -141.018)" fill="#bfdff6"/>
                  <path id="패스_297" data-name="패스 297" d="M271.175,287.553s-10.263-1.955-10.751-1.955-17.59-1.71-17.59-1.71c.53-1.461.442-3.038,1.524-4.153,1.169-2.677-.585-5.434-.585-5.434a20,20,0,0,1-2.16-4.583c-.236-1.465-.977-2.687,0-2.687s16.857-1.466,18.811-1.466,12.706,2.686,15.149,2.686-3.176-19.057-3.176-19.057" transform="translate(-180.039 -142.093)" fill="#2183c8"/>
                  <path id="패스_299" data-name="패스 299" d="M244.3,289.878l-8.552,1.71-29.319-6.351-5.13-3.908-18.08-52.284h2.443l40.013,8.061Z" transform="translate(-183.216 -143.198)" fill="#c3e1f6"/>
                  <path id="패스_293" data-name="패스 293" d="M266.152,177.01c-.726.75-9.444,17.273-12,17.463s-2.373-1.5-2.373-1.5a13.008,13.008,0,0,1,2.373-3.37c1.272-1.125,3.816-1.5,4.728-2.815s-.911-6.009-3.091-7.7-3.453,1.314-4,1.878a21.066,21.066,0,0,1-4.544,3.005c-.545,0,1.273-14.27,0-14.27a34.727,34.727,0,0,1-17.454,1.878c-10.911-1.5-7.636-17.65-6-20.282s10.911-3.943,20-3.57,8.182.751,14.364,6.572C272.157,150.168,266.879,176.259,266.152,177.01Z" transform="translate(-181.086 -147.664)" fill="#1163af"/>
                </g>
              </g>
            </g>
          </g>
        </g>
        <ellipse id="타원_381" data-name="타원 381" cx="69.437" cy="29.872" rx="69.437" ry="29.872" transform="translate(-5 519.91)" fill="#bcd5ee"/>
        <g id="그룹_250" data-name="그룹 250" transform="translate(8.964 202.152)">
          <path id="패스_529" data-name="패스 529" d="M200.436,295.26l19.476-26.883s3.9-5.578,5.026-5.578-.814,5.578-.814,5.578,10.151-3.2,11.467-3.573,3.417.869,3.423,1.546c.044,5.2-5.686,8.1-5.686,8.1s-8.64,3.457-9.2,3.27-14.664,33.552-14.664,33.552Z" transform="translate(-99.124 -202.995)" fill="#f7a19c"/>
          <path id="패스_247" data-name="패스 247" d="M175.688,223.623s5.377,9.4,3.91,16.617-4.718,10.594-8.185,9.042-2.688,2.807-2.688,2.807v8.065l-15.021-3.176s.855-9.287,0-10.019S166.282,222.9,166.282,222.9Z" transform="translate(-101.69 -205.185)" fill="#f7a19c"/>
          <path id="패스_246" data-name="패스 246" d="M144.663,221.527c1.7-3.5,2.4-6.8,10.591-8.272s11.684-3.912,12.789-5.254,6.148-3.049,7.37-.975,2.563,3.053,3.541,5.007,4.4,2.563,2.565,7.207-3.177,7.7-6.109,9.648a26.772,26.772,0,0,0-5.377,4.03,37.924,37.924,0,0,1,.611,6.6c-.366.611-1.222,1.1-1.466,0a22.332,22.332,0,0,0-2.81-6.6c-.977-.855-5.007.978-3.91,3.666a11.954,11.954,0,0,0,5.133,4.644,8.764,8.764,0,0,1-.612,5.864c-1.466,3.053-2.2,5.008-4.518,5.132s-9.406.611-11.485-2.322a67.884,67.884,0,0,1-8.426-16.976C140.472,226.082,140.068,223,144.663,221.527Z" transform="translate(-102.382 -206.059)" fill="#342521"/>
          <path id="패스_252" data-name="패스 252" d="M110.059,289.486l-4.607,5.4s-2.381,2.689,0,8.258,15.244,48.267,17.942,49.378,3.971,1.747,3.971,1.747,3.336-39.852,3.336-40.487V301.712Z" transform="translate(-104.394 -201.531)" fill="#f7a19c"/>
          <path id="패스_250" data-name="패스 250" d="M137.665,256.525,114.8,279.707s-4.607,3.333-5.4,6.192-3.494,5.715,0,10.479,10.32,14.923,13.812,15.241a38.627,38.627,0,0,0,9.685-1.27Z" transform="translate(-104.215 -203.34)" fill="#2f3194"/>
          <path id="패스_257" data-name="패스 257" d="M127.575,492.465l-2.478,3.3v10.32s4.332,5.377,9.081,3.714,17.13-11.558,17.751-14.034,1.238-7.432-1.445-8.876-11.146,1.652-15.068,3.1S127.575,492.465,127.575,492.465Z" transform="translate(-103.258 -161.72)" fill="#22519f"/>
          <path id="패스_258" data-name="패스 258" d="M161.305,503.984s-2.53,1.41-3.1,2.689-.849,10.3-.849,10.3.849,3.732,8.486,3.322c8.53-1.1,14.962-2.531,22.533-6.614,3.3-2.27,5.984-3.714,5.78-7.018s-1.652-5.161-7.637-4.128-20.675,1.458-20.675,1.458Z" transform="translate(-101.488 -160.857)" fill="#22519f"/>
          <path id="패스_255" data-name="패스 255" d="M127.446,481.305v16.721a7.307,7.307,0,0,0,5.377,3.508c3.716.413,6.81-1.857,6.4-3.508s0-18.783,0-18.783Z" transform="translate(-103.129 -162.119)" fill="#f7a19c"/>
          <path id="패스_256" data-name="패스 256" d="M161.1,494.365v13a6.469,6.469,0,0,0,1.725,3.8c.972.9,6.122,1.406,7.563.513,1.587-.984,1.7-1.021,2.478-4.313a74.61,74.61,0,0,0,0-14.034Z" transform="translate(-101.282 -161.346)" fill="#f7a19c"/>
          <path id="패스_254" data-name="패스 254" d="M129.548,362.583s.407,26.96,1.749,32.014.8,29.658,0,34.038-6.439,21.23-5.9,36.06-.269,57.29,1.88,59.313,14.758,5.054,15.83-3.708,7.784-61.672,7.515-65.043,5.635-27.3,5.1-34.713.269-14.155,2.146-14.155,4.024,32.69,3.756,34.037a97.5,97.5,0,0,0-3.756,33.363c1.342,17.525,0,60.325,3.756,64.029s14.489,6.065,16.1,0,5.9-77.175,5.9-77.175,7.513-86.948,6.171-92.34S129.548,362.583,129.548,362.583Z" transform="translate(-103.244 -200.141)" fill="#fff"/>
          <path id="패스_249" data-name="패스 249" d="M146.59,252.611c-5.4.477-9.209-1.271-11.909,7.463a190.538,190.538,0,0,0-5.238,25.415c-.477,3.651-4.764,58.748-4.764,65.1a50.14,50.14,0,0,1-3.176,14.607s1.112,5.715,17.942,8.1,35.407,3.81,39.852,2.541,17.307.477,16.989-5.4.954-50.013.954-50.013,4.763,4.127,8.731,1.112,9.366-8.573,9.366-9.685,2.857-3.492-3.809-12.861-20.164-31.28-20.164-31.28a28.44,28.44,0,0,0-12.067-6.669C172.154,259.28,151.988,252.134,146.59,252.611Z" transform="translate(-103.455 -203.556)" fill="#4462cc"/>
          <path id="패스_248" data-name="패스 248" d="M152.648,249.976c-.362-.489-3.974.164-4.336.669a21.644,21.644,0,0,0-.288,4.627,12.478,12.478,0,0,0,7.3,4.7,62.285,62.285,0,0,0,12.863-.362c.362,0,2.964-1.444,2.6-2.023s-1.3-2.529-2.6-2.311a42.308,42.308,0,0,1-11.634-1.806A18.524,18.524,0,0,1,152.648,249.976Z" transform="translate(-102.001 -203.709)" fill="#fff"/>
          <path id="교차_4" data-name="교차 4" d="M174.678,341.077s-.315-42.869.628-42.709,8.106,9.208,8.582,9.531,10.637,10,10.637,10l.113.215c-.176-.134-.271-.215-.271-.215s-1.271,44.139-.954,50.014-12.543,4.127-16.989,5.4a13.437,13.437,0,0,1-2.585.373Z" transform="translate(-100.583 -201.044)" fill="#2f3194"/>
        </g>
      </g>
    </g>
  </g>
</svg>
